  0
SECTION
  2
HEADER
  9
$ACADVER
  1
AC1009
  9
$LIMMIN
 10
0.000000
 20
-0.000000
  9
$LIMMAX
 10
38.314549
 20
54.221806
  0
ENDSEC
  0
SECTION
  2
TABLES
  0
TABLE
  2
LTYPE
 70
     4
  0
LTYPE
  2
CONTINUOUS
 70
     0
  3
Solid line
 72
     65
 73
     0
 40
0.000000
  0
LTYPE
  2
HIDDEN
 70
     0
  3
 _ _ _ _ _ _ _ _ _ _ _
 72
     65
 73
     2
 40
0.375000
 49
0.250000
 49
-0.125000
  0
LTYPE
  2
DASHED
 70
     0
  3
 ___ ___ ___ ___ ___ ___ ___ 
 72
     65
 73
     2
 40
0.750000
 49
0.500000
 49
-0.250000
  0
LTYPE
  2
CENTER
 70
     0
  3
___ _ ___ _ ___ _ ___
 72
     65
 73
     4
 40
2.000000
 49
1.250000
 49
-0.250000
 49
0.250000
 49
-0.250000
  0
LTYPE
  2
BORDER
 70
     0
  3
___ ___ . ___ ___ . ___ ___
 72
     65
 73
     6
 40
1.750000
 49
0.500000
 49
-0.250000
 49
0.500000
 49
-0.250000
 49
0.000000
 49
-0.250000
  0
LTYPE
  2
DOT
 70
     0
  3
.................
 72
     65
 73
     2
 40
0.250000
 49
0.000000
 49
-0.250000
  0
LTYPE
  2
DASHDOT
 70
     0
  3
__ . __ . __ . __
 72
     65
 73
     4
 40
1.000000
 49
0.500000
 49
-0.250000
 49
0.000000
 49
-0.250000
  0
LTYPE
  2
DIVIDE
 70
     0
  3
___ .. ___ .. ___ .. ___
 72
     65
 73
     6
 40
1.250000
 49
0.500000
 49
-0.250000
 49
0.000000
 49
-0.250000
 49
0.000000
 49
-0.250000
  0
ENDTAB
  0
TABLE
  2
LAYER
 70
     8
  0
LAYER
  2
BLACK
 70
     0
 62
     1
  6
CONTINUOUS
  0
LAYER
  2
WHITE
 70
     0
 62
     7
  6
CONTINUOUS
  0
LAYER
  2
RED
 70
     0
 62
     1
  6
CONTINUOUS
  0
LAYER
  2
YELLOW
 70
     0
 62
     2
  6
CONTINUOUS
  0
LAYER
  2
GREEN
 70
     0
 62
     3
  6
CONTINUOUS
  0
LAYER
  2
CYAN
 70
     0
 62
     4
  6
CONTINUOUS
  0
LAYER
  2
BLUE
 70
     0
 62
     5
  6
CONTINUOUS
  0
LAYER
  2
MAGENTA
 70
     0
 62
     6
  6
CONTINUOUS
  0
ENDTAB
  0
TABLE
  2
APPID
 70
     1
  0
APPID
  2
TC_BEND_DATA
 70
     0
  0
ENDTAB
  0
ENDSEC
  0
SECTION
  2
BLOCKS
  0
ENDSEC
  0
SECTION
  2
ENTITIES
  0
LINE
  8
WHITE
 10
8.287500
 20
39.518325
 30
0.000000
 11
9.243750
 21
43.768325
 31
0.000000
  6
CONTINUOUS
  0
LINE
  8
WHITE
 10
9.243750
 20
43.768325
 30
0.000000
 11
9.775000
 21
45.574575
 31
0.000000
  6
CONTINUOUS
  0
LINE
  8
WHITE
 10
9.775000
 20
45.574575
 30
0.000000
 11
12.218750
 21
51.949575
 31
0.000000
  6
CONTINUOUS
  0
ARC
  8
WHITE
 10
10.296722
 20
52.272792
 30
0.000000
 40
1.949015
 50
-9.545780
 51
139.316111
  6
CONTINUOUS
  0
LINE
  8
WHITE
 10
8.818750
 20
53.543325
 30
0.000000
 11
7.437500
 21
51.630825
 31
0.000000
  6
CONTINUOUS
  0
LINE
  8
WHITE
 10
7.437500
 20
51.630825
 30
0.000000
 11
5.525000
 21
48.337075
 31
0.000000
  6
CONTINUOUS
  0
ARC
  8
WHITE
 10
35.002329
 20
29.147068
 30
0.000000
 40
35.173417
 50
146.935509
 51
174.346503
  6
CONTINUOUS
  0
LINE
  8
WHITE
 10
0.000000
 20
32.612075
 30
0.000000
 11
0.000000
 21
30.593325
 31
0.000000
  6
CONTINUOUS
  0
ARC
  8
WHITE
 10
17.369572
 20
32.430265
 30
0.000000
 40
17.466436
 50
-173.963056
 51
-141.964490
  6
CONTINUOUS
  0
LINE
  8
WHITE
 10
3.612500
 20
21.668325
 30
0.000000
 11
4.037500
 21
21.137075
 31
0.000000
  6
CONTINUOUS
  0
LINE
  8
WHITE
 10
4.037500
 20
21.137075
 30
0.000000
 11
6.268750
 21
19.224575
 31
0.000000
  6
CONTINUOUS
  0
LINE
  8
WHITE
 10
6.268750
 20
19.224575
 30
0.000000
 11
7.756250
 21
18.268325
 31
0.000000
  6
CONTINUOUS
  0
ARC
  8
WHITE
 10
6.824598
 20
13.248086
 30
0.000000
 40
5.105956
 50
6.271113
 51
79.486694
  6
CONTINUOUS
  0
LINE
  8
WHITE
 10
11.900000
 20
13.805825
 30
0.000000
 11
12.643750
 21
4.880825
 31
0.000000
  6
CONTINUOUS
  0
ARC
  8
WHITE
 10
18.395524
 20
5.829481
 30
0.000000
 40
5.829481
 50
-170.634368
 51
0.074642
  6
CONTINUOUS
  0
LINE
  8
WHITE
 10
24.225000
 20
5.837075
 30
0.000000
 11
25.393750
 21
13.593325
 31
0.000000
  6
CONTINUOUS
  0
ARC
  8
WHITE
 10
29.868776
 20
12.333698
 30
0.000000
 40
4.648926
 50
117.373500
 51
164.279184
  6
CONTINUOUS
  0
ARC
  8
WHITE
 10
23.339090
 20
31.188865
 30
0.000000
 40
15.367804
 50
-73.393165
 51
-21.753554
  6
CONTINUOUS
  0
ARC
  8
WHITE
 10
6.179772
 20
32.173709
 30
0.000000
 40
32.134777
 50
-11.998519
 51
20.744381
  6
CONTINUOUS
  0
LINE
  8
WHITE
 10
36.231250
 20
43.555825
 30
0.000000
 11
34.850000
 21
47.062075
 31
0.000000
  6
CONTINUOUS
  0
LINE
  8
WHITE
 10
34.850000
 20
47.062075
 30
0.000000
 11
32.937500
 21
50.462075
 31
0.000000
  6
CONTINUOUS
  0
LINE
  8
WHITE
 10
32.937500
 20
50.462075
 30
0.000000
 11
31.875000
 21
52.162075
 31
0.000000
  6
CONTINUOUS
  0
ARC
  8
WHITE
 10
30.037926
 20
50.979163
 30
0.000000
 40
2.184977
 50
32.777935
 51
196.575791
  6
CONTINUOUS
  0
LINE
  8
WHITE
 10
27.943750
 20
50.355825
 30
0.000000
 11
28.475000
 21
49.080825
 31
0.000000
  6
CONTINUOUS
  0
LINE
  8
WHITE
 10
28.475000
 20
49.080825
 30
0.000000
 11
29.750000
 21
45.043325
 31
0.000000
  6
CONTINUOUS
  0
LINE
  8
WHITE
 10
29.750000
 20
45.043325
 30
0.000000
 11
30.600000
 21
42.174575
 31
0.000000
  6
CONTINUOUS
  0
LINE
  8
WHITE
 10
30.600000
 20
42.174575
 30
0.000000
 11
31.131250
 21
38.455825
 31
0.000000
  6
CONTINUOUS
  0
LINE
  8
WHITE
 10
31.131250
 20
38.455825
 30
0.000000
 11
31.343750
 21
35.799575
 31
0.000000
  6
CONTINUOUS
  0
ARC
  8
WHITE
 10
22.204524
 20
36.535292
 30
0.000000
 40
9.168791
 50
-95.308459
 51
-4.602439
  6
CONTINUOUS
  0
LINE
  8
WHITE
 10
21.356250
 20
27.405825
 30
0.000000
 11
21.035016
 21
27.432595
 31
0.000000
  6
CONTINUOUS
  0
ARC
  8
WHITE
 10
20.951971
 20
26.436049
 30
0.000000
 40
1.000000
 50
85.236358
 51
178.386461
  6
CONTINUOUS
  0
LINE
  8
WHITE
 10
19.952367
 20
26.464207
 30
0.000000
 11
19.766572
 21
19.868462
 31
0.000000
  6
CONTINUOUS
  0
LINE
  8
WHITE
 10
19.766572
 20
19.868462
 30
0.000000
 11
18.168750
 21
19.968325
 31
0.000000
  6
CONTINUOUS
  0
LINE
  8
WHITE
 10
18.168750
 20
19.968325
 30
0.000000
 11
18.353519
 21
26.527640
 31
0.000000
  6
CONTINUOUS
  0
ARC
  8
WHITE
 10
17.353916
 20
26.555797
 30
0.000000
 40
1.000000
 50
-1.613539
 51
87.510447
  6
CONTINUOUS
  0
LINE
  8
WHITE
 10
17.397353
 20
27.554854
 30
0.000000
 11
15.937500
 21
27.618325
 31
0.000000
  6
CONTINUOUS
  0
ARC
  8
WHITE
 10
15.724047
 20
35.481517
 30
0.000000
 40
7.866089
 50
-163.516316
 51
-88.445039
  6
CONTINUOUS
  0
LINE
  8
WHITE
 10
8.181250
 20
33.249575
 30
0.000000
 11
7.968750
 21
34.949575
 31
0.000000
  6
CONTINUOUS
  0
LINE
  8
WHITE
 10
7.968750
 20
34.949575
 30
0.000000
 11
7.968750
 21
36.330825
 31
0.000000
  6
CONTINUOUS
  0
LINE
  8
WHITE
 10
7.968750
 20
36.330825
 30
0.000000
 11
8.287500
 21
39.518325
 31
0.000000
  6
CONTINUOUS
  0
ENDSEC
  0
EOF
