  0
SECTION
  2
HEADER
  9
$ACADVER
  1
AC1009
  9
$LIMMIN
 10
0.000000
 20
-0.000000
  9
$LIMMAX
 10
60.759528
 20
38.855825
  0
ENDSEC
  0
SECTION
  2
TABLES
  0
TABLE
  2
LTYPE
 70
     4
  0
LTYPE
  2
CONTINUOUS
 70
     0
  3
Solid line
 72
     65
 73
     0
 40
0.000000
  0
LTYPE
  2
HIDDEN
 70
     0
  3
 _ _ _ _ _ _ _ _ _ _ _
 72
     65
 73
     2
 40
0.375000
 49
0.250000
 49
-0.125000
  0
LTYPE
  2
DASHED
 70
     0
  3
 ___ ___ ___ ___ ___ ___ ___ 
 72
     65
 73
     2
 40
0.750000
 49
0.500000
 49
-0.250000
  0
LTYPE
  2
CENTER
 70
     0
  3
___ _ ___ _ ___ _ ___
 72
     65
 73
     4
 40
2.000000
 49
1.250000
 49
-0.250000
 49
0.250000
 49
-0.250000
  0
LTYPE
  2
BORDER
 70
     0
  3
___ ___ . ___ ___ . ___ ___
 72
     65
 73
     6
 40
1.750000
 49
0.500000
 49
-0.250000
 49
0.500000
 49
-0.250000
 49
0.000000
 49
-0.250000
  0
LTYPE
  2
DOT
 70
     0
  3
.................
 72
     65
 73
     2
 40
0.250000
 49
0.000000
 49
-0.250000
  0
LTYPE
  2
DASHDOT
 70
     0
  3
__ . __ . __ . __
 72
     65
 73
     4
 40
1.000000
 49
0.500000
 49
-0.250000
 49
0.000000
 49
-0.250000
  0
LTYPE
  2
DIVIDE
 70
     0
  3
___ .. ___ .. ___ .. ___
 72
     65
 73
     6
 40
1.250000
 49
0.500000
 49
-0.250000
 49
0.000000
 49
-0.250000
 49
0.000000
 49
-0.250000
  0
ENDTAB
  0
TABLE
  2
LAYER
 70
     8
  0
LAYER
  2
BLACK
 70
     0
 62
     1
  6
CONTINUOUS
  0
LAYER
  2
WHITE
 70
     0
 62
     7
  6
CONTINUOUS
  0
LAYER
  2
RED
 70
     0
 62
     1
  6
CONTINUOUS
  0
LAYER
  2
YELLOW
 70
     0
 62
     2
  6
CONTINUOUS
  0
LAYER
  2
GREEN
 70
     0
 62
     3
  6
CONTINUOUS
  0
LAYER
  2
CYAN
 70
     0
 62
     4
  6
CONTINUOUS
  0
LAYER
  2
BLUE
 70
     0
 62
     5
  6
CONTINUOUS
  0
LAYER
  2
MAGENTA
 70
     0
 62
     6
  6
CONTINUOUS
  0
ENDTAB
  0
TABLE
  2
APPID
 70
     1
  0
APPID
  2
TC_BEND_DATA
 70
     0
  0
ENDTAB
  0
ENDSEC
  0
SECTION
  2
BLOCKS
  0
ENDSEC
  0
SECTION
  2
ENTITIES
  0
ARC
  8
WHITE
 10
46.628996
 20
22.736609
 30
0.000000
 40
13.646817
 50
-40.289380
 51
-11.249275
  6
CONTINUOUS
  0
ARC
  8
WHITE
 10
51.605071
 20
16.454988
 30
0.000000
 40
9.154457
 50
-153.134896
 51
23.289263
  6
CONTINUOUS
  0
ARC
  8
WHITE
 10
88.801179
 20
43.355136
 30
0.000000
 40
54.964121
 50
-159.624452
 51
-145.620143
  6
CONTINUOUS
  0
LINE
  8
WHITE
 10
37.276127
 20
24.218167
 30
0.000000
 11
36.107377
 21
27.299417
 31
0.000000
  6
CONTINUOUS
  0
ARC
  8
WHITE
 10
33.543623
 20
26.131863
 30
0.000000
 40
2.817094
 50
24.484891
 51
145.575628
  6
CONTINUOUS
  0
LINE
  8
WHITE
 10
31.219877
 20
27.724417
 30
0.000000
 11
27.926127
 21
24.430667
 31
0.000000
  6
CONTINUOUS
  0
LINE
  8
WHITE
 10
27.926127
 20
24.430667
 30
0.000000
 11
25.057377
 21
20.818167
 31
0.000000
  6
CONTINUOUS
  0
LINE
  8
WHITE
 10
25.057377
 20
20.818167
 30
0.000000
 11
22.719877
 21
17.524417
 31
0.000000
  6
CONTINUOUS
  0
LINE
  8
WHITE
 10
22.719877
 20
17.524417
 30
0.000000
 11
13.688627
 21
2.436917
 31
0.000000
  6
CONTINUOUS
  0
ARC
  8
WHITE
 10
9.111840
 20
5.516303
 30
0.000000
 40
5.516303
 50
-119.955771
 51
-33.933735
  6
CONTINUOUS
  0
LINE
  8
WHITE
 10
6.357377
 20
0.736917
 30
0.000000
 11
5.613627
 21
1.161917
 31
0.000000
  6
CONTINUOUS
  0
LINE
  8
WHITE
 10
5.613627
 20
1.161917
 30
0.000000
 11
2.851127
 21
2.755667
 31
0.000000
  6
CONTINUOUS
  0
LINE
  8
WHITE
 10
2.851127
 20
2.755667
 30
0.000000
 11
2.213627
 21
3.180667
 31
0.000000
  6
CONTINUOUS
  0
ARC
  8
WHITE
 10
5.305389
 20
7.492066
 30
0.000000
 40
5.305389
 50
152.026033
 51
234.355188
  6
CONTINUOUS
  0
LINE
  8
WHITE
 10
0.619877
 20
9.980667
 30
0.000000
 11
4.338627
 21
16.143167
 31
0.000000
  6
CONTINUOUS
  0
ARC
  8
WHITE
 10
7.920182
 20
13.270221
 30
0.000000
 40
4.591443
 50
54.178518
 51
141.265134
  6
CONTINUOUS
  0
LINE
  8
WHITE
 10
10.607377
 20
16.993167
 30
0.000000
 11
11.308173
 21
16.642769
 31
0.000000
  6
CONTINUOUS
  0
ARC
  8
WHITE
 10
10.860959
 20
15.748342
 30
0.000000
 40
1.000000
 50
-29.054604
 51
63.434949
  6
CONTINUOUS
  0
LINE
  8
WHITE
 10
11.735117
 20
15.262699
 30
0.000000
 11
9.005588
 21
10.349547
 31
0.000000
  6
CONTINUOUS
  0
LINE
  8
WHITE
 10
9.005588
 20
10.349547
 30
0.000000
 11
10.394877
 21
9.555667
 31
0.000000
  6
CONTINUOUS
  0
LINE
  8
WHITE
 10
10.394877
 20
9.555667
 30
0.000000
 11
15.176127
 21
18.161917
 31
0.000000
  6
CONTINUOUS
  0
LINE
  8
WHITE
 10
15.176127
 20
18.161917
 30
0.000000
 11
16.982377
 21
21.030667
 31
0.000000
  6
CONTINUOUS
  0
LINE
  8
WHITE
 10
16.982377
 20
21.030667
 30
0.000000
 11
18.257377
 21
22.943167
 31
0.000000
  6
CONTINUOUS
  0
LINE
  8
WHITE
 10
18.257377
 20
22.943167
 30
0.000000
 11
20.063627
 21
25.386917
 31
0.000000
  6
CONTINUOUS
  0
LINE
  8
WHITE
 10
20.063627
 20
25.386917
 30
0.000000
 11
22.932377
 21
28.574417
 31
0.000000
  6
CONTINUOUS
  0
LINE
  8
WHITE
 10
22.932377
 20
28.574417
 30
0.000000
 11
25.694877
 21
31.230667
 31
0.000000
  6
CONTINUOUS
  0
LINE
  8
WHITE
 10
25.694877
 20
31.230667
 30
0.000000
 11
29.094877
 21
34.205667
 31
0.000000
  6
CONTINUOUS
  0
LINE
  8
WHITE
 10
29.094877
 20
34.205667
 30
0.000000
 11
31.857377
 21
36.224417
 31
0.000000
  6
CONTINUOUS
  0
LINE
  8
WHITE
 10
31.857377
 20
36.224417
 30
0.000000
 11
35.257377
 21
38.455667
 31
0.000000
  6
CONTINUOUS
  0
ARC
  8
WHITE
 10
36.997771
 20
34.871029
 30
0.000000
 40
3.984796
 50
18.238553
 51
115.897246
  6
CONTINUOUS
  0
LINE
  8
WHITE
 10
40.782377
 20
36.118167
 30
0.000000
 11
41.419877
 21
32.186917
 31
0.000000
  6
CONTINUOUS
  0
LINE
  8
WHITE
 10
41.419877
 20
32.186917
 30
0.000000
 11
42.376127
 21
28.361917
 31
0.000000
  6
CONTINUOUS
  0
LINE
  8
WHITE
 10
42.376127
 20
28.361917
 30
0.000000
 11
43.438627
 21
24.961917
 31
0.000000
  6
CONTINUOUS
  0
ARC
  8
WHITE
 10
50.233870
 20
27.895192
 30
0.000000
 40
7.401312
 50
-156.651783
 51
-68.044434
  6
CONTINUOUS
  0
ARC
  8
WHITE
 10
53.107377
 20
24.430667
 30
0.000000
 40
3.401660
 50
-91.789911
 51
-38.659808
  6
CONTINUOUS
  0
ARC
  8
WHITE
 10
47.902654
 20
24.858158
 30
0.000000
 40
8.264993
 50
-45.019698
 51
-17.988835
  6
CONTINUOUS
  0
LINE
  8
WHITE
 10
53.744877
 20
19.011917
 30
0.000000
 11
52.363627
 21
17.949417
 31
0.000000
  6
CONTINUOUS
  0
LINE
  8
WHITE
 10
52.363627
 20
17.949417
 30
0.000000
 11
51.513627
 21
17.630667
 31
0.000000
  6
CONTINUOUS
  0
LINE
  8
WHITE
 10
51.513627
 20
17.630667
 30
0.000000
 11
49.919877
 21
17.205667
 31
0.000000
  6
CONTINUOUS
  0
LINE
  8
WHITE
 10
49.919877
 20
17.205667
 30
0.000000
 11
49.069877
 21
16.674417
 31
0.000000
  6
CONTINUOUS
  0
ARC
  8
WHITE
 10
50.235144
 20
15.012736
 30
0.000000
 40
2.029539
 50
125.040361
 51
245.348497
  6
CONTINUOUS
  0
ARC
  8
WHITE
 10
52.825905
 20
17.528041
 30
0.000000
 40
5.551881
 50
-128.251865
 51
-40.642193
  6
CONTINUOUS
  0
ENDSEC
  0
EOF
