  0
SECTION
  2
HEADER
  9
$ACADVER
  1
AC1009
  9
$LIMMIN
 10
-0.000000
 20
-0.000000
  9
$LIMMAX
 10
59.832468
 20
44.192498
  0
ENDSEC
  0
SECTION
  2
TABLES
  0
TABLE
  2
LTYPE
 70
     4
  0
LTYPE
  2
CONTINUOUS
 70
     0
  3
Solid line
 72
     65
 73
     0
 40
0.000000
  0
LTYPE
  2
HIDDEN
 70
     0
  3
 _ _ _ _ _ _ _ _ _ _ _
 72
     65
 73
     2
 40
0.375000
 49
0.250000
 49
-0.125000
  0
LTYPE
  2
DASHED
 70
     0
  3
 ___ ___ ___ ___ ___ ___ ___ 
 72
     65
 73
     2
 40
0.750000
 49
0.500000
 49
-0.250000
  0
LTYPE
  2
CENTER
 70
     0
  3
___ _ ___ _ ___ _ ___
 72
     65
 73
     4
 40
2.000000
 49
1.250000
 49
-0.250000
 49
0.250000
 49
-0.250000
  0
LTYPE
  2
BORDER
 70
     0
  3
___ ___ . ___ ___ . ___ ___
 72
     65
 73
     6
 40
1.750000
 49
0.500000
 49
-0.250000
 49
0.500000
 49
-0.250000
 49
0.000000
 49
-0.250000
  0
LTYPE
  2
DOT
 70
     0
  3
.................
 72
     65
 73
     2
 40
0.250000
 49
0.000000
 49
-0.250000
  0
LTYPE
  2
DASHDOT
 70
     0
  3
__ . __ . __ . __
 72
     65
 73
     4
 40
1.000000
 49
0.500000
 49
-0.250000
 49
0.000000
 49
-0.250000
  0
LTYPE
  2
DIVIDE
 70
     0
  3
___ .. ___ .. ___ .. ___
 72
     65
 73
     6
 40
1.250000
 49
0.500000
 49
-0.250000
 49
0.000000
 49
-0.250000
 49
0.000000
 49
-0.250000
  0
ENDTAB
  0
TABLE
  2
LAYER
 70
     8
  0
LAYER
  2
BLACK
 70
     0
 62
     1
  6
CONTINUOUS
  0
LAYER
  2
WHITE
 70
     0
 62
     7
  6
CONTINUOUS
  0
LAYER
  2
RED
 70
     0
 62
     1
  6
CONTINUOUS
  0
LAYER
  2
YELLOW
 70
     0
 62
     2
  6
CONTINUOUS
  0
LAYER
  2
GREEN
 70
     0
 62
     3
  6
CONTINUOUS
  0
LAYER
  2
CYAN
 70
     0
 62
     4
  6
CONTINUOUS
  0
LAYER
  2
BLUE
 70
     0
 62
     5
  6
CONTINUOUS
  0
LAYER
  2
MAGENTA
 70
     0
 62
     6
  6
CONTINUOUS
  0
ENDTAB
  0
TABLE
  2
APPID
 70
     1
  0
APPID
  2
TC_BEND_DATA
 70
     0
  0
ENDTAB
  0
ENDSEC
  0
SECTION
  2
BLOCKS
  0
ENDSEC
  0
SECTION
  2
ENTITIES
  0
ARC
  8
WHITE
 10
11.611865
 20
41.706075
 30
0.000000
 40
2.237562
 50
87.271390
 51
264.557377
  6
CONTINUOUS
  0
ARC
  8
WHITE
 10
16.803384
 20
-7.360150
 30
0.000000
 40
51.552648
 50
75.541899
 51
95.660690
  6
CONTINUOUS
  0
ARC
  8
WHITE
 10
20.659310
 20
8.656954
 30
0.000000
 40
35.081084
 50
45.151660
 51
75.108742
  6
CONTINUOUS
  0
ARC
  8
WHITE
 10
31.475985
 20
22.920672
 30
0.000000
 40
17.504175
 50
-5.280117
 51
37.302472
  6
CONTINUOUS
  0
ARC
  8
WHITE
 10
53.468062
 20
20.474637
 30
0.000000
 40
4.638000
 50
169.625561
 51
238.299417
  6
CONTINUOUS
  0
LINE
  8
WHITE
 10
51.030884
 20
16.528600
 30
0.000000
 11
58.149634
 21
11.003600
 31
0.000000
  6
CONTINUOUS
  0
ARC
  8
WHITE
 10
54.101899
 20
6.947092
 30
0.000000
 40
5.730569
 50
-101.663535
 51
45.062023
  6
CONTINUOUS
  0
LINE
  8
WHITE
 10
52.943384
 20
1.334850
 30
0.000000
 11
43.168384
 21
4.734850
 31
0.000000
  6
CONTINUOUS
  0
LINE
  8
WHITE
 10
43.168384
 20
4.734850
 30
0.000000
 11
41.893384
 21
4.841100
 31
0.000000
  6
CONTINUOUS
  0
LINE
  8
WHITE
 10
41.893384
 20
4.841100
 30
0.000000
 11
40.830884
 21
4.628600
 31
0.000000
  6
CONTINUOUS
  0
LINE
  8
WHITE
 10
40.830884
 20
4.628600
 30
0.000000
 11
40.193384
 21
4.416100
 31
0.000000
  6
CONTINUOUS
  0
LINE
  8
WHITE
 10
40.193384
 20
4.416100
 30
0.000000
 11
37.643384
 21
2.609850
 31
0.000000
  6
CONTINUOUS
  0
LINE
  8
WHITE
 10
37.643384
 20
2.609850
 30
0.000000
 11
37.112134
 21
2.184850
 31
0.000000
  6
CONTINUOUS
  0
ARC
  8
WHITE
 10
28.324216
 20
18.765835
 30
0.000000
 40
18.765835
 50
-126.999123
 51
-62.076422
  6
CONTINUOUS
  0
LINE
  8
WHITE
 10
17.030884
 20
3.778600
 30
0.000000
 11
14.693384
 21
5.266100
 31
0.000000
  6
CONTINUOUS
  0
LINE
  8
WHITE
 10
14.693384
 20
5.266100
 30
0.000000
 11
12.462134
 21
6.966100
 31
0.000000
  6
CONTINUOUS
  0
LINE
  8
WHITE
 10
12.462134
 20
6.966100
 30
0.000000
 11
9.593384
 21
9.516100
 31
0.000000
  6
CONTINUOUS
  0
LINE
  8
WHITE
 10
9.593384
 20
9.516100
 30
0.000000
 11
7.680884
 21
11.641100
 31
0.000000
  6
CONTINUOUS
  0
LINE
  8
WHITE
 10
7.680884
 20
11.641100
 30
0.000000
 11
4.599634
 21
15.466100
 31
0.000000
  6
CONTINUOUS
  0
LINE
  8
WHITE
 10
4.599634
 20
15.466100
 30
0.000000
 11
2.793384
 21
18.122350
 31
0.000000
  6
CONTINUOUS
  0
LINE
  8
WHITE
 10
2.793384
 20
18.122350
 30
0.000000
 11
0.987134
 21
21.097350
 31
0.000000
  6
CONTINUOUS
  0
LINE
  8
WHITE
 10
0.987134
 20
21.097350
 30
0.000000
 11
0.243384
 21
22.691100
 31
0.000000
  6
CONTINUOUS
  0
ARC
  8
WHITE
 10
2.475863
 20
23.761584
 30
0.000000
 40
2.475863
 50
136.889733
 51
205.617942
  6
CONTINUOUS
  0
ARC
  8
WHITE
 10
2.076983
 20
23.432964
 30
0.000000
 40
2.463152
 50
47.229027
 51
124.880600
  6
CONTINUOUS
  0
LINE
  8
WHITE
 10
3.749634
 20
25.241100
 30
0.000000
 11
6.830884
 21
21.522350
 31
0.000000
  6
CONTINUOUS
  0
ARC
  8
WHITE
 10
36.685649
 20
46.313102
 30
0.000000
 40
38.805778
 50
-140.294492
 51
-108.515977
  6
CONTINUOUS
  0
ARC
  8
WHITE
 10
25.771774
 20
17.233913
 30
0.000000
 40
7.845490
 50
-100.350841
 51
-27.100735
  6
CONTINUOUS
  0
LINE
  8
WHITE
 10
32.755884
 20
13.659850
 30
0.000000
 11
33.882081
 21
15.837163
 31
0.000000
  6
CONTINUOUS
  0
ARC
  8
WHITE
 10
34.770298
 20
15.377740
 30
0.000000
 40
1.000000
 50
61.645038
 51
152.650124
  6
CONTINUOUS
  0
LINE
  8
WHITE
 10
35.245231
 20
16.257762
 30
0.000000
 11
41.043384
 21
13.128600
 31
0.000000
  6
CONTINUOUS
  0
LINE
  8
WHITE
 10
41.043384
 20
13.128600
 30
0.000000
 11
41.759275
 21
14.560382
 31
0.000000
  6
CONTINUOUS
  0
LINE
  8
WHITE
 10
41.759275
 20
14.560382
 30
0.000000
 11
35.918476
 21
17.712559
 31
0.000000
  6
CONTINUOUS
  0
ARC
  8
WHITE
 10
36.393409
 20
18.592581
 30
0.000000
 40
1.000000
 50
153.434949
 51
241.645038
  6
CONTINUOUS
  0
LINE
  8
WHITE
 10
35.498982
 20
19.039795
 30
0.000000
 11
36.155884
 21
20.353600
 31
0.000000
  6
CONTINUOUS
  0
ARC
  8
WHITE
 10
28.514677
 20
25.715476
 30
0.000000
 40
9.334761
 50
-35.057545
 51
14.862536
  6
CONTINUOUS
  0
LINE
  8
WHITE
 10
37.537134
 20
28.109850
 30
0.000000
 11
36.899634
 21
29.384850
 31
0.000000
  6
CONTINUOUS
  0
LINE
  8
WHITE
 10
36.899634
 20
29.384850
 30
0.000000
 11
36.155884
 21
30.553600
 31
0.000000
  6
CONTINUOUS
  0
LINE
  8
WHITE
 10
36.155884
 20
30.553600
 30
0.000000
 11
34.562134
 21
31.934850
 31
0.000000
  6
CONTINUOUS
  0
ARC
  8
WHITE
 10
13.256715
 20
3.527751
 30
0.000000
 40
35.508931
 50
53.129980
 51
81.305209
  6
CONTINUOUS
  0
LINE
  8
WHITE
 10
18.624634
 20
38.628600
 30
0.000000
 11
14.480884
 21
39.266100
 31
0.000000
  6
CONTINUOUS
  0
LINE
  8
WHITE
 10
14.480884
 20
39.266100
 30
0.000000
 11
11.399634
 21
39.478600
 31
0.000000
  6
CONTINUOUS
  0
ENDSEC
  0
EOF
