  0
SECTION
  2
HEADER
  9
$ACADVER
  1
AC1009
  9
$LIMMIN
 10
0.000000
 20
-0.000000
  9
$LIMMAX
 10
65.786283
 20
32.964341
  0
ENDSEC
  0
SECTION
  2
TABLES
  0
TABLE
  2
LTYPE
 70
     4
  0
LTYPE
  2
CONTINUOUS
 70
     0
  3
Solid line
 72
     65
 73
     0
 40
0.000000
  0
LTYPE
  2
HIDDEN
 70
     0
  3
 _ _ _ _ _ _ _ _ _ _ _
 72
     65
 73
     2
 40
0.375000
 49
0.250000
 49
-0.125000
  0
LTYPE
  2
DASHED
 70
     0
  3
 ___ ___ ___ ___ ___ ___ ___ 
 72
     65
 73
     2
 40
0.750000
 49
0.500000
 49
-0.250000
  0
LTYPE
  2
CENTER
 70
     0
  3
___ _ ___ _ ___ _ ___
 72
     65
 73
     4
 40
2.000000
 49
1.250000
 49
-0.250000
 49
0.250000
 49
-0.250000
  0
LTYPE
  2
BORDER
 70
     0
  3
___ ___ . ___ ___ . ___ ___
 72
     65
 73
     6
 40
1.750000
 49
0.500000
 49
-0.250000
 49
0.500000
 49
-0.250000
 49
0.000000
 49
-0.250000
  0
LTYPE
  2
DOT
 70
     0
  3
.................
 72
     65
 73
     2
 40
0.250000
 49
0.000000
 49
-0.250000
  0
LTYPE
  2
DASHDOT
 70
     0
  3
__ . __ . __ . __
 72
     65
 73
     4
 40
1.000000
 49
0.500000
 49
-0.250000
 49
0.000000
 49
-0.250000
  0
LTYPE
  2
DIVIDE
 70
     0
  3
___ .. ___ .. ___ .. ___
 72
     65
 73
     6
 40
1.250000
 49
0.500000
 49
-0.250000
 49
0.000000
 49
-0.250000
 49
0.000000
 49
-0.250000
  0
ENDTAB
  0
TABLE
  2
LAYER
 70
     8
  0
LAYER
  2
BLACK
 70
     0
 62
     1
  6
CONTINUOUS
  0
LAYER
  2
WHITE
 70
     0
 62
     7
  6
CONTINUOUS
  0
LAYER
  2
RED
 70
     0
 62
     1
  6
CONTINUOUS
  0
LAYER
  2
YELLOW
 70
     0
 62
     2
  6
CONTINUOUS
  0
LAYER
  2
GREEN
 70
     0
 62
     3
  6
CONTINUOUS
  0
LAYER
  2
CYAN
 70
     0
 62
     4
  6
CONTINUOUS
  0
LAYER
  2
BLUE
 70
     0
 62
     5
  6
CONTINUOUS
  0
LAYER
  2
MAGENTA
 70
     0
 62
     6
  6
CONTINUOUS
  0
ENDTAB
  0
TABLE
  2
APPID
 70
     1
  0
APPID
  2
TC_BEND_DATA
 70
     0
  0
ENDTAB
  0
ENDSEC
  0
SECTION
  2
BLOCKS
  0
ENDSEC
  0
SECTION
  2
ENTITIES
  0
ARC
  8
WHITE
 10
4.157334
 20
17.354110
 30
0.000000
 40
4.157334
 50
174.250468
 51
267.171226
  6
CONTINUOUS
  0
LINE
  8
WHITE
 10
0.020914
 20
17.770591
 30
0.000000
 11
1.827164
 21
32.964341
 31
0.000000
  6
CONTINUOUS
  0
LINE
  8
WHITE
 10
1.827164
 20
32.964341
 30
0.000000
 11
20.807483
 21
32.863382
 31
0.000000
  6
CONTINUOUS
  0
ARC
  8
WHITE
 10
20.802164
 20
31.863396
 30
0.000000
 40
1.000000
 50
0.000000
 51
89.695238
  6
CONTINUOUS
  0
LINE
  8
WHITE
 10
21.802164
 20
31.863396
 30
0.000000
 11
21.802164
 21
24.145591
 31
0.000000
  6
CONTINUOUS
  0
LINE
  8
WHITE
 10
21.802164
 20
24.145591
 30
0.000000
 11
23.402164
 21
24.145591
 31
0.000000
  6
CONTINUOUS
  0
LINE
  8
WHITE
 10
23.402164
 20
24.145591
 30
0.000000
 11
23.402164
 21
31.858091
 31
0.000000
  6
CONTINUOUS
  0
ARC
  8
WHITE
 10
24.402164
 20
31.858091
 30
0.000000
 40
1.000000
 50
90.000000
 51
180.000000
  6
CONTINUOUS
  0
LINE
  8
WHITE
 10
24.402164
 20
32.858091
 30
0.000000
 11
31.002164
 21
32.858091
 31
0.000000
  6
CONTINUOUS
  0
ARC
  8
WHITE
 10
31.002164
 20
31.858091
 30
0.000000
 40
1.000000
 50
0.000000
 51
90.000000
  6
CONTINUOUS
  0
LINE
  8
WHITE
 10
32.002164
 20
31.858091
 30
0.000000
 11
32.002164
 21
24.145591
 31
0.000000
  6
CONTINUOUS
  0
LINE
  8
WHITE
 10
32.002164
 20
24.145591
 30
0.000000
 11
33.602164
 21
24.145591
 31
0.000000
  6
CONTINUOUS
  0
LINE
  8
WHITE
 10
33.602164
 20
24.145591
 30
0.000000
 11
33.602164
 21
31.846904
 31
0.000000
  6
CONTINUOUS
  0
ARC
  8
WHITE
 10
34.602164
 20
31.846904
 30
0.000000
 40
1.000000
 50
89.292681
 51
180.000000
  6
CONTINUOUS
  0
LINE
  8
WHITE
 10
34.614509
 20
32.846828
 30
0.000000
 11
41.320759
 21
32.764034
 31
0.000000
  6
CONTINUOUS
  0
ARC
  8
WHITE
 10
41.308414
 20
31.764111
 30
0.000000
 40
1.000000
 50
0.000000
 51
89.292681
  6
CONTINUOUS
  0
LINE
  8
WHITE
 10
42.308414
 20
31.764111
 30
0.000000
 11
42.308414
 21
24.145591
 31
0.000000
  6
CONTINUOUS
  0
LINE
  8
WHITE
 10
42.308414
 20
24.145591
 30
0.000000
 11
43.908414
 21
24.145591
 31
0.000000
  6
CONTINUOUS
  0
LINE
  8
WHITE
 10
43.908414
 20
24.145591
 30
0.000000
 11
43.908414
 21
31.751841
 31
0.000000
  6
CONTINUOUS
  0
ARC
  8
WHITE
 10
44.908414
 20
31.751841
 30
0.000000
 40
1.000000
 50
90.000000
 51
180.000000
  6
CONTINUOUS
  0
LINE
  8
WHITE
 10
44.908414
 20
32.751841
 30
0.000000
 11
63.983414
 21
32.751841
 31
0.000000
  6
CONTINUOUS
  0
LINE
  8
WHITE
 10
63.983414
 20
32.751841
 30
0.000000
 11
65.683414
 21
18.726841
 31
0.000000
  6
CONTINUOUS
  0
ARC
  8
WHITE
 10
61.675682
 20
17.812988
 30
0.000000
 40
4.110601
 50
-82.992618
 51
12.845109
  6
CONTINUOUS
  0
LINE
  8
WHITE
 10
62.177164
 20
13.733091
 30
0.000000
 11
60.692867
 21
13.604022
 31
0.000000
  6
CONTINUOUS
  0
ARC
  8
WHITE
 10
60.606237
 20
14.600262
 30
0.000000
 40
1.000000
 50
-172.874984
 51
-85.030259
  6
CONTINUOUS
  0
LINE
  8
WHITE
 10
59.613960
 20
14.476228
 30
0.000000
 11
58.564664
 21
22.870591
 31
0.000000
  6
CONTINUOUS
  0
LINE
  8
WHITE
 10
58.564664
 20
22.870591
 30
0.000000
 11
56.977020
 21
22.672135
 31
0.000000
  6
CONTINUOUS
  0
LINE
  8
WHITE
 10
56.977020
 20
22.672135
 30
0.000000
 11
58.004825
 21
14.449693
 31
0.000000
  6
CONTINUOUS
  0
ARC
  8
WHITE
 10
57.012547
 20
14.325659
 30
0.000000
 40
1.000000
 50
-84.805571
 51
7.125016
  6
CONTINUOUS
  0
LINE
  8
WHITE
 10
57.103083
 20
13.329765
 30
0.000000
 11
56.864664
 21
13.308091
 31
0.000000
  6
CONTINUOUS
  0
LINE
  8
WHITE
 10
56.864664
 20
13.308091
 30
0.000000
 11
55.908414
 21
13.095591
 31
0.000000
  6
CONTINUOUS
  0
LINE
  8
WHITE
 10
55.908414
 20
13.095591
 30
0.000000
 11
55.270914
 21
12.776841
 31
0.000000
  6
CONTINUOUS
  0
LINE
  8
WHITE
 10
55.270914
 20
12.776841
 30
0.000000
 11
54.314664
 21
11.820591
 31
0.000000
  6
CONTINUOUS
  0
LINE
  8
WHITE
 10
54.314664
 20
11.820591
 30
0.000000
 11
53.358414
 21
10.120591
 31
0.000000
  6
CONTINUOUS
  0
ARC
  8
WHITE
 10
49.379647
 20
12.657253
 30
0.000000
 40
4.718606
 50
-116.121414
 51
-32.519538
  6
CONTINUOUS
  0
LINE
  8
WHITE
 10
47.302164
 20
8.420591
 30
0.000000
 11
45.903936
 21
8.929038
 31
0.000000
  6
CONTINUOUS
  0
ARC
  8
WHITE
 10
46.245679
 20
9.868831
 30
0.000000
 40
1.000000
 50
158.749495
 51
250.016893
  6
CONTINUOUS
  0
LINE
  8
WHITE
 10
45.313675
 20
10.231277
 30
0.000000
 11
47.759392
 21
16.520265
 31
0.000000
  6
CONTINUOUS
  0
LINE
  8
WHITE
 10
47.759392
 20
16.520265
 30
0.000000
 11
46.239664
 21
17.026841
 31
0.000000
  6
CONTINUOUS
  0
LINE
  8
WHITE
 10
46.239664
 20
17.026841
 30
0.000000
 11
41.777164
 21
5.551841
 31
0.000000
  6
CONTINUOUS
  0
LINE
  8
WHITE
 10
41.777164
 20
5.551841
 30
0.000000
 11
40.714664
 21
3.851841
 31
0.000000
  6
CONTINUOUS
  0
LINE
  8
WHITE
 10
40.714664
 20
3.851841
 30
0.000000
 11
39.545914
 21
2.470591
 31
0.000000
  6
CONTINUOUS
  0
ARC
  8
WHITE
 10
32.423772
 20
11.501041
 30
0.000000
 40
11.501041
 50
-101.709374
 51
-51.737832
  6
CONTINUOUS
  0
ARC
  8
WHITE
 10
32.767378
 20
9.357228
 30
0.000000
 40
9.502947
 50
-158.475404
 51
-106.366299
  6
CONTINUOUS
  0
LINE
  8
WHITE
 10
23.927164
 20
5.870591
 30
0.000000
 11
19.464664
 21
17.133091
 31
0.000000
  6
CONTINUOUS
  0
LINE
  8
WHITE
 10
19.464664
 20
17.133091
 30
0.000000
 11
17.870914
 21
16.601841
 31
0.000000
  6
CONTINUOUS
  0
LINE
  8
WHITE
 10
17.870914
 20
16.601841
 30
0.000000
 11
20.599593
 21
9.897195
 31
0.000000
  6
CONTINUOUS
  0
ARC
  8
WHITE
 10
19.673364
 20
9.520235
 30
0.000000
 40
1.000000
 50
-74.054604
 51
22.145504
  6
CONTINUOUS
  0
LINE
  8
WHITE
 10
19.948085
 20
8.558711
 30
0.000000
 11
17.977164
 21
7.995591
 31
0.000000
  6
CONTINUOUS
  0
ARC
  8
WHITE
 10
16.109445
 20
13.309490
 30
0.000000
 40
5.632575
 50
-105.785639
 51
-70.634540
  6
CONTINUOUS
  0
LINE
  8
WHITE
 10
14.577164
 20
7.889341
 30
0.000000
 11
13.408414
 21
8.526841
 31
0.000000
  6
CONTINUOUS
  0
LINE
  8
WHITE
 10
13.408414
 20
8.526841
 30
0.000000
 11
12.452164
 21
9.483091
 31
0.000000
  6
CONTINUOUS
  0
ARC
  8
WHITE
 10
7.426980
 20
7.499875
 30
0.000000
 40
5.402372
 50
21.536936
 51
61.456001
  6
CONTINUOUS
  0
LINE
  8
WHITE
 10
10.008414
 20
12.245591
 30
0.000000
 11
9.158414
 21
12.564341
 31
0.000000
  6
CONTINUOUS
  0
LINE
  8
WHITE
 10
9.158414
 20
12.564341
 30
0.000000
 11
8.514058
 21
12.656392
 31
0.000000
  6
CONTINUOUS
  0
ARC
  8
WHITE
 10
8.655479
 20
13.646341
 30
0.000000
 40
1.000000
 50
173.927544
 51
261.869898
  6
CONTINUOUS
  0
LINE
  8
WHITE
 10
7.661090
 20
13.752128
 30
0.000000
 11
8.621327
 21
22.778352
 31
0.000000
  6
CONTINUOUS
  0
LINE
  8
WHITE
 10
8.621327
 20
22.778352
 30
0.000000
 11
7.033414
 21
22.976841
 31
0.000000
  6
CONTINUOUS
  0
LINE
  8
WHITE
 10
7.033414
 20
22.976841
 30
0.000000
 11
6.076583
 21
13.982629
 31
0.000000
  6
CONTINUOUS
  0
ARC
  8
WHITE
 10
5.082194
 20
14.088415
 30
0.000000
 40
1.000000
 50
-96.009006
 51
-6.072456
  6
CONTINUOUS
  0
LINE
  8
WHITE
 10
4.977509
 20
13.093910
 30
0.000000
 11
3.952164
 21
13.201841
 31
0.000000
  6
CONTINUOUS
  0
ENDSEC
  0
EOF
