  0
SECTION
  2
HEADER
  9
$ACADVER
  1
AC1009
  9
$LIMMIN
 10
-0.000000
 20
-0.000000
  9
$LIMMAX
 10
66.326174
 20
55.789280
  0
ENDSEC
  0
SECTION
  2
TABLES
  0
TABLE
  2
LTYPE
 70
     4
  0
LTYPE
  2
CONTINUOUS
 70
     0
  3
Solid line
 72
     65
 73
     0
 40
0.000000
  0
LTYPE
  2
HIDDEN
 70
     0
  3
 _ _ _ _ _ _ _ _ _ _ _
 72
     65
 73
     2
 40
0.375000
 49
0.250000
 49
-0.125000
  0
LTYPE
  2
DASHED
 70
     0
  3
 ___ ___ ___ ___ ___ ___ ___ 
 72
     65
 73
     2
 40
0.750000
 49
0.500000
 49
-0.250000
  0
LTYPE
  2
CENTER
 70
     0
  3
___ _ ___ _ ___ _ ___
 72
     65
 73
     4
 40
2.000000
 49
1.250000
 49
-0.250000
 49
0.250000
 49
-0.250000
  0
LTYPE
  2
BORDER
 70
     0
  3
___ ___ . ___ ___ . ___ ___
 72
     65
 73
     6
 40
1.750000
 49
0.500000
 49
-0.250000
 49
0.500000
 49
-0.250000
 49
0.000000
 49
-0.250000
  0
LTYPE
  2
DOT
 70
     0
  3
.................
 72
     65
 73
     2
 40
0.250000
 49
0.000000
 49
-0.250000
  0
LTYPE
  2
DASHDOT
 70
     0
  3
__ . __ . __ . __
 72
     65
 73
     4
 40
1.000000
 49
0.500000
 49
-0.250000
 49
0.000000
 49
-0.250000
  0
LTYPE
  2
DIVIDE
 70
     0
  3
___ .. ___ .. ___ .. ___
 72
     65
 73
     6
 40
1.250000
 49
0.500000
 49
-0.250000
 49
0.000000
 49
-0.250000
 49
0.000000
 49
-0.250000
  0
ENDTAB
  0
TABLE
  2
LAYER
 70
     8
  0
LAYER
  2
BLACK
 70
     0
 62
     1
  6
CONTINUOUS
  0
LAYER
  2
WHITE
 70
     0
 62
     7
  6
CONTINUOUS
  0
LAYER
  2
RED
 70
     0
 62
     1
  6
CONTINUOUS
  0
LAYER
  2
YELLOW
 70
     0
 62
     2
  6
CONTINUOUS
  0
LAYER
  2
GREEN
 70
     0
 62
     3
  6
CONTINUOUS
  0
LAYER
  2
CYAN
 70
     0
 62
     4
  6
CONTINUOUS
  0
LAYER
  2
BLUE
 70
     0
 62
     5
  6
CONTINUOUS
  0
LAYER
  2
MAGENTA
 70
     0
 62
     6
  6
CONTINUOUS
  0
ENDTAB
  0
TABLE
  2
APPID
 70
     1
  0
APPID
  2
TC_BEND_DATA
 70
     0
  0
ENDTAB
  0
ENDSEC
  0
SECTION
  2
BLOCKS
  0
ENDSEC
  0
SECTION
  2
ENTITIES
  0
LINE
  8
WHITE
 10
8.096179
 20
18.389280
 30
0.000000
 11
10.327429
 21
20.833030
 31
0.000000
  6
CONTINUOUS
  0
LINE
  8
WHITE
 10
10.327429
 20
20.833030
 30
0.000000
 11
12.771179
 21
23.064280
 31
0.000000
  6
CONTINUOUS
  0
LINE
  8
WHITE
 10
12.771179
 20
23.064280
 30
0.000000
 11
13.939929
 21
24.233030
 31
0.000000
  6
CONTINUOUS
  0
ARC
  8
WHITE
 10
11.181531
 20
26.766329
 30
0.000000
 40
3.745179
 50
-42.564214
 51
70.163184
  6
CONTINUOUS
  0
ARC
  8
WHITE
 10
14.576660
 20
33.381099
 30
0.000000
 40
3.751227
 50
132.810259
 51
235.509026
  6
CONTINUOUS
  0
ARC
  8
WHITE
 10
9.799046
 20
39.647522
 30
0.000000
 40
4.161412
 50
-57.623032
 51
19.265016
  6
CONTINUOUS
  0
LINE
  8
WHITE
 10
13.727429
 20
41.020530
 30
0.000000
 11
11.602429
 21
44.739280
 31
0.000000
  6
CONTINUOUS
  0
LINE
  8
WHITE
 10
11.602429
 20
44.739280
 30
0.000000
 11
11.602429
 21
45.058030
 31
0.000000
  6
CONTINUOUS
  0
LINE
  8
WHITE
 10
11.602429
 20
45.058030
 30
0.000000
 11
11.708679
 21
45.376780
 31
0.000000
  6
CONTINUOUS
  0
LINE
  8
WHITE
 10
11.708679
 20
45.376780
 30
0.000000
 11
12.239929
 21
45.801780
 31
0.000000
  6
CONTINUOUS
  0
LINE
  8
WHITE
 10
12.239929
 20
45.801780
 30
0.000000
 11
20.314929
 21
50.264280
 31
0.000000
  6
CONTINUOUS
  0
LINE
  8
WHITE
 10
20.314929
 20
50.264280
 30
0.000000
 11
28.389929
 21
35.814280
 31
0.000000
  6
CONTINUOUS
  0
LINE
  8
WHITE
 10
28.389929
 20
35.814280
 30
0.000000
 11
29.779182
 21
36.608138
 31
0.000000
  6
CONTINUOUS
  0
LINE
  8
WHITE
 10
29.779182
 20
36.608138
 30
0.000000
 11
21.703516
 21
51.059328
 31
0.000000
  6
CONTINUOUS
  0
LINE
  8
WHITE
 10
21.703516
 20
51.059328
 30
0.000000
 11
29.452429
 21
55.364280
 31
0.000000
  6
CONTINUOUS
  0
LINE
  8
WHITE
 10
29.452429
 20
55.364280
 30
0.000000
 11
30.408679
 21
55.789280
 31
0.000000
  6
CONTINUOUS
  0
LINE
  8
WHITE
 10
30.408679
 20
55.789280
 30
0.000000
 11
30.727429
 21
55.683030
 31
0.000000
  6
CONTINUOUS
  0
LINE
  8
WHITE
 10
30.727429
 20
55.683030
 30
0.000000
 11
30.939929
 21
55.470530
 31
0.000000
  6
CONTINUOUS
  0
LINE
  8
WHITE
 10
30.939929
 20
55.470530
 30
0.000000
 11
31.577429
 21
54.726780
 31
0.000000
  6
CONTINUOUS
  0
ARC
  8
WHITE
 10
35.446266
 20
56.091292
 30
0.000000
 40
4.102413
 50
-160.572600
 51
-61.222931
  6
CONTINUOUS
  0
ARC
  8
WHITE
 10
38.620968
 20
48.238367
 30
0.000000
 40
4.423000
 50
48.271424
 51
105.739343
  6
CONTINUOUS
  0
ARC
  8
WHITE
 10
38.266179
 20
48.799280
 30
0.000000
 40
4.288281
 50
-14.656005
 51
39.713621
  6
CONTINUOUS
  0
LINE
  8
WHITE
 10
42.414929
 20
47.714280
 30
0.000000
 11
41.989929
 21
46.014280
 31
0.000000
  6
CONTINUOUS
  0
LINE
  8
WHITE
 10
41.989929
 20
46.014280
 30
0.000000
 11
42.096179
 21
45.058030
 31
0.000000
  6
CONTINUOUS
  0
LINE
  8
WHITE
 10
42.096179
 20
45.058030
 30
0.000000
 11
42.414929
 21
43.995530
 31
0.000000
  6
CONTINUOUS
  0
LINE
  8
WHITE
 10
42.414929
 20
43.995530
 30
0.000000
 11
42.839929
 21
42.826780
 31
0.000000
  6
CONTINUOUS
  0
LINE
  8
WHITE
 10
42.839929
 20
42.826780
 30
0.000000
 11
44.539929
 21
39.426780
 31
0.000000
  6
CONTINUOUS
  0
ARC
  8
WHITE
 10
78.130113
 20
56.834964
 30
0.000000
 40
37.833125
 50
-152.604455
 51
-123.232414
  6
CONTINUOUS
  0
ARC
  8
WHITE
 10
60.346921
 20
29.653218
 30
0.000000
 40
5.351040
 50
-123.465409
 51
-54.524419
  6
CONTINUOUS
  0
ARC
  8
WHITE
 10
64.187979
 20
23.287833
 30
0.000000
 40
2.138196
 50
-36.974992
 51
110.121054
  6
CONTINUOUS
  0
ARC
  8
WHITE
 10
41.348317
 20
46.471608
 30
0.000000
 40
34.660785
 50
-67.461966
 51
-44.908787
  6
CONTINUOUS
  0
LINE
  8
WHITE
 10
54.633679
 20
14.458030
 30
0.000000
 11
52.508679
 21
13.714280
 31
0.000000
  6
CONTINUOUS
  0
LINE
  8
WHITE
 10
52.508679
 20
13.714280
 30
0.000000
 11
49.321179
 21
12.758030
 31
0.000000
  6
CONTINUOUS
  0
LINE
  8
WHITE
 10
49.321179
 20
12.758030
 30
0.000000
 11
46.771179
 21
12.120530
 31
0.000000
  6
CONTINUOUS
  0
ARC
  8
WHITE
 10
46.565233
 20
14.232808
 30
0.000000
 40
2.122294
 50
138.941946
 51
275.568711
  6
CONTINUOUS
  0
LINE
  8
WHITE
 10
44.964929
 20
15.626780
 30
0.000000
 11
46.239929
 21
17.220530
 31
0.000000
  6
CONTINUOUS
  0
ARC
  8
WHITE
 10
42.095437
 20
19.976794
 30
0.000000
 40
4.977329
 50
-33.625598
 51
20.047649
  6
CONTINUOUS
  0
ARC
  8
WHITE
 10
9.804923
 20
9.023780
 30
0.000000
 40
39.073786
 50
18.903984
 51
28.549307
  6
CONTINUOUS
  0
LINE
  8
WHITE
 10
44.127577
 20
27.697722
 30
0.000000
 11
43.837349
 21
28.221558
 31
0.000000
  6
CONTINUOUS
  0
ARC
  8
WHITE
 10
9.804923
 20
9.023780
 30
0.000000
 40
39.073786
 50
29.427456
 51
39.950929
  6
CONTINUOUS
  0
LINE
  8
WHITE
 10
39.758679
 20
34.114280
 30
0.000000
 11
38.908679
 21
34.645530
 31
0.000000
  6
CONTINUOUS
  0
ARC
  8
WHITE
 10
38.092172
 20
32.752878
 30
0.000000
 40
2.061266
 50
66.664204
 51
174.637132
  6
CONTINUOUS
  0
LINE
  8
WHITE
 10
36.039929
 20
32.945530
 30
0.000000
 11
35.827429
 21
31.245530
 31
0.000000
  6
CONTINUOUS
  0
ARC
  8
WHITE
 10
31.387831
 20
32.004254
 30
0.000000
 40
4.503965
 50
-103.944862
 51
-9.698115
  6
CONTINUOUS
  0
LINE
  8
WHITE
 10
30.302429
 20
27.633030
 30
0.000000
 11
28.389929
 21
28.164280
 31
0.000000
  6
CONTINUOUS
  0
ARC
  8
WHITE
 10
27.450387
 20
24.463403
 30
0.000000
 40
3.818275
 50
75.755247
 51
198.105928
  6
CONTINUOUS
  0
ARC
  8
WHITE
 10
20.210055
 20
20.835619
 30
0.000000
 40
4.358840
 50
-90.018083
 51
34.059134
  6
CONTINUOUS
  0
LINE
  8
WHITE
 10
20.208679
 20
16.476780
 30
0.000000
 11
16.808679
 21
14.458030
 31
0.000000
  6
CONTINUOUS
  0
LINE
  8
WHITE
 10
16.808679
 20
14.458030
 30
0.000000
 11
14.364929
 21
12.651780
 31
0.000000
  6
CONTINUOUS
  0
ARC
  8
WHITE
 10
37.263380
 20
-17.459972
 30
0.000000
 40
37.829310
 50
127.251137
 51
151.038110
  6
CONTINUOUS
  0
ARC
  8
WHITE
 10
2.349522
 20
2.349522
 30
0.000000
 40
2.349522
 50
172.301111
 51
320.594362
  6
CONTINUOUS
  0
LINE
  8
WHITE
 10
0.021179
 20
2.664280
 30
0.000000
 11
0.233679
 21
3.939280
 31
0.000000
  6
CONTINUOUS
  0
LINE
  8
WHITE
 10
0.233679
 20
3.939280
 30
0.000000
 11
1.083679
 21
6.489280
 31
0.000000
  6
CONTINUOUS
  0
LINE
  8
WHITE
 10
1.083679
 20
6.489280
 30
0.000000
 11
2.677429
 21
10.208030
 31
0.000000
  6
CONTINUOUS
  0
LINE
  8
WHITE
 10
2.677429
 20
10.208030
 30
0.000000
 11
3.846179
 21
12.333030
 31
0.000000
  6
CONTINUOUS
  0
LINE
  8
WHITE
 10
3.846179
 20
12.333030
 30
0.000000
 11
6.289929
 21
16.051780
 31
0.000000
  6
CONTINUOUS
  0
LINE
  8
WHITE
 10
6.289929
 20
16.051780
 30
0.000000
 11
8.096179
 21
18.389280
 31
0.000000
  6
CONTINUOUS
  0
ENDSEC
  0
EOF
