  0
SECTION
  2
HEADER
  9
$ACADVER
  1
AC1009
  9
$LIMMIN
 10
0.000000
 20
0.000000
  9
$LIMMAX
 10
61.801753
 20
57.478966
  0
ENDSEC
  0
SECTION
  2
TABLES
  0
TABLE
  2
LTYPE
 70
     4
  0
LTYPE
  2
CONTINUOUS
 70
     0
  3
Solid line
 72
     65
 73
     0
 40
0.000000
  0
LTYPE
  2
HIDDEN
 70
     0
  3
 _ _ _ _ _ _ _ _ _ _ _
 72
     65
 73
     2
 40
0.375000
 49
0.250000
 49
-0.125000
  0
LTYPE
  2
DASHED
 70
     0
  3
 ___ ___ ___ ___ ___ ___ ___ 
 72
     65
 73
     2
 40
0.750000
 49
0.500000
 49
-0.250000
  0
LTYPE
  2
CENTER
 70
     0
  3
___ _ ___ _ ___ _ ___
 72
     65
 73
     4
 40
2.000000
 49
1.250000
 49
-0.250000
 49
0.250000
 49
-0.250000
  0
LTYPE
  2
BORDER
 70
     0
  3
___ ___ . ___ ___ . ___ ___
 72
     65
 73
     6
 40
1.750000
 49
0.500000
 49
-0.250000
 49
0.500000
 49
-0.250000
 49
0.000000
 49
-0.250000
  0
LTYPE
  2
DOT
 70
     0
  3
.................
 72
     65
 73
     2
 40
0.250000
 49
0.000000
 49
-0.250000
  0
LTYPE
  2
DASHDOT
 70
     0
  3
__ . __ . __ . __
 72
     65
 73
     4
 40
1.000000
 49
0.500000
 49
-0.250000
 49
0.000000
 49
-0.250000
  0
LTYPE
  2
DIVIDE
 70
     0
  3
___ .. ___ .. ___ .. ___
 72
     65
 73
     6
 40
1.250000
 49
0.500000
 49
-0.250000
 49
0.000000
 49
-0.250000
 49
0.000000
 49
-0.250000
  0
ENDTAB
  0
TABLE
  2
LAYER
 70
     8
  0
LAYER
  2
BLACK
 70
     0
 62
     1
  6
CONTINUOUS
  0
LAYER
  2
WHITE
 70
     0
 62
     7
  6
CONTINUOUS
  0
LAYER
  2
RED
 70
     0
 62
     1
  6
CONTINUOUS
  0
LAYER
  2
YELLOW
 70
     0
 62
     2
  6
CONTINUOUS
  0
LAYER
  2
GREEN
 70
     0
 62
     3
  6
CONTINUOUS
  0
LAYER
  2
CYAN
 70
     0
 62
     4
  6
CONTINUOUS
  0
LAYER
  2
BLUE
 70
     0
 62
     5
  6
CONTINUOUS
  0
LAYER
  2
MAGENTA
 70
     0
 62
     6
  6
CONTINUOUS
  0
ENDTAB
  0
TABLE
  2
APPID
 70
     1
  0
APPID
  2
TC_BEND_DATA
 70
     0
  0
ENDTAB
  0
ENDSEC
  0
SECTION
  2
BLOCKS
  0
ENDSEC
  0
SECTION
  2
ENTITIES
  0
LINE
  8
WHITE
 10
16.114253
 20
44.303966
 30
0.000000
 11
18.239253
 21
46.535216
 31
0.000000
  6
CONTINUOUS
  0
LINE
  8
WHITE
 10
18.239253
 20
46.535216
 30
0.000000
 11
20.045503
 21
48.235216
 31
0.000000
  6
CONTINUOUS
  0
LINE
  8
WHITE
 10
20.045503
 20
48.235216
 30
0.000000
 11
23.658003
 21
50.891466
 31
0.000000
  6
CONTINUOUS
  0
LINE
  8
WHITE
 10
23.658003
 20
50.891466
 30
0.000000
 11
27.589253
 21
53.122716
 31
0.000000
  6
CONTINUOUS
  0
LINE
  8
WHITE
 10
27.589253
 20
53.122716
 30
0.000000
 11
29.395503
 21
54.078966
 31
0.000000
  6
CONTINUOUS
  0
LINE
  8
WHITE
 10
29.395503
 20
54.078966
 30
0.000000
 11
32.051753
 21
55.035216
 31
0.000000
  6
CONTINUOUS
  0
LINE
  8
WHITE
 10
32.051753
 20
55.035216
 30
0.000000
 11
34.389253
 21
55.885216
 31
0.000000
  6
CONTINUOUS
  0
LINE
  8
WHITE
 10
34.389253
 20
55.885216
 30
0.000000
 11
35.983003
 21
56.310216
 31
0.000000
  6
CONTINUOUS
  0
LINE
  8
WHITE
 10
35.983003
 20
56.310216
 30
0.000000
 11
36.726753
 21
56.628966
 31
0.000000
  6
CONTINUOUS
  0
LINE
  8
WHITE
 10
36.726753
 20
56.628966
 30
0.000000
 11
41.933003
 21
57.372716
 31
0.000000
  6
CONTINUOUS
  0
LINE
  8
WHITE
 10
41.933003
 20
57.372716
 30
0.000000
 11
45.545503
 21
57.478966
 31
0.000000
  6
CONTINUOUS
  0
LINE
  8
WHITE
 10
45.545503
 20
57.478966
 30
0.000000
 11
47.245503
 21
57.478966
 31
0.000000
  6
CONTINUOUS
  0
LINE
  8
WHITE
 10
47.245503
 20
57.478966
 30
0.000000
 11
47.670503
 21
57.372716
 31
0.000000
  6
CONTINUOUS
  0
ARC
  8
WHITE
 10
46.625501
 20
55.541145
 30
0.000000
 40
2.108715
 50
-84.694038
 51
60.293100
  6
CONTINUOUS
  0
ARC
  8
WHITE
 10
54.073720
 20
13.193227
 30
0.000000
 40
40.896575
 50
100.215740
 51
151.813860
  6
CONTINUOUS
  0
ARC
  8
WHITE
 10
26.969076
 20
29.151666
 30
0.000000
 40
9.552225
 50
159.414869
 51
230.518570
  6
CONTINUOUS
  0
LINE
  8
WHITE
 10
20.895503
 20
21.778966
 30
0.000000
 11
21.087284
 21
21.563213
 31
0.000000
  6
CONTINUOUS
  0
ARC
  8
WHITE
 10
20.339874
 20
20.898849
 30
0.000000
 40
1.000000
 50
-47.834111
 51
41.633539
  6
CONTINUOUS
  0
LINE
  8
WHITE
 10
21.011154
 20
20.157644
 30
0.000000
 11
16.114253
 21
15.722716
 31
0.000000
  6
CONTINUOUS
  0
LINE
  8
WHITE
 10
16.114253
 20
15.722716
 30
0.000000
 11
17.195432
 21
14.543248
 31
0.000000
  6
CONTINUOUS
  0
LINE
  8
WHITE
 10
17.195432
 20
14.543248
 30
0.000000
 11
22.074912
 21
18.962399
 31
0.000000
  6
CONTINUOUS
  0
ARC
  8
WHITE
 10
22.746191
 20
18.221194
 30
0.000000
 40
1.000000
 50
41.185925
 51
132.165889
  6
CONTINUOUS
  0
LINE
  8
WHITE
 10
23.498768
 20
18.879699
 30
0.000000
 11
23.658003
 21
18.697716
 31
0.000000
  6
CONTINUOUS
  0
LINE
  8
WHITE
 10
23.658003
 20
18.697716
 30
0.000000
 11
24.401753
 21
18.060216
 31
0.000000
  6
CONTINUOUS
  0
LINE
  8
WHITE
 10
24.401753
 20
18.060216
 30
0.000000
 11
24.793642
 21
17.588106
 31
0.000000
  6
CONTINUOUS
  0
ARC
  8
WHITE
 10
32.171835
 20
24.111298
 30
0.000000
 40
9.848338
 50
-138.519531
 51
-78.884306
  6
CONTINUOUS
  0
LINE
  8
WHITE
 10
34.070503
 20
14.447716
 30
0.000000
 11
35.664253
 21
14.978966
 31
0.000000
  6
CONTINUOUS
  0
ARC
  8
WHITE
 10
19.190586
 20
51.204396
 30
0.000000
 40
39.795270
 50
-65.546133
 51
-14.842665
  6
CONTINUOUS
  0
ARC
  8
WHITE
 10
59.664777
 20
40.268308
 30
0.000000
 40
2.139525
 50
2.797109
 51
159.710565
  6
CONTINUOUS
  0
ARC
  8
WHITE
 10
25.888171
 20
42.282598
 30
0.000000
 40
35.964330
 50
-41.882306
 51
-3.044119
  6
CONTINUOUS
  0
LINE
  8
WHITE
 10
52.664253
 20
18.272716
 30
0.000000
 11
51.070503
 21
16.466466
 31
0.000000
  6
CONTINUOUS
  0
LINE
  8
WHITE
 10
51.070503
 20
16.466466
 30
0.000000
 11
48.839253
 21
14.341466
 31
0.000000
  6
CONTINUOUS
  0
LINE
  8
WHITE
 10
48.839253
 20
14.341466
 30
0.000000
 11
46.395503
 21
12.428966
 31
0.000000
  6
CONTINUOUS
  0
ARC
  8
WHITE
 10
23.838002
 20
41.804396
 30
0.000000
 40
37.037235
 50
-83.691058
 51
-52.479209
  6
CONTINUOUS
  0
LINE
  8
WHITE
 10
27.908003
 20
4.991466
 30
0.000000
 11
25.783003
 21
5.203966
 31
0.000000
  6
CONTINUOUS
  0
LINE
  8
WHITE
 10
25.783003
 20
5.203966
 30
0.000000
 11
22.808003
 21
5.841466
 31
0.000000
  6
CONTINUOUS
  0
LINE
  8
WHITE
 10
22.808003
 20
5.841466
 30
0.000000
 11
20.470503
 21
6.691466
 31
0.000000
  6
CONTINUOUS
  0
LINE
  8
WHITE
 10
20.470503
 20
6.691466
 30
0.000000
 11
19.408003
 21
6.903966
 31
0.000000
  6
CONTINUOUS
  0
LINE
  8
WHITE
 10
19.408003
 20
6.903966
 30
0.000000
 11
18.451753
 21
6.797716
 31
0.000000
  6
CONTINUOUS
  0
LINE
  8
WHITE
 10
18.451753
 20
6.797716
 30
0.000000
 11
17.495503
 21
6.372716
 31
0.000000
  6
CONTINUOUS
  0
LINE
  8
WHITE
 10
17.495503
 20
6.372716
 30
0.000000
 11
13.564253
 21
4.035216
 31
0.000000
  6
CONTINUOUS
  0
LINE
  8
WHITE
 10
13.564253
 20
4.035216
 30
0.000000
 11
9.208003
 21
1.166466
 31
0.000000
  6
CONTINUOUS
  0
ARC
  8
WHITE
 10
5.598290
 20
6.168493
 30
0.000000
 40
6.168493
 50
-134.963943
 51
-54.183900
  6
CONTINUOUS
  0
ARC
  8
WHITE
 10
5.806867
 20
5.389577
 30
0.000000
 40
5.806867
 50
137.028800
 51
218.132181
  6
CONTINUOUS
  0
LINE
  8
WHITE
 10
1.558003
 20
9.347716
 30
0.000000
 11
6.126753
 21
14.447716
 31
0.000000
  6
CONTINUOUS
  0
LINE
  8
WHITE
 10
6.126753
 20
14.447716
 30
0.000000
 11
7.720503
 21
16.253966
 31
0.000000
  6
CONTINUOUS
  0
LINE
  8
WHITE
 10
7.720503
 20
16.253966
 30
0.000000
 11
8.251753
 21
17.103966
 31
0.000000
  6
CONTINUOUS
  0
LINE
  8
WHITE
 10
8.251753
 20
17.103966
 30
0.000000
 11
8.570503
 21
18.060216
 31
0.000000
  6
CONTINUOUS
  0
LINE
  8
WHITE
 10
8.570503
 20
18.060216
 30
0.000000
 11
8.676753
 21
19.122716
 31
0.000000
  6
CONTINUOUS
  0
LINE
  8
WHITE
 10
8.676753
 20
19.122716
 30
0.000000
 11
8.464253
 21
20.078966
 31
0.000000
  6
CONTINUOUS
  0
LINE
  8
WHITE
 10
8.464253
 20
20.078966
 30
0.000000
 11
7.933003
 21
22.097716
 31
0.000000
  6
CONTINUOUS
  0
LINE
  8
WHITE
 10
7.933003
 20
22.097716
 30
0.000000
 11
7.614253
 21
24.860216
 31
0.000000
  6
CONTINUOUS
  0
LINE
  8
WHITE
 10
7.614253
 20
24.860216
 30
0.000000
 11
7.614253
 21
27.516466
 31
0.000000
  6
CONTINUOUS
  0
LINE
  8
WHITE
 10
7.614253
 20
27.516466
 30
0.000000
 11
7.933003
 21
29.322716
 31
0.000000
  6
CONTINUOUS
  0
LINE
  8
WHITE
 10
7.933003
 20
29.322716
 30
0.000000
 11
8.889253
 21
32.510216
 31
0.000000
  6
CONTINUOUS
  0
LINE
  8
WHITE
 10
8.889253
 20
32.510216
 30
0.000000
 11
9.526753
 21
34.210216
 31
0.000000
  6
CONTINUOUS
  0
LINE
  8
WHITE
 10
9.526753
 20
34.210216
 30
0.000000
 11
11.120503
 21
37.185216
 31
0.000000
  6
CONTINUOUS
  0
LINE
  8
WHITE
 10
11.120503
 20
37.185216
 30
0.000000
 11
12.820503
 21
40.053966
 31
0.000000
  6
CONTINUOUS
  0
LINE
  8
WHITE
 10
12.820503
 20
40.053966
 30
0.000000
 11
13.989253
 21
41.753966
 31
0.000000
  6
CONTINUOUS
  0
LINE
  8
WHITE
 10
13.989253
 20
41.753966
 30
0.000000
 11
16.114253
 21
44.303966
 31
0.000000
  6
CONTINUOUS
  0
ENDSEC
  0
EOF
