  0
SECTION
  2
HEADER
  9
$ACADVER
  1
AC1009
  9
$LIMMIN
 10
0.000000
 20
0.000000
  9
$LIMMAX
 10
153.672081
 20
65.242714
  0
ENDSEC
  0
SECTION
  2
TABLES
  0
TABLE
  2
LTYPE
 70
     4
  0
LTYPE
  2
CONTINUOUS
 70
     0
  3
Solid line
 72
     65
 73
     0
 40
0.000000
  0
LTYPE
  2
HIDDEN
 70
     0
  3
 _ _ _ _ _ _ _ _ _ _ _
 72
     65
 73
     2
 40
0.375000
 49
0.250000
 49
-0.125000
  0
LTYPE
  2
DASHED
 70
     0
  3
 ___ ___ ___ ___ ___ ___ ___ 
 72
     65
 73
     2
 40
0.750000
 49
0.500000
 49
-0.250000
  0
LTYPE
  2
CENTER
 70
     0
  3
___ _ ___ _ ___ _ ___
 72
     65
 73
     4
 40
2.000000
 49
1.250000
 49
-0.250000
 49
0.250000
 49
-0.250000
  0
LTYPE
  2
BORDER
 70
     0
  3
___ ___ . ___ ___ . ___ ___
 72
     65
 73
     6
 40
1.750000
 49
0.500000
 49
-0.250000
 49
0.500000
 49
-0.250000
 49
0.000000
 49
-0.250000
  0
LTYPE
  2
DOT
 70
     0
  3
.................
 72
     65
 73
     2
 40
0.250000
 49
0.000000
 49
-0.250000
  0
LTYPE
  2
DASHDOT
 70
     0
  3
__ . __ . __ . __
 72
     65
 73
     4
 40
1.000000
 49
0.500000
 49
-0.250000
 49
0.000000
 49
-0.250000
  0
LTYPE
  2
DIVIDE
 70
     0
  3
___ .. ___ .. ___ .. ___
 72
     65
 73
     6
 40
1.250000
 49
0.500000
 49
-0.250000
 49
0.000000
 49
-0.250000
 49
0.000000
 49
-0.250000
  0
ENDTAB
  0
TABLE
  2
LAYER
 70
     8
  0
LAYER
  2
BLACK
 70
     0
 62
     1
  6
CONTINUOUS
  0
LAYER
  2
WHITE
 70
     0
 62
     7
  6
CONTINUOUS
  0
LAYER
  2
RED
 70
     0
 62
     1
  6
CONTINUOUS
  0
LAYER
  2
YELLOW
 70
     0
 62
     2
  6
CONTINUOUS
  0
LAYER
  2
GREEN
 70
     0
 62
     3
  6
CONTINUOUS
  0
LAYER
  2
CYAN
 70
     0
 62
     4
  6
CONTINUOUS
  0
LAYER
  2
BLUE
 70
     0
 62
     5
  6
CONTINUOUS
  0
LAYER
  2
MAGENTA
 70
     0
 62
     6
  6
CONTINUOUS
  0
ENDTAB
  0
TABLE
  2
APPID
 70
     1
  0
APPID
  2
TC_BEND_DATA
 70
     0
  0
ENDTAB
  0
ENDSEC
  0
SECTION
  2
BLOCKS
  0
ENDSEC
  0
SECTION
  2
ENTITIES
  0
LINE
  8
WHITE
 10
73.486860
 20
26.475779
 30
0.000000
 11
73.669920
 21
33.248999
 31
0.000000
  6
CONTINUOUS
  0
ARC
  8
WHITE
 10
72.670285
 20
33.276016
 30
0.000000
 40
1.000000
 50
-1.548158
 51
93.366461
  6
CONTINUOUS
  0
LINE
  8
WHITE
 10
72.611563
 20
34.274291
 30
0.000000
 11
71.893110
 21
34.232029
 31
0.000000
  6
CONTINUOUS
  0
LINE
  8
WHITE
 10
71.893110
 20
34.232029
 30
0.000000
 11
64.386860
 21
33.173455
 31
0.000000
  6
CONTINUOUS
  0
ARC
  8
WHITE
 10
64.526504
 20
32.183253
 30
0.000000
 40
1.000000
 50
98.027238
 51
182.353297
  6
CONTINUOUS
  0
LINE
  8
WHITE
 10
63.527347
 20
32.142192
 30
0.000000
 11
63.821608
 21
24.981857
 31
0.000000
  6
CONTINUOUS
  0
LINE
  8
WHITE
 10
63.821608
 20
24.981857
 30
0.000000
 11
62.224360
 21
24.882029
 31
0.000000
  6
CONTINUOUS
  0
LINE
  8
WHITE
 10
62.224360
 20
24.882029
 30
0.000000
 11
61.949632
 21
31.567060
 31
0.000000
  6
CONTINUOUS
  0
ARC
  8
WHITE
 10
60.950476
 20
31.525999
 30
0.000000
 40
1.000000
 50
2.353297
 51
96.340192
  6
CONTINUOUS
  0
LINE
  8
WHITE
 10
60.840044
 20
32.519882
 30
0.000000
 11
59.993110
 21
32.425779
 31
0.000000
  6
CONTINUOUS
  0
ARC
  8
WHITE
 10
59.334268
 20
36.285162
 30
0.000000
 40
3.915215
 50
143.967230
 51
279.687663
  6
CONTINUOUS
  0
ARC
  8
WHITE
 10
54.674254
 20
40.861293
 30
0.000000
 40
2.719962
 50
-56.686543
 51
73.991626
  6
CONTINUOUS
  0
LINE
  8
WHITE
 10
55.424360
 20
43.475779
 30
0.000000
 11
54.680610
 21
43.582029
 31
0.000000
  6
CONTINUOUS
  0
LINE
  8
WHITE
 10
54.680610
 20
43.582029
 30
0.000000
 11
52.661860
 21
43.050779
 31
0.000000
  6
CONTINUOUS
  0
LINE
  8
WHITE
 10
52.661860
 20
43.050779
 30
0.000000
 11
51.918110
 21
43.050779
 31
0.000000
  6
CONTINUOUS
  0
LINE
  8
WHITE
 10
51.918110
 20
43.050779
 30
0.000000
 11
50.961860
 21
43.475779
 31
0.000000
  6
CONTINUOUS
  0
LINE
  8
WHITE
 10
50.961860
 20
43.475779
 30
0.000000
 11
50.749360
 21
43.582029
 31
0.000000
  6
CONTINUOUS
  0
ARC
  8
WHITE
 10
52.656905
 20
45.358826
 30
0.000000
 40
2.606864
 50
144.415202
 51
222.967570
  6
CONTINUOUS
  0
LINE
  8
WHITE
 10
50.536860
 20
46.875779
 30
0.000000
 11
50.855610
 21
47.300779
 31
0.000000
  6
CONTINUOUS
  0
LINE
  8
WHITE
 10
50.855610
 20
47.300779
 30
0.000000
 11
51.068110
 21
47.619529
 31
0.000000
  6
CONTINUOUS
  0
ARC
  8
WHITE
 10
48.179744
 20
49.035106
 30
0.000000
 40
3.216600
 50
-26.109299
 51
-4.400938
  6
CONTINUOUS
  0
ARC
  8
WHITE
 10
48.902659
 20
49.142086
 30
0.000000
 40
2.509269
 50
-8.105720
 51
106.276953
  6
CONTINUOUS
  0
LINE
  8
WHITE
 10
48.199360
 20
51.550779
 30
0.000000
 11
46.074360
 21
50.807029
 31
0.000000
  6
CONTINUOUS
  0
LINE
  8
WHITE
 10
46.074360
 20
50.807029
 30
0.000000
 11
45.330610
 21
50.700779
 31
0.000000
  6
CONTINUOUS
  0
ARC
  8
WHITE
 10
45.234875
 20
52.493421
 30
0.000000
 40
1.795197
 50
162.331539
 51
273.056942
  6
CONTINUOUS
  0
LINE
  8
WHITE
 10
43.524360
 20
53.038279
 30
0.000000
 11
43.736860
 21
53.675779
 31
0.000000
  6
CONTINUOUS
  0
LINE
  8
WHITE
 10
43.736860
 20
53.675779
 30
0.000000
 11
44.374360
 21
54.950779
 31
0.000000
  6
CONTINUOUS
  0
ARC
  8
WHITE
 10
42.219802
 20
56.368721
 30
0.000000
 40
2.579279
 50
-33.349436
 51
111.056185
  6
CONTINUOUS
  0
LINE
  8
WHITE
 10
41.293110
 20
58.775779
 30
0.000000
 11
40.336860
 21
58.350779
 31
0.000000
  6
CONTINUOUS
  0
LINE
  8
WHITE
 10
40.336860
 20
58.350779
 30
0.000000
 11
38.530610
 21
57.500779
 31
0.000000
  6
CONTINUOUS
  0
ARC
  8
WHITE
 10
38.072748
 20
59.437568
 30
0.000000
 40
1.990174
 50
-176.239156
 51
-76.699312
  6
CONTINUOUS
  0
ARC
  8
WHITE
 10
33.024746
 20
60.757087
 30
0.000000
 40
3.388098
 50
-25.339818
 51
79.483978
  6
CONTINUOUS
  0
LINE
  8
WHITE
 10
33.643110
 20
64.088279
 30
0.000000
 11
30.349360
 21
64.832029
 31
0.000000
  6
CONTINUOUS
  0
LINE
  8
WHITE
 10
30.349360
 20
64.832029
 30
0.000000
 11
27.480610
 21
65.150779
 31
0.000000
  6
CONTINUOUS
  0
ARC
  8
WHITE
 10
25.354250
 20
40.606686
 30
0.000000
 40
24.636028
 50
85.048585
 51
123.207248
  6
CONTINUOUS
  0
ARC
  8
WHITE
 10
15.705999
 20
54.446643
 30
0.000000
 40
7.787772
 50
119.578284
 51
169.986530
  6
CONTINUOUS
  0
LINE
  8
WHITE
 10
8.036860
 20
55.800779
 30
0.000000
 11
7.399360
 21
54.313279
 31
0.000000
  6
CONTINUOUS
  0
LINE
  8
WHITE
 10
7.399360
 20
54.313279
 30
0.000000
 11
6.655610
 21
53.144529
 31
0.000000
  6
CONTINUOUS
  0
LINE
  8
WHITE
 10
6.655610
 20
53.144529
 30
0.000000
 11
5.699360
 21
52.188279
 31
0.000000
  6
CONTINUOUS
  0
ARC
  8
WHITE
 10
9.842329
 20
43.260387
 30
0.000000
 40
9.842329
 50
114.893558
 51
214.879496
  6
CONTINUOUS
  0
LINE
  8
WHITE
 10
1.768110
 20
37.632029
 30
0.000000
 11
12.526472
 21
23.656213
 31
0.000000
  6
CONTINUOUS
  0
ARC
  8
WHITE
 10
13.318884
 20
24.266199
 30
0.000000
 40
1.000000
 50
-142.411493
 51
-52.373766
  6
CONTINUOUS
  0
LINE
  8
WHITE
 10
13.929392
 20
23.474189
 30
0.000000
 11
28.436860
 21
34.657029
 31
0.000000
  6
CONTINUOUS
  0
LINE
  8
WHITE
 10
28.436860
 20
34.657029
 30
0.000000
 11
29.412397
 21
33.388830
 31
0.000000
  6
CONTINUOUS
  0
LINE
  8
WHITE
 10
29.412397
 20
33.388830
 30
0.000000
 11
14.903026
 21
22.204522
 31
0.000000
  6
CONTINUOUS
  0
ARC
  8
WHITE
 10
15.513534
 20
21.412512
 30
0.000000
 40
1.000000
 50
127.626234
 51
217.519114
  6
CONTINUOUS
  0
LINE
  8
WHITE
 10
14.720383
 20
20.803486
 30
0.000000
 11
18.768110
 21
15.532029
 31
0.000000
  6
CONTINUOUS
  0
LINE
  8
WHITE
 10
18.768110
 20
15.532029
 30
0.000000
 11
19.299360
 21
15.107029
 31
0.000000
  6
CONTINUOUS
  0
LINE
  8
WHITE
 10
19.299360
 20
15.107029
 30
0.000000
 11
19.830610
 21
14.788279
 31
0.000000
  6
CONTINUOUS
  0
LINE
  8
WHITE
 10
19.830610
 20
14.788279
 30
0.000000
 11
20.574360
 21
14.257029
 31
0.000000
  6
CONTINUOUS
  0
LINE
  8
WHITE
 10
20.574360
 20
14.257029
 30
0.000000
 11
22.168110
 21
13.619529
 31
0.000000
  6
CONTINUOUS
  0
ARC
  8
WHITE
 10
24.710955
 20
24.134641
 30
0.000000
 40
10.818209
 50
-103.594709
 51
-22.500933
  6
CONTINUOUS
  0
LINE
  8
WHITE
 10
34.705610
 20
19.994529
 30
0.000000
 11
35.768110
 21
20.950779
 31
0.000000
  6
CONTINUOUS
  0
LINE
  8
WHITE
 10
35.768110
 20
20.950779
 30
0.000000
 11
36.618110
 21
21.375779
 31
0.000000
  6
CONTINUOUS
  0
LINE
  8
WHITE
 10
36.618110
 20
21.375779
 30
0.000000
 11
37.999360
 21
21.800779
 31
0.000000
  6
CONTINUOUS
  0
ARC
  8
WHITE
 10
38.617492
 20
15.765459
 30
0.000000
 40
6.066892
 50
-10.287102
 51
95.847791
  6
CONTINUOUS
  0
LINE
  8
WHITE
 10
44.586860
 20
14.682029
 30
0.000000
 11
44.268110
 21
11.600779
 31
0.000000
  6
CONTINUOUS
  0
LINE
  8
WHITE
 10
44.268110
 20
11.600779
 30
0.000000
 11
44.161860
 21
9.157029
 31
0.000000
  6
CONTINUOUS
  0
LINE
  8
WHITE
 10
44.161860
 20
9.157029
 30
0.000000
 11
44.268110
 21
6.500779
 31
0.000000
  6
CONTINUOUS
  0
LINE
  8
WHITE
 10
44.268110
 20
6.500779
 30
0.000000
 11
44.693110
 21
2.782029
 31
0.000000
  6
CONTINUOUS
  0
LINE
  8
WHITE
 10
44.693110
 20
2.782029
 30
0.000000
 11
45.011860
 21
1.400779
 31
0.000000
  6
CONTINUOUS
  0
ARC
  8
WHITE
 10
47.022569
 20
2.143498
 30
0.000000
 40
2.143498
 50
-159.726693
 51
-5.661788
  6
CONTINUOUS
  0
LINE
  8
WHITE
 10
49.155610
 20
1.932029
 30
0.000000
 11
49.368110
 21
4.907029
 31
0.000000
  6
CONTINUOUS
  0
LINE
  8
WHITE
 10
49.368110
 20
4.907029
 30
0.000000
 11
49.686860
 21
8.094529
 31
0.000000
  6
CONTINUOUS
  0
LINE
  8
WHITE
 10
49.686860
 20
8.094529
 30
0.000000
 11
50.324360
 21
11.494529
 31
0.000000
  6
CONTINUOUS
  0
LINE
  8
WHITE
 10
50.324360
 20
11.494529
 30
0.000000
 11
50.749360
 21
13.088279
 31
0.000000
  6
CONTINUOUS
  0
LINE
  8
WHITE
 10
50.749360
 20
13.088279
 30
0.000000
 11
51.174360
 21
13.725779
 31
0.000000
  6
CONTINUOUS
  0
ARC
  8
WHITE
 10
52.394565
 20
11.938972
 30
0.000000
 40
2.163696
 50
16.597625
 51
124.329065
  6
CONTINUOUS
  0
LINE
  8
WHITE
 10
54.468110
 20
12.557029
 30
0.000000
 11
54.786860
 21
9.688279
 31
0.000000
  6
CONTINUOUS
  0
LINE
  8
WHITE
 10
54.786860
 20
9.688279
 30
0.000000
 11
55.211860
 21
6.607029
 31
0.000000
  6
CONTINUOUS
  0
LINE
  8
WHITE
 10
55.211860
 20
6.607029
 30
0.000000
 11
55.530610
 21
5.225779
 31
0.000000
  6
CONTINUOUS
  0
LINE
  8
WHITE
 10
55.530610
 20
5.225779
 30
0.000000
 11
56.380610
 21
2.357029
 31
0.000000
  6
CONTINUOUS
  0
LINE
  8
WHITE
 10
56.380610
 20
2.357029
 30
0.000000
 11
57.018110
 21
1.082029
 31
0.000000
  6
CONTINUOUS
  0
ARC
  8
WHITE
 10
58.812317
 20
2.247524
 30
0.000000
 40
2.139523
 50
-146.992738
 51
-2.759248
  6
CONTINUOUS
  0
LINE
  8
WHITE
 10
60.949360
 20
2.144529
 30
0.000000
 11
60.630610
 21
7.032029
 31
0.000000
  6
CONTINUOUS
  0
LINE
  8
WHITE
 10
60.630610
 20
7.032029
 30
0.000000
 11
60.843110
 21
10.963279
 31
0.000000
  6
CONTINUOUS
  0
ARC
  8
WHITE
 10
63.124617
 20
10.440824
 30
0.000000
 40
2.340563
 50
32.750579
 51
167.101912
  6
CONTINUOUS
  0
LINE
  8
WHITE
 10
65.093110
 20
11.707029
 30
0.000000
 11
66.261860
 21
9.688279
 31
0.000000
  6
CONTINUOUS
  0
LINE
  8
WHITE
 10
66.261860
 20
9.688279
 30
0.000000
 11
67.005610
 21
8.944529
 31
0.000000
  6
CONTINUOUS
  0
ARC
  8
WHITE
 10
68.133081
 20
10.838387
 30
0.000000
 40
2.204062
 50
-120.766627
 51
-10.624275
  6
CONTINUOUS
  0
LINE
  8
WHITE
 10
70.299360
 20
10.432029
 30
0.000000
 11
70.724360
 21
12.450779
 31
0.000000
  6
CONTINUOUS
  0
ARC
  8
WHITE
 10
72.943869
 20
12.121462
 30
0.000000
 40
2.243808
 50
92.414025
 51
171.560400
  6
CONTINUOUS
  0
ARC
  8
WHITE
 10
72.689102
 20
11.231715
 30
0.000000
 40
3.135661
 50
0.919383
 51
87.070445
  6
CONTINUOUS
  0
ARC
  8
WHITE
 10
78.179072
 20
12.130828
 30
0.000000
 40
2.503025
 50
-160.177378
 51
-27.804448
  6
CONTINUOUS
  0
LINE
  8
WHITE
 10
80.393110
 20
10.963279
 30
0.000000
 11
81.030610
 21
13.300779
 31
0.000000
  6
CONTINUOUS
  0
ARC
  8
WHITE
 10
83.338417
 20
12.346309
 30
0.000000
 40
2.497396
 50
25.133588
 51
157.530851
  6
CONTINUOUS
  0
LINE
  8
WHITE
 10
85.599360
 20
13.407029
 30
0.000000
 11
86.130610
 21
11.069529
 31
0.000000
  6
CONTINUOUS
  0
ARC
  8
WHITE
 10
88.297678
 20
12.127444
 30
0.000000
 40
2.411508
 50
-153.979378
 51
-17.849388
  6
CONTINUOUS
  0
LINE
  8
WHITE
 10
90.593110
 20
11.388279
 30
0.000000
 11
90.911860
 21
12.450779
 31
0.000000
  6
CONTINUOUS
  0
ARC
  8
WHITE
 10
93.368879
 20
11.811302
 30
0.000000
 40
2.538873
 50
-2.353849
 51
165.411560
  6
CONTINUOUS
  0
ARC
  8
WHITE
 10
98.311860
 20
11.397654
 30
0.000000
 40
2.426057
 50
172.673593
 51
339.253920
  6
CONTINUOUS
  0
LINE
  8
WHITE
 10
100.580610
 20
10.538279
 30
0.000000
 11
101.005610
 21
11.813279
 31
0.000000
  6
CONTINUOUS
  0
ARC
  8
WHITE
 10
103.210432
 20
11.283916
 30
0.000000
 40
2.267480
 50
5.329535
 51
166.499231
  6
CONTINUOUS
  0
LINE
  8
WHITE
 10
105.468110
 20
11.494529
 30
0.000000
 11
105.680610
 21
9.688279
 31
0.000000
  6
CONTINUOUS
  0
ARC
  8
WHITE
 10
107.921327
 20
9.570457
 30
0.000000
 40
2.243813
 50
176.990036
 51
261.588778
  6
CONTINUOUS
  0
ARC
  8
WHITE
 10
107.541087
 20
10.169507
 30
0.000000
 40
2.819208
 50
-88.942669
 51
-3.303937
  6
CONTINUOUS
  0
ARC
  8
WHITE
 10
112.758494
 20
9.042606
 30
0.000000
 40
2.589202
 50
44.488444
 51
158.131421
  6
CONTINUOUS
  0
LINE
  8
WHITE
 10
114.605610
 20
10.857029
 30
0.000000
 11
114.818110
 21
10.538279
 31
0.000000
  6
CONTINUOUS
  0
LINE
  8
WHITE
 10
114.818110
 20
10.538279
 30
0.000000
 11
115.030610
 21
9.900779
 31
0.000000
  6
CONTINUOUS
  0
LINE
  8
WHITE
 10
115.030610
 20
9.900779
 30
0.000000
 11
115.243110
 21
7.138279
 31
0.000000
  6
CONTINUOUS
  0
ARC
  8
WHITE
 10
117.418129
 20
7.545625
 30
0.000000
 40
2.212835
 50
-169.392305
 51
-49.487765
  6
CONTINUOUS
  0
LINE
  8
WHITE
 10
118.855610
 20
5.863279
 30
0.000000
 11
119.068110
 21
6.182029
 31
0.000000
  6
CONTINUOUS
  0
LINE
  8
WHITE
 10
119.068110
 20
6.182029
 30
0.000000
 11
120.449360
 21
8.200779
 31
0.000000
  6
CONTINUOUS
  0
ARC
  8
WHITE
 10
122.300230
 20
6.917559
 30
0.000000
 40
2.252193
 50
13.858848
 51
145.266202
  6
CONTINUOUS
  0
LINE
  8
WHITE
 10
124.486860
 20
7.457029
 30
0.000000
 11
124.593110
 21
5.013279
 31
0.000000
  6
CONTINUOUS
  0
ARC
  8
WHITE
 10
126.856331
 20
4.573134
 30
0.000000
 40
2.305623
 50
168.994667
 51
320.312981
  6
CONTINUOUS
  0
LINE
  8
WHITE
 10
128.630610
 20
3.100779
 30
0.000000
 11
129.480610
 21
4.269529
 31
0.000000
  6
CONTINUOUS
  0
LINE
  8
WHITE
 10
129.480610
 20
4.269529
 30
0.000000
 11
130.118110
 21
5.119529
 31
0.000000
  6
CONTINUOUS
  0
LINE
  8
WHITE
 10
130.118110
 20
5.119529
 30
0.000000
 11
131.074360
 21
5.544529
 31
0.000000
  6
CONTINUOUS
  0
LINE
  8
WHITE
 10
131.074360
 20
5.544529
 30
0.000000
 11
131.393110
 21
5.544529
 31
0.000000
  6
CONTINUOUS
  0
LINE
  8
WHITE
 10
131.393110
 20
5.544529
 30
0.000000
 11
132.349360
 21
5.332029
 31
0.000000
  6
CONTINUOUS
  0
LINE
  8
WHITE
 10
132.349360
 20
5.332029
 30
0.000000
 11
138.830610
 21
2.569529
 31
0.000000
  6
CONTINUOUS
  0
LINE
  8
WHITE
 10
138.830610
 20
2.569529
 30
0.000000
 11
144.249360
 21
0.125779
 31
0.000000
  6
CONTINUOUS
  0
LINE
  8
WHITE
 10
144.249360
 20
0.125779
 30
0.000000
 11
144.993110
 21
0.125779
 31
0.000000
  6
CONTINUOUS
  0
LINE
  8
WHITE
 10
144.993110
 20
0.125779
 30
0.000000
 11
145.311860
 21
0.232029
 31
0.000000
  6
CONTINUOUS
  0
LINE
  8
WHITE
 10
145.311860
 20
0.232029
 30
0.000000
 11
146.799360
 21
3.525779
 31
0.000000
  6
CONTINUOUS
  0
LINE
  8
WHITE
 10
146.799360
 20
3.525779
 30
0.000000
 11
147.755610
 21
6.075779
 31
0.000000
  6
CONTINUOUS
  0
LINE
  8
WHITE
 10
147.755610
 20
6.075779
 30
0.000000
 11
147.975705
 21
6.515970
 31
0.000000
  6
CONTINUOUS
  0
ARC
  8
WHITE
 10
147.081278
 20
6.963183
 30
0.000000
 40
1.000000
 50
-26.565051
 51
66.170551
  6
CONTINUOUS
  0
LINE
  8
WHITE
 10
147.485294
 20
7.877936
 30
0.000000
 11
135.564252
 21
13.143062
 31
0.000000
  6
CONTINUOUS
  0
LINE
  8
WHITE
 10
135.564252
 20
13.143062
 30
0.000000
 11
136.280610
 21
14.575779
 31
0.000000
  6
CONTINUOUS
  0
LINE
  8
WHITE
 10
136.280610
 20
14.575779
 30
0.000000
 11
148.119777
 21
9.346813
 31
0.000000
  6
CONTINUOUS
  0
ARC
  8
WHITE
 10
148.523793
 20
10.261565
 30
0.000000
 40
1.000000
 50
-113.829449
 51
-24.075498
  6
CONTINUOUS
  0
LINE
  8
WHITE
 10
149.436802
 20
9.853625
 30
0.000000
 11
153.493110
 21
18.932029
 31
0.000000
  6
CONTINUOUS
  0
LINE
  8
WHITE
 10
153.493110
 20
18.932029
 30
0.000000
 11
152.536860
 21
19.569529
 31
0.000000
  6
CONTINUOUS
  0
LINE
  8
WHITE
 10
152.536860
 20
19.569529
 30
0.000000
 11
151.793110
 21
20.207029
 31
0.000000
  6
CONTINUOUS
  0
LINE
  8
WHITE
 10
151.793110
 20
20.207029
 30
0.000000
 11
151.368110
 21
20.844529
 31
0.000000
  6
CONTINUOUS
  0
LINE
  8
WHITE
 10
151.368110
 20
20.844529
 30
0.000000
 11
150.943110
 21
21.694529
 31
0.000000
  6
CONTINUOUS
  0
LINE
  8
WHITE
 10
150.943110
 20
21.694529
 30
0.000000
 11
150.836860
 21
22.332029
 31
0.000000
  6
CONTINUOUS
  0
LINE
  8
WHITE
 10
150.836860
 20
22.332029
 30
0.000000
 11
150.836860
 21
22.438279
 31
0.000000
  6
CONTINUOUS
  0
LINE
  8
WHITE
 10
150.836860
 20
22.438279
 30
0.000000
 11
151.049360
 21
23.500779
 31
0.000000
  6
CONTINUOUS
  0
LINE
  8
WHITE
 10
151.049360
 20
23.500779
 30
0.000000
 11
151.261860
 21
24.244529
 31
0.000000
  6
CONTINUOUS
  0
LINE
  8
WHITE
 10
151.261860
 20
24.244529
 30
0.000000
 11
153.068110
 21
28.707029
 31
0.000000
  6
CONTINUOUS
  0
ARC
  8
WHITE
 10
149.976950
 20
30.731559
 30
0.000000
 40
3.695131
 50
-33.222478
 51
152.709604
  6
CONTINUOUS
  0
LINE
  8
WHITE
 10
146.693110
 20
32.425779
 30
0.000000
 11
144.249360
 21
27.538279
 31
0.000000
  6
CONTINUOUS
  0
LINE
  8
WHITE
 10
144.249360
 20
27.538279
 30
0.000000
 11
143.293110
 21
25.732029
 31
0.000000
  6
CONTINUOUS
  0
ARC
  8
WHITE
 10
141.404360
 20
26.890779
 30
0.000000
 40
2.215870
 50
165.861849
 51
328.470843
  6
CONTINUOUS
  0
LINE
  8
WHITE
 10
139.255610
 20
27.432029
 30
0.000000
 11
141.699360
 21
33.807029
 31
0.000000
  6
CONTINUOUS
  0
LINE
  8
WHITE
 10
141.699360
 20
33.807029
 30
0.000000
 11
141.911860
 21
34.869529
 31
0.000000
  6
CONTINUOUS
  0
LINE
  8
WHITE
 10
141.911860
 20
34.869529
 30
0.000000
 11
141.911860
 21
35.825779
 31
0.000000
  6
CONTINUOUS
  0
ARC
  8
WHITE
 10
138.364109
 20
35.408683
 30
0.000000
 40
3.572184
 50
6.705262
 51
151.726142
  6
CONTINUOUS
  0
LINE
  8
WHITE
 10
135.218110
 20
37.100779
 30
0.000000
 11
132.136860
 21
30.088279
 31
0.000000
  6
CONTINUOUS
  0
ARC
  8
WHITE
 10
129.498059
 20
31.583922
 30
0.000000
 40
3.033186
 50
-100.422120
 51
-29.544093
  6
CONTINUOUS
  0
LINE
  8
WHITE
 10
128.949360
 20
28.600779
 30
0.000000
 11
125.319367
 21
29.551491
 31
0.000000
  6
CONTINUOUS
  0
ARC
  8
WHITE
 10
125.066008
 20
28.584119
 30
0.000000
 40
1.000000
 50
75.323607
 51
161.821981
  6
CONTINUOUS
  0
LINE
  8
WHITE
 10
124.115916
 20
28.896089
 30
0.000000
 11
122.073518
 21
22.676059
 31
0.000000
  6
CONTINUOUS
  0
LINE
  8
WHITE
 10
122.073518
 20
22.676059
 30
0.000000
 11
120.555610
 21
23.182029
 31
0.000000
  6
CONTINUOUS
  0
LINE
  8
WHITE
 10
120.555610
 20
23.182029
 30
0.000000
 11
122.559165
 21
29.283766
 31
0.000000
  6
CONTINUOUS
  0
ARC
  8
WHITE
 10
121.609073
 20
29.595736
 30
0.000000
 40
1.000000
 50
-18.178019
 51
75.718904
  6
CONTINUOUS
  0
LINE
  8
WHITE
 10
121.855753
 20
30.564833
 30
0.000000
 11
117.049360
 21
31.788279
 31
0.000000
  6
CONTINUOUS
  0
LINE
  8
WHITE
 10
117.049360
 20
31.788279
 30
0.000000
 11
113.598689
 21
32.461580
 31
0.000000
  6
CONTINUOUS
  0
ARC
  8
WHITE
 10
113.407178
 20
31.480090
 30
0.000000
 40
1.000000
 50
78.959060
 51
165.774036
  6
CONTINUOUS
  0
LINE
  8
WHITE
 10
112.437844
 20
31.725836
 30
0.000000
 11
110.732953
 21
25.000987
 31
0.000000
  6
CONTINUOUS
  0
LINE
  8
WHITE
 10
110.732953
 20
25.000987
 30
0.000000
 11
109.186860
 21
25.413279
 31
0.000000
  6
CONTINUOUS
  0
LINE
  8
WHITE
 10
109.186860
 20
25.413279
 30
0.000000
 11
110.825971
 21
31.878661
 31
0.000000
  6
CONTINUOUS
  0
ARC
  8
WHITE
 10
109.856637
 20
32.124408
 30
0.000000
 40
1.000000
 50
-14.225964
 51
81.869898
  6
CONTINUOUS
  0
LINE
  8
WHITE
 10
109.998058
 20
33.114357
 30
0.000000
 11
106.636860
 21
33.594529
 31
0.000000
  6
CONTINUOUS
  0
LINE
  8
WHITE
 10
106.636860
 20
33.594529
 30
0.000000
 11
101.272820
 21
34.241913
 31
0.000000
  6
CONTINUOUS
  0
ARC
  8
WHITE
 10
101.152999
 20
33.249117
 30
0.000000
 40
1.000000
 50
83.118276
 51
167.799531
  6
CONTINUOUS
  0
LINE
  8
WHITE
 10
100.175585
 20
33.460450
 30
0.000000
 11
98.647554
 21
26.393305
 31
0.000000
  6
CONTINUOUS
  0
LINE
  8
WHITE
 10
98.647554
 20
26.393305
 30
0.000000
 11
97.074360
 21
26.688279
 31
0.000000
  6
CONTINUOUS
  0
LINE
  8
WHITE
 10
97.074360
 20
26.688279
 30
0.000000
 11
98.534827
 21
33.442938
 31
0.000000
  6
CONTINUOUS
  0
ARC
  8
WHITE
 10
97.557412
 20
33.654271
 30
0.000000
 40
1.000000
 50
-12.200469
 51
84.957549
  6
CONTINUOUS
  0
LINE
  8
WHITE
 10
97.645306
 20
34.650401
 30
0.000000
 11
95.161860
 21
34.869529
 31
0.000000
  6
CONTINUOUS
  0
LINE
  8
WHITE
 10
95.161860
 20
34.869529
 30
0.000000
 11
88.666179
 21
35.057809
 31
0.000000
  6
CONTINUOUS
  0
ARC
  8
WHITE
 10
88.637206
 20
34.058229
 30
0.000000
 40
1.000000
 50
88.339718
 51
173.990994
  6
CONTINUOUS
  0
LINE
  8
WHITE
 10
87.642701
 20
34.162914
 30
0.000000
 11
86.867182
 21
26.795486
 31
0.000000
  6
CONTINUOUS
  0
LINE
  8
WHITE
 10
86.867182
 20
26.795486
 30
0.000000
 11
85.280610
 21
27.007029
 31
0.000000
  6
CONTINUOUS
  0
LINE
  8
WHITE
 10
85.280610
 20
27.007029
 30
0.000000
 11
86.010487
 21
33.940868
 31
0.000000
  6
CONTINUOUS
  0
ARC
  8
WHITE
 10
85.015982
 20
34.045553
 30
0.000000
 40
1.000000
 50
-6.009006
 51
91.847610
  6
CONTINUOUS
  0
LINE
  8
WHITE
 10
84.983741
 20
35.045033
 30
0.000000
 11
82.836860
 21
34.975779
 31
0.000000
  6
CONTINUOUS
  0
LINE
  8
WHITE
 10
82.836860
 20
34.975779
 30
0.000000
 11
76.223292
 21
34.597861
 31
0.000000
  6
CONTINUOUS
  0
ARC
  8
WHITE
 10
76.280342
 20
33.599489
 30
0.000000
 40
1.000000
 50
93.270488
 51
178.451842
  6
CONTINUOUS
  0
LINE
  8
WHITE
 10
75.280707
 20
33.626506
 30
0.000000
 11
75.087444
 21
26.475779
 31
0.000000
  6
CONTINUOUS
  0
LINE
  8
WHITE
 10
75.087444
 20
26.475779
 30
0.000000
 11
73.486860
 21
26.475779
 31
0.000000
  6
CONTINUOUS
  0
ENDSEC
  0
EOF
