  0
SECTION
  2
HEADER
  9
$ACADVER
  1
AC1009
  9
$LIMMIN
 10
0.000000
 20
-0.000000
  9
$LIMMAX
 10
59.818750
 20
59.301543
  0
ENDSEC
  0
SECTION
  2
TABLES
  0
TABLE
  2
LTYPE
 70
     4
  0
LTYPE
  2
CONTINUOUS
 70
     0
  3
Solid line
 72
     65
 73
     0
 40
0.000000
  0
LTYPE
  2
HIDDEN
 70
     0
  3
 _ _ _ _ _ _ _ _ _ _ _
 72
     65
 73
     2
 40
0.375000
 49
0.250000
 49
-0.125000
  0
LTYPE
  2
DASHED
 70
     0
  3
 ___ ___ ___ ___ ___ ___ ___ 
 72
     65
 73
     2
 40
0.750000
 49
0.500000
 49
-0.250000
  0
LTYPE
  2
CENTER
 70
     0
  3
___ _ ___ _ ___ _ ___
 72
     65
 73
     4
 40
2.000000
 49
1.250000
 49
-0.250000
 49
0.250000
 49
-0.250000
  0
LTYPE
  2
BORDER
 70
     0
  3
___ ___ . ___ ___ . ___ ___
 72
     65
 73
     6
 40
1.750000
 49
0.500000
 49
-0.250000
 49
0.500000
 49
-0.250000
 49
0.000000
 49
-0.250000
  0
LTYPE
  2
DOT
 70
     0
  3
.................
 72
     65
 73
     2
 40
0.250000
 49
0.000000
 49
-0.250000
  0
LTYPE
  2
DASHDOT
 70
     0
  3
__ . __ . __ . __
 72
     65
 73
     4
 40
1.000000
 49
0.500000
 49
-0.250000
 49
0.000000
 49
-0.250000
  0
LTYPE
  2
DIVIDE
 70
     0
  3
___ .. ___ .. ___ .. ___
 72
     65
 73
     6
 40
1.250000
 49
0.500000
 49
-0.250000
 49
0.000000
 49
-0.250000
 49
0.000000
 49
-0.250000
  0
ENDTAB
  0
TABLE
  2
LAYER
 70
     8
  0
LAYER
  2
BLACK
 70
     0
 62
     1
  6
CONTINUOUS
  0
LAYER
  2
WHITE
 70
     0
 62
     7
  6
CONTINUOUS
  0
LAYER
  2
RED
 70
     0
 62
     1
  6
CONTINUOUS
  0
LAYER
  2
YELLOW
 70
     0
 62
     2
  6
CONTINUOUS
  0
LAYER
  2
GREEN
 70
     0
 62
     3
  6
CONTINUOUS
  0
LAYER
  2
CYAN
 70
     0
 62
     4
  6
CONTINUOUS
  0
LAYER
  2
BLUE
 70
     0
 62
     5
  6
CONTINUOUS
  0
LAYER
  2
MAGENTA
 70
     0
 62
     6
  6
CONTINUOUS
  0
ENDTAB
  0
TABLE
  2
APPID
 70
     1
  0
APPID
  2
TC_BEND_DATA
 70
     0
  0
ENDTAB
  0
ENDSEC
  0
SECTION
  2
BLOCKS
  0
ENDSEC
  0
SECTION
  2
ENTITIES
  0
LINE
  8
WHITE
 10
20.612500
 20
48.676543
 30
0.000000
 11
21.993750
 21
51.014043
 31
0.000000
  6
CONTINUOUS
  0
LINE
  8
WHITE
 10
21.993750
 20
51.014043
 30
0.000000
 11
26.243750
 21
57.495293
 31
0.000000
  6
CONTINUOUS
  0
LINE
  8
WHITE
 10
26.243750
 20
57.495293
 30
0.000000
 11
26.987500
 21
58.239043
 31
0.000000
  6
CONTINUOUS
  0
LINE
  8
WHITE
 10
26.987500
 20
58.239043
 30
0.000000
 11
27.837500
 21
58.770293
 31
0.000000
  6
CONTINUOUS
  0
LINE
  8
WHITE
 10
27.837500
 20
58.770293
 30
0.000000
 11
29.112500
 21
59.089043
 31
0.000000
  6
CONTINUOUS
  0
LINE
  8
WHITE
 10
29.112500
 20
59.089043
 30
0.000000
 11
30.175000
 21
59.195293
 31
0.000000
  6
CONTINUOUS
  0
LINE
  8
WHITE
 10
30.175000
 20
59.195293
 30
0.000000
 11
31.131250
 21
58.982793
 31
0.000000
  6
CONTINUOUS
  0
LINE
  8
WHITE
 10
31.131250
 20
58.982793
 30
0.000000
 11
33.893750
 21
57.814043
 31
0.000000
  6
CONTINUOUS
  0
LINE
  8
WHITE
 10
33.893750
 20
57.814043
 30
0.000000
 11
34.956250
 21
57.707793
 31
0.000000
  6
CONTINUOUS
  0
LINE
  8
WHITE
 10
34.956250
 20
57.707793
 30
0.000000
 11
35.912500
 21
57.707793
 31
0.000000
  6
CONTINUOUS
  0
LINE
  8
WHITE
 10
35.912500
 20
57.707793
 30
0.000000
 11
36.975000
 21
58.026543
 31
0.000000
  6
CONTINUOUS
  0
LINE
  8
WHITE
 10
36.975000
 20
58.026543
 30
0.000000
 11
39.418750
 21
59.089043
 31
0.000000
  6
CONTINUOUS
  0
LINE
  8
WHITE
 10
39.418750
 20
59.089043
 30
0.000000
 11
40.481250
 21
59.301543
 31
0.000000
  6
CONTINUOUS
  0
LINE
  8
WHITE
 10
40.481250
 20
59.301543
 30
0.000000
 11
41.437500
 21
59.301543
 31
0.000000
  6
CONTINUOUS
  0
LINE
  8
WHITE
 10
41.437500
 20
59.301543
 30
0.000000
 11
43.137500
 21
58.876543
 31
0.000000
  6
CONTINUOUS
  0
LINE
  8
WHITE
 10
43.137500
 20
58.876543
 30
0.000000
 11
44.306250
 21
58.239043
 31
0.000000
  6
CONTINUOUS
  0
LINE
  8
WHITE
 10
44.306250
 20
58.239043
 30
0.000000
 11
45.262500
 21
57.282793
 31
0.000000
  6
CONTINUOUS
  0
LINE
  8
WHITE
 10
45.262500
 20
57.282793
 30
0.000000
 11
46.006250
 21
56.114043
 31
0.000000
  6
CONTINUOUS
  0
LINE
  8
WHITE
 10
46.006250
 20
56.114043
 30
0.000000
 11
46.431250
 21
54.945293
 31
0.000000
  6
CONTINUOUS
  0
LINE
  8
WHITE
 10
46.431250
 20
54.945293
 30
0.000000
 11
46.537500
 21
53.457793
 31
0.000000
  6
CONTINUOUS
  0
LINE
  8
WHITE
 10
46.537500
 20
53.457793
 30
0.000000
 11
46.537500
 21
51.757793
 31
0.000000
  6
CONTINUOUS
  0
LINE
  8
WHITE
 10
46.537500
 20
51.757793
 30
0.000000
 11
46.856250
 21
50.482793
 31
0.000000
  6
CONTINUOUS
  0
LINE
  8
WHITE
 10
46.856250
 20
50.482793
 30
0.000000
 11
47.387500
 21
49.632793
 31
0.000000
  6
CONTINUOUS
  0
LINE
  8
WHITE
 10
47.387500
 20
49.632793
 30
0.000000
 11
48.131250
 21
48.889043
 31
0.000000
  6
CONTINUOUS
  0
LINE
  8
WHITE
 10
48.131250
 20
48.889043
 30
0.000000
 11
49.300000
 21
48.145293
 31
0.000000
  6
CONTINUOUS
  0
LINE
  8
WHITE
 10
49.300000
 20
48.145293
 30
0.000000
 11
50.256250
 21
47.189043
 31
0.000000
  6
CONTINUOUS
  0
LINE
  8
WHITE
 10
50.256250
 20
47.189043
 30
0.000000
 11
50.893750
 21
46.020293
 31
0.000000
  6
CONTINUOUS
  0
LINE
  8
WHITE
 10
50.893750
 20
46.020293
 30
0.000000
 11
51.106250
 21
44.957793
 31
0.000000
  6
CONTINUOUS
  0
LINE
  8
WHITE
 10
51.106250
 20
44.957793
 30
0.000000
 11
51.212500
 21
43.895293
 31
0.000000
  6
CONTINUOUS
  0
LINE
  8
WHITE
 10
51.212500
 20
43.895293
 30
0.000000
 11
50.893750
 21
42.620293
 31
0.000000
  6
CONTINUOUS
  0
LINE
  8
WHITE
 10
50.893750
 20
42.620293
 30
0.000000
 11
50.681250
 21
41.982793
 31
0.000000
  6
CONTINUOUS
  0
LINE
  8
WHITE
 10
50.681250
 20
41.982793
 30
0.000000
 11
49.618750
 21
40.176543
 31
0.000000
  6
CONTINUOUS
  0
LINE
  8
WHITE
 10
49.618750
 20
40.176543
 30
0.000000
 11
49.300000
 21
38.901543
 31
0.000000
  6
CONTINUOUS
  0
LINE
  8
WHITE
 10
49.300000
 20
38.901543
 30
0.000000
 11
49.193750
 21
37.945293
 31
0.000000
  6
CONTINUOUS
  0
LINE
  8
WHITE
 10
49.193750
 20
37.945293
 30
0.000000
 11
49.406250
 21
36.882793
 31
0.000000
  6
CONTINUOUS
  0
LINE
  8
WHITE
 10
49.406250
 20
36.882793
 30
0.000000
 11
49.831250
 21
35.926543
 31
0.000000
  6
CONTINUOUS
  0
LINE
  8
WHITE
 10
49.831250
 20
35.926543
 30
0.000000
 11
50.681250
 21
34.864043
 31
0.000000
  6
CONTINUOUS
  0
LINE
  8
WHITE
 10
50.681250
 20
34.864043
 30
0.000000
 11
52.062500
 21
33.801543
 31
0.000000
  6
CONTINUOUS
  0
LINE
  8
WHITE
 10
52.062500
 20
33.801543
 30
0.000000
 11
57.587500
 21
30.082793
 31
0.000000
  6
CONTINUOUS
  0
LINE
  8
WHITE
 10
57.587500
 20
30.082793
 30
0.000000
 11
58.543750
 21
29.126543
 31
0.000000
  6
CONTINUOUS
  0
LINE
  8
WHITE
 10
58.543750
 20
29.126543
 30
0.000000
 11
59.075000
 21
28.276543
 31
0.000000
  6
CONTINUOUS
  0
LINE
  8
WHITE
 10
59.075000
 20
28.276543
 30
0.000000
 11
59.606250
 21
27.107793
 31
0.000000
  6
CONTINUOUS
  0
LINE
  8
WHITE
 10
59.606250
 20
27.107793
 30
0.000000
 11
59.818750
 21
25.726543
 31
0.000000
  6
CONTINUOUS
  0
LINE
  8
WHITE
 10
59.818750
 20
25.726543
 30
0.000000
 11
59.818750
 21
24.664043
 31
0.000000
  6
CONTINUOUS
  0
LINE
  8
WHITE
 10
59.818750
 20
24.664043
 30
0.000000
 11
59.500000
 21
23.282793
 31
0.000000
  6
CONTINUOUS
  0
LINE
  8
WHITE
 10
59.500000
 20
23.282793
 30
0.000000
 11
58.968750
 21
22.326543
 31
0.000000
  6
CONTINUOUS
  0
LINE
  8
WHITE
 10
58.968750
 20
22.326543
 30
0.000000
 11
58.012500
 21
21.370293
 31
0.000000
  6
CONTINUOUS
  0
LINE
  8
WHITE
 10
58.012500
 20
21.370293
 30
0.000000
 11
56.843750
 21
20.626543
 31
0.000000
  6
CONTINUOUS
  0
LINE
  8
WHITE
 10
56.843750
 20
20.626543
 30
0.000000
 11
55.568750
 21
20.201543
 31
0.000000
  6
CONTINUOUS
  0
LINE
  8
WHITE
 10
55.568750
 20
20.201543
 30
0.000000
 11
53.868750
 21
19.882793
 31
0.000000
  6
CONTINUOUS
  0
LINE
  8
WHITE
 10
53.868750
 20
19.882793
 30
0.000000
 11
52.700000
 21
19.351543
 31
0.000000
  6
CONTINUOUS
  0
LINE
  8
WHITE
 10
52.700000
 20
19.351543
 30
0.000000
 11
51.850000
 21
18.820293
 31
0.000000
  6
CONTINUOUS
  0
LINE
  8
WHITE
 10
51.850000
 20
18.820293
 30
0.000000
 11
50.893750
 21
17.864043
 31
0.000000
  6
CONTINUOUS
  0
LINE
  8
WHITE
 10
50.893750
 20
17.864043
 30
0.000000
 11
50.043750
 21
16.695293
 31
0.000000
  6
CONTINUOUS
  0
LINE
  8
WHITE
 10
50.043750
 20
16.695293
 30
0.000000
 11
49.963168
 21
16.587849
 31
0.000000
  6
CONTINUOUS
  0
ARC
  8
WHITE
 10
49.163168
 20
17.187849
 30
0.000000
 40
1.000000
 50
-122.604593
 51
-36.869898
  6
CONTINUOUS
  0
LINE
  8
WHITE
 10
48.624329
 20
16.345440
 30
0.000000
 11
37.612500
 21
23.389043
 31
0.000000
  6
CONTINUOUS
  0
LINE
  8
WHITE
 10
37.612500
 20
23.389043
 30
0.000000
 11
36.817688
 21
21.998122
 31
0.000000
  6
CONTINUOUS
  0
LINE
  8
WHITE
 10
36.817688
 20
21.998122
 30
0.000000
 11
47.775465
 21
14.989143
 31
0.000000
  6
CONTINUOUS
  0
ARC
  8
WHITE
 10
47.236629
 20
14.146732
 30
0.000000
 40
1.000000
 50
-32.471192
 51
57.395592
  6
CONTINUOUS
  0
LINE
  8
WHITE
 10
48.080291
 20
13.609856
 30
0.000000
 11
47.068750
 21
12.020293
 31
0.000000
  6
CONTINUOUS
  0
LINE
  8
WHITE
 10
47.068750
 20
12.020293
 30
0.000000
 11
46.962500
 21
11.701543
 31
0.000000
  6
CONTINUOUS
  0
LINE
  8
WHITE
 10
46.962500
 20
11.701543
 30
0.000000
 11
46.750000
 21
10.320293
 31
0.000000
  6
CONTINUOUS
  0
LINE
  8
WHITE
 10
46.750000
 20
10.320293
 30
0.000000
 11
47.068750
 21
8.726543
 31
0.000000
  6
CONTINUOUS
  0
LINE
  8
WHITE
 10
47.068750
 20
8.726543
 30
0.000000
 11
47.600000
 21
6.707793
 31
0.000000
  6
CONTINUOUS
  0
LINE
  8
WHITE
 10
47.600000
 20
6.707793
 30
0.000000
 11
47.600000
 21
5.326543
 31
0.000000
  6
CONTINUOUS
  0
LINE
  8
WHITE
 10
47.600000
 20
5.326543
 30
0.000000
 11
47.387500
 21
3.945293
 31
0.000000
  6
CONTINUOUS
  0
ARC
  8
WHITE
 10
41.873063
 20
6.285974
 30
0.000000
 40
5.990643
 50
-123.475403
 51
-22.999488
  6
CONTINUOUS
  0
LINE
  8
WHITE
 10
38.568750
 20
1.289043
 30
0.000000
 11
32.512500
 21
4.795293
 31
0.000000
  6
CONTINUOUS
  0
ARC
  8
WHITE
 10
30.495413
 20
0.014522
 30
0.000000
 40
5.188874
 50
67.124305
 51
145.022843
  6
CONTINUOUS
  0
ARC
  8
WHITE
 10
20.924243
 20
6.228002
 30
0.000000
 40
6.228002
 50
-93.848307
 51
-31.336542
  6
CONTINUOUS
  0
LINE
  8
WHITE
 10
20.506250
 20
0.014043
 30
0.000000
 11
19.231250
 21
0.332793
 31
0.000000
  6
CONTINUOUS
  0
ARC
  8
WHITE
 10
15.884375
 20
-3.598457
 30
0.000000
 40
5.162974
 50
49.590543
 51
130.409457
  6
CONTINUOUS
  0
LINE
  8
WHITE
 10
12.537500
 20
0.332793
 30
0.000000
 11
11.581250
 21
0.120293
 31
0.000000
  6
CONTINUOUS
  0
ARC
  8
WHITE
 10
10.711680
 20
5.342739
 30
0.000000
 40
5.294346
 50
-178.674761
 51
-80.546616
  6
CONTINUOUS
  0
LINE
  8
WHITE
 10
5.418750
 20
5.220293
 30
0.000000
 11
5.206250
 21
7.664043
 31
0.000000
  6
CONTINUOUS
  0
LINE
  8
WHITE
 10
5.206250
 20
7.664043
 30
0.000000
 11
4.781250
 21
8.939043
 31
0.000000
  6
CONTINUOUS
  0
LINE
  8
WHITE
 10
4.781250
 20
8.939043
 30
0.000000
 11
4.250000
 21
9.789043
 31
0.000000
  6
CONTINUOUS
  0
LINE
  8
WHITE
 10
4.250000
 20
9.789043
 30
0.000000
 11
3.187500
 21
10.745293
 31
0.000000
  6
CONTINUOUS
  0
LINE
  8
WHITE
 10
3.187500
 20
10.745293
 30
0.000000
 11
1.593750
 21
12.126543
 31
0.000000
  6
CONTINUOUS
  0
LINE
  8
WHITE
 10
1.593750
 20
12.126543
 30
0.000000
 11
0.956250
 21
12.976543
 31
0.000000
  6
CONTINUOUS
  0
LINE
  8
WHITE
 10
0.956250
 20
12.976543
 30
0.000000
 11
0.531250
 21
14.251543
 31
0.000000
  6
CONTINUOUS
  0
LINE
  8
WHITE
 10
0.531250
 20
14.251543
 30
0.000000
 11
0.318750
 21
15.632793
 31
0.000000
  6
CONTINUOUS
  0
LINE
  8
WHITE
 10
0.318750
 20
15.632793
 30
0.000000
 11
0.425000
 21
16.270293
 31
0.000000
  6
CONTINUOUS
  0
LINE
  8
WHITE
 10
0.425000
 20
16.270293
 30
0.000000
 11
0.637500
 21
17.332793
 31
0.000000
  6
CONTINUOUS
  0
LINE
  8
WHITE
 10
0.637500
 20
17.332793
 30
0.000000
 11
1.062500
 21
18.182793
 31
0.000000
  6
CONTINUOUS
  0
LINE
  8
WHITE
 10
1.062500
 20
18.182793
 30
0.000000
 11
6.481250
 21
26.576543
 31
0.000000
  6
CONTINUOUS
  0
LINE
  8
WHITE
 10
6.481250
 20
26.576543
 30
0.000000
 11
6.966232
 21
27.330959
 31
0.000000
  6
CONTINUOUS
  0
ARC
  8
WHITE
 10
7.807410
 20
26.790201
 30
0.000000
 40
1.000000
 50
57.565348
 51
147.264774
  6
CONTINUOUS
  0
LINE
  8
WHITE
 10
8.343747
 20
27.634205
 30
0.000000
 11
23.997276
 21
17.686889
 31
0.000000
  6
CONTINUOUS
  0
LINE
  8
WHITE
 10
23.997276
 20
17.686889
 30
0.000000
 11
24.862500
 21
19.032793
 31
0.000000
  6
CONTINUOUS
  0
LINE
  8
WHITE
 10
24.862500
 20
19.032793
 30
0.000000
 11
3.293750
 21
32.739043
 31
0.000000
  6
CONTINUOUS
  0
LINE
  8
WHITE
 10
3.293750
 20
32.739043
 30
0.000000
 11
1.593750
 21
34.226543
 31
0.000000
  6
CONTINUOUS
  0
LINE
  8
WHITE
 10
1.593750
 20
34.226543
 30
0.000000
 11
0.956250
 21
35.076543
 31
0.000000
  6
CONTINUOUS
  0
LINE
  8
WHITE
 10
0.956250
 20
35.076543
 30
0.000000
 11
0.425000
 21
35.926543
 31
0.000000
  6
CONTINUOUS
  0
LINE
  8
WHITE
 10
0.425000
 20
35.926543
 30
0.000000
 11
0.000000
 21
38.051543
 31
0.000000
  6
CONTINUOUS
  0
LINE
  8
WHITE
 10
0.000000
 20
38.051543
 30
0.000000
 11
0.106250
 21
39.326543
 31
0.000000
  6
CONTINUOUS
  0
LINE
  8
WHITE
 10
0.106250
 20
39.326543
 30
0.000000
 11
0.425000
 21
40.282793
 31
0.000000
  6
CONTINUOUS
  0
LINE
  8
WHITE
 10
0.425000
 20
40.282793
 30
0.000000
 11
1.912500
 21
42.620293
 31
0.000000
  6
CONTINUOUS
  0
LINE
  8
WHITE
 10
1.912500
 20
42.620293
 30
0.000000
 11
2.075467
 21
42.919066
 31
0.000000
  6
CONTINUOUS
  0
ARC
  8
WHITE
 10
2.953363
 20
42.440214
 30
0.000000
 40
1.000000
 50
57.517137
 51
151.389540
  6
CONTINUOUS
  0
LINE
  8
WHITE
 10
3.490410
 20
43.283766
 30
0.000000
 11
14.127809
 21
36.511468
 31
0.000000
  6
CONTINUOUS
  0
LINE
  8
WHITE
 10
14.127809
 20
36.511468
 30
0.000000
 11
14.981250
 21
37.839043
 31
0.000000
  6
CONTINUOUS
  0
LINE
  8
WHITE
 10
14.981250
 20
37.839043
 30
0.000000
 11
4.325589
 21
44.646826
 31
0.000000
  6
CONTINUOUS
  0
ARC
  8
WHITE
 10
4.863978
 20
45.489522
 30
0.000000
 40
1.000000
 50
149.036243
 51
237.425943
  6
CONTINUOUS
  0
LINE
  8
WHITE
 10
4.006485
 20
46.004018
 30
0.000000
 11
4.781250
 21
47.295293
 31
0.000000
  6
CONTINUOUS
  0
LINE
  8
WHITE
 10
4.781250
 20
47.295293
 30
0.000000
 11
5.631250
 21
48.357793
 31
0.000000
  6
CONTINUOUS
  0
LINE
  8
WHITE
 10
5.631250
 20
48.357793
 30
0.000000
 11
6.268750
 21
48.889043
 31
0.000000
  6
CONTINUOUS
  0
LINE
  8
WHITE
 10
6.268750
 20
48.889043
 30
0.000000
 11
6.693750
 21
49.207793
 31
0.000000
  6
CONTINUOUS
  0
LINE
  8
WHITE
 10
6.693750
 20
49.207793
 30
0.000000
 11
8.181250
 21
49.951543
 31
0.000000
  6
CONTINUOUS
  0
LINE
  8
WHITE
 10
8.181250
 20
49.951543
 30
0.000000
 11
8.818750
 21
50.164043
 31
0.000000
  6
CONTINUOUS
  0
LINE
  8
WHITE
 10
8.818750
 20
50.164043
 30
0.000000
 11
9.456250
 21
50.164043
 31
0.000000
  6
CONTINUOUS
  0
LINE
  8
WHITE
 10
9.456250
 20
50.164043
 30
0.000000
 11
9.881250
 21
50.270293
 31
0.000000
  6
CONTINUOUS
  0
LINE
  8
WHITE
 10
9.881250
 20
50.270293
 30
0.000000
 11
10.943750
 21
50.164043
 31
0.000000
  6
CONTINUOUS
  0
LINE
  8
WHITE
 10
10.943750
 20
50.164043
 30
0.000000
 11
11.687500
 21
50.164043
 31
0.000000
  6
CONTINUOUS
  0
LINE
  8
WHITE
 10
11.687500
 20
50.164043
 30
0.000000
 11
12.750000
 21
49.739043
 31
0.000000
  6
CONTINUOUS
  0
LINE
  8
WHITE
 10
12.750000
 20
49.739043
 30
0.000000
 11
35.062500
 21
35.501543
 31
0.000000
  6
CONTINUOUS
  0
LINE
  8
WHITE
 10
35.062500
 20
35.501543
 30
0.000000
 11
35.973880
 21
36.817980
 31
0.000000
  6
CONTINUOUS
  0
LINE
  8
WHITE
 10
35.973880
 20
36.817980
 30
0.000000
 11
20.533136
 21
46.670645
 31
0.000000
  6
CONTINUOUS
  0
ARC
  8
WHITE
 10
21.071050
 20
47.513644
 30
0.000000
 40
1.000000
 50
148.392498
 51
237.458246
  6
CONTINUOUS
  0
LINE
  8
WHITE
 10
20.219392
 20
48.037742
 30
0.000000
 11
20.612500
 21
48.676543
 31
0.000000
  6
CONTINUOUS
  0
ENDSEC
  0
EOF
