  0
SECTION
  2
HEADER
  9
$ACADVER
  1
AC1009
  9
$LIMMIN
 10
0.000000
 20
0.000000
  9
$LIMMAX
 10
53.220938
 20
42.318871
  0
ENDSEC
  0
SECTION
  2
TABLES
  0
TABLE
  2
LTYPE
 70
     4
  0
LTYPE
  2
CONTINUOUS
 70
     0
  3
Solid line
 72
     65
 73
     0
 40
0.000000
  0
LTYPE
  2
HIDDEN
 70
     0
  3
 _ _ _ _ _ _ _ _ _ _ _
 72
     65
 73
     2
 40
0.375000
 49
0.250000
 49
-0.125000
  0
LTYPE
  2
DASHED
 70
     0
  3
 ___ ___ ___ ___ ___ ___ ___ 
 72
     65
 73
     2
 40
0.750000
 49
0.500000
 49
-0.250000
  0
LTYPE
  2
CENTER
 70
     0
  3
___ _ ___ _ ___ _ ___
 72
     65
 73
     4
 40
2.000000
 49
1.250000
 49
-0.250000
 49
0.250000
 49
-0.250000
  0
LTYPE
  2
BORDER
 70
     0
  3
___ ___ . ___ ___ . ___ ___
 72
     65
 73
     6
 40
1.750000
 49
0.500000
 49
-0.250000
 49
0.500000
 49
-0.250000
 49
0.000000
 49
-0.250000
  0
LTYPE
  2
DOT
 70
     0
  3
.................
 72
     65
 73
     2
 40
0.250000
 49
0.000000
 49
-0.250000
  0
LTYPE
  2
DASHDOT
 70
     0
  3
__ . __ . __ . __
 72
     65
 73
     4
 40
1.000000
 49
0.500000
 49
-0.250000
 49
0.000000
 49
-0.250000
  0
LTYPE
  2
DIVIDE
 70
     0
  3
___ .. ___ .. ___ .. ___
 72
     65
 73
     6
 40
1.250000
 49
0.500000
 49
-0.250000
 49
0.000000
 49
-0.250000
 49
0.000000
 49
-0.250000
  0
ENDTAB
  0
TABLE
  2
LAYER
 70
     8
  0
LAYER
  2
BLACK
 70
     0
 62
     1
  6
CONTINUOUS
  0
LAYER
  2
WHITE
 70
     0
 62
     7
  6
CONTINUOUS
  0
LAYER
  2
RED
 70
     0
 62
     1
  6
CONTINUOUS
  0
LAYER
  2
YELLOW
 70
     0
 62
     2
  6
CONTINUOUS
  0
LAYER
  2
GREEN
 70
     0
 62
     3
  6
CONTINUOUS
  0
LAYER
  2
CYAN
 70
     0
 62
     4
  6
CONTINUOUS
  0
LAYER
  2
BLUE
 70
     0
 62
     5
  6
CONTINUOUS
  0
LAYER
  2
MAGENTA
 70
     0
 62
     6
  6
CONTINUOUS
  0
ENDTAB
  0
TABLE
  2
APPID
 70
     1
  0
APPID
  2
TC_BEND_DATA
 70
     0
  0
ENDTAB
  0
ENDSEC
  0
SECTION
  2
BLOCKS
  0
ENDSEC
  0
SECTION
  2
ENTITIES
  0
LINE
  8
WHITE
 10
50.139688
 20
1.700000
 30
0.000000
 11
49.077188
 21
0.850000
 31
0.000000
  6
CONTINUOUS
  0
LINE
  8
WHITE
 10
49.077188
 20
0.850000
 30
0.000000
 11
47.908438
 21
0.212500
 31
0.000000
  6
CONTINUOUS
  0
LINE
  8
WHITE
 10
47.908438
 20
0.212500
 30
0.000000
 11
46.527188
 21
0.000000
 31
0.000000
  6
CONTINUOUS
  0
LINE
  8
WHITE
 10
46.527188
 20
0.000000
 30
0.000000
 11
44.933438
 21
0.000000
 31
0.000000
  6
CONTINUOUS
  0
LINE
  8
WHITE
 10
44.933438
 20
0.000000
 30
0.000000
 11
42.489688
 21
0.425000
 31
0.000000
  6
CONTINUOUS
  0
LINE
  8
WHITE
 10
42.489688
 20
0.425000
 30
0.000000
 11
38.664688
 21
1.381250
 31
0.000000
  6
CONTINUOUS
  0
LINE
  8
WHITE
 10
38.664688
 20
1.381250
 30
0.000000
 11
33.458438
 21
2.868750
 31
0.000000
  6
CONTINUOUS
  0
LINE
  8
WHITE
 10
33.458438
 20
2.868750
 30
0.000000
 11
26.658438
 21
5.312500
 31
0.000000
  6
CONTINUOUS
  0
LINE
  8
WHITE
 10
26.658438
 20
5.312500
 30
0.000000
 11
20.389688
 21
7.862500
 31
0.000000
  6
CONTINUOUS
  0
LINE
  8
WHITE
 10
20.389688
 20
7.862500
 30
0.000000
 11
15.927188
 21
9.881250
 31
0.000000
  6
CONTINUOUS
  0
LINE
  8
WHITE
 10
15.927188
 20
9.881250
 30
0.000000
 11
11.783438
 21
12.006250
 31
0.000000
  6
CONTINUOUS
  0
LINE
  8
WHITE
 10
11.783438
 20
12.006250
 30
0.000000
 11
6.789688
 21
14.662500
 31
0.000000
  6
CONTINUOUS
  0
ARC
  8
WHITE
 10
15.042698
 20
28.192236
 30
0.000000
 40
15.848215
 50
-147.411026
 51
-121.382792
  6
CONTINUOUS
  0
ARC
  8
WHITE
 10
12.203912
 20
25.851940
 30
0.000000
 40
12.203912
 50
165.020873
 51
210.509459
  6
CONTINUOUS
  0
LINE
  8
WHITE
 10
0.414688
 20
29.006250
 30
0.000000
 11
1.306494
 21
32.087033
 31
0.000000
  6
CONTINUOUS
  0
ARC
  8
WHITE
 10
2.267058
 20
31.808974
 30
0.000000
 40
1.000000
 50
71.485141
 51
163.855661
  6
CONTINUOUS
  0
LINE
  8
WHITE
 10
2.584609
 20
32.757216
 30
0.000000
 11
24.346223
 21
25.469605
 31
0.000000
  6
CONTINUOUS
  0
LINE
  8
WHITE
 10
24.346223
 20
25.469605
 30
0.000000
 11
24.852188
 21
26.987500
 31
0.000000
  6
CONTINUOUS
  0
LINE
  8
WHITE
 10
24.852188
 20
26.987500
 30
0.000000
 11
2.942475
 21
34.324706
 31
0.000000
  6
CONTINUOUS
  0
ARC
  8
WHITE
 10
3.260026
 20
35.272948
 30
0.000000
 40
1.000000
 50
162.349876
 51
251.485141
  6
CONTINUOUS
  0
LINE
  8
WHITE
 10
2.307100
 20
35.576151
 30
0.000000
 11
2.752188
 21
36.975000
 31
0.000000
  6
CONTINUOUS
  0
ARC
  8
WHITE
 10
8.431910
 20
34.844336
 30
0.000000
 40
6.066216
 50
31.761523
 51
159.437156
  6
CONTINUOUS
  0
ARC
  8
WHITE
 10
16.402016
 20
39.681444
 30
0.000000
 40
3.257566
 50
-149.691611
 51
-127.041310
  6
CONTINUOUS
  0
ARC
  8
WHITE
 10
18.981467
 20
43.448894
 30
0.000000
 40
7.821422
 50
-125.498702
 51
-23.991061
  6
CONTINUOUS
  0
ARC
  8
WHITE
 10
29.059417
 20
38.841164
 30
0.000000
 40
3.261283
 50
120.540836
 51
154.040384
  6
CONTINUOUS
  0
ARC
  8
WHITE
 10
29.697865
 20
38.044863
 30
0.000000
 40
4.274008
 50
70.551466
 51
122.488138
  6
CONTINUOUS
  0
LINE
  8
WHITE
 10
31.120938
 20
42.075000
 30
0.000000
 11
32.820938
 21
41.543750
 31
0.000000
  6
CONTINUOUS
  0
LINE
  8
WHITE
 10
32.820938
 20
41.543750
 30
0.000000
 11
33.883438
 21
41.118750
 31
0.000000
  6
CONTINUOUS
  0
LINE
  8
WHITE
 10
33.883438
 20
41.118750
 30
0.000000
 11
31.227188
 21
32.937500
 31
0.000000
  6
CONTINUOUS
  0
LINE
  8
WHITE
 10
31.227188
 20
32.937500
 30
0.000000
 11
32.820938
 21
32.406250
 31
0.000000
  6
CONTINUOUS
  0
LINE
  8
WHITE
 10
32.820938
 20
32.406250
 30
0.000000
 11
35.583438
 21
40.587500
 31
0.000000
  6
CONTINUOUS
  0
LINE
  8
WHITE
 10
35.583438
 20
40.587500
 30
0.000000
 11
38.239688
 21
39.737500
 31
0.000000
  6
CONTINUOUS
  0
LINE
  8
WHITE
 10
38.239688
 20
39.737500
 30
0.000000
 11
39.089688
 21
39.312500
 31
0.000000
  6
CONTINUOUS
  0
LINE
  8
WHITE
 10
39.089688
 20
39.312500
 30
0.000000
 11
39.939688
 21
38.568750
 31
0.000000
  6
CONTINUOUS
  0
LINE
  8
WHITE
 10
39.939688
 20
38.568750
 30
0.000000
 11
40.789688
 21
37.506250
 31
0.000000
  6
CONTINUOUS
  0
LINE
  8
WHITE
 10
40.789688
 20
37.506250
 30
0.000000
 11
41.214688
 21
36.231250
 31
0.000000
  6
CONTINUOUS
  0
LINE
  8
WHITE
 10
41.214688
 20
36.231250
 30
0.000000
 11
41.427188
 21
35.168750
 31
0.000000
  6
CONTINUOUS
  0
LINE
  8
WHITE
 10
41.427188
 20
35.168750
 30
0.000000
 11
41.320938
 21
34.106250
 31
0.000000
  6
CONTINUOUS
  0
LINE
  8
WHITE
 10
41.320938
 20
34.106250
 30
0.000000
 11
41.108438
 21
33.150000
 31
0.000000
  6
CONTINUOUS
  0
LINE
  8
WHITE
 10
41.108438
 20
33.150000
 30
0.000000
 11
40.364688
 21
31.237500
 31
0.000000
  6
CONTINUOUS
  0
LINE
  8
WHITE
 10
40.364688
 20
31.237500
 30
0.000000
 11
40.258438
 21
30.600000
 31
0.000000
  6
CONTINUOUS
  0
LINE
  8
WHITE
 10
40.258438
 20
30.600000
 30
0.000000
 11
40.258438
 21
29.218750
 31
0.000000
  6
CONTINUOUS
  0
LINE
  8
WHITE
 10
40.258438
 20
29.218750
 30
0.000000
 11
40.577188
 21
28.262500
 31
0.000000
  6
CONTINUOUS
  0
LINE
  8
WHITE
 10
40.577188
 20
28.262500
 30
0.000000
 11
41.108438
 21
27.306250
 31
0.000000
  6
CONTINUOUS
  0
LINE
  8
WHITE
 10
41.108438
 20
27.306250
 30
0.000000
 11
42.383438
 21
26.243750
 31
0.000000
  6
CONTINUOUS
  0
LINE
  8
WHITE
 10
42.383438
 20
26.243750
 30
0.000000
 11
43.339688
 21
25.818750
 31
0.000000
  6
CONTINUOUS
  0
LINE
  8
WHITE
 10
43.339688
 20
25.818750
 30
0.000000
 11
44.295938
 21
25.500000
 31
0.000000
  6
CONTINUOUS
  0
LINE
  8
WHITE
 10
44.295938
 20
25.500000
 30
0.000000
 11
45.677188
 21
25.606250
 31
0.000000
  6
CONTINUOUS
  0
LINE
  8
WHITE
 10
45.677188
 20
25.606250
 30
0.000000
 11
48.652188
 21
26.350000
 31
0.000000
  6
CONTINUOUS
  0
LINE
  8
WHITE
 10
48.652188
 20
26.350000
 30
0.000000
 11
49.714688
 21
26.350000
 31
0.000000
  6
CONTINUOUS
  0
LINE
  8
WHITE
 10
49.714688
 20
26.350000
 30
0.000000
 11
50.670938
 21
26.137500
 31
0.000000
  6
CONTINUOUS
  0
LINE
  8
WHITE
 10
50.670938
 20
26.137500
 30
0.000000
 11
51.627188
 21
25.712500
 31
0.000000
  6
CONTINUOUS
  0
LINE
  8
WHITE
 10
51.627188
 20
25.712500
 30
0.000000
 11
52.370938
 21
24.862500
 31
0.000000
  6
CONTINUOUS
  0
LINE
  8
WHITE
 10
52.370938
 20
24.862500
 30
0.000000
 11
52.795938
 21
24.012500
 31
0.000000
  6
CONTINUOUS
  0
LINE
  8
WHITE
 10
52.795938
 20
24.012500
 30
0.000000
 11
53.114688
 21
22.950000
 31
0.000000
  6
CONTINUOUS
  0
LINE
  8
WHITE
 10
53.114688
 20
22.950000
 30
0.000000
 11
53.220938
 21
22.312500
 31
0.000000
  6
CONTINUOUS
  0
LINE
  8
WHITE
 10
53.220938
 20
22.312500
 30
0.000000
 11
53.008438
 21
21.356250
 31
0.000000
  6
CONTINUOUS
  0
LINE
  8
WHITE
 10
53.008438
 20
21.356250
 30
0.000000
 11
52.689688
 21
20.400000
 31
0.000000
  6
CONTINUOUS
  0
LINE
  8
WHITE
 10
52.689688
 20
20.400000
 30
0.000000
 11
51.202188
 21
18.593750
 31
0.000000
  6
CONTINUOUS
  0
LINE
  8
WHITE
 10
51.202188
 20
18.593750
 30
0.000000
 11
50.352188
 21
17.106250
 31
0.000000
  6
CONTINUOUS
  0
LINE
  8
WHITE
 10
50.352188
 20
17.106250
 30
0.000000
 11
49.820938
 21
15.831250
 31
0.000000
  6
CONTINUOUS
  0
LINE
  8
WHITE
 10
49.820938
 20
15.831250
 30
0.000000
 11
49.608438
 21
14.450000
 31
0.000000
  6
CONTINUOUS
  0
LINE
  8
WHITE
 10
49.608438
 20
14.450000
 30
0.000000
 11
49.502188
 21
13.068750
 31
0.000000
  6
CONTINUOUS
  0
LINE
  8
WHITE
 10
49.502188
 20
13.068750
 30
0.000000
 11
49.608438
 21
11.475000
 31
0.000000
  6
CONTINUOUS
  0
LINE
  8
WHITE
 10
49.608438
 20
11.475000
 30
0.000000
 11
50.139688
 21
9.775000
 31
0.000000
  6
CONTINUOUS
  0
LINE
  8
WHITE
 10
50.139688
 20
9.775000
 30
0.000000
 11
51.202188
 21
7.225000
 31
0.000000
  6
CONTINUOUS
  0
LINE
  8
WHITE
 10
51.202188
 20
7.225000
 30
0.000000
 11
51.520938
 21
6.268750
 31
0.000000
  6
CONTINUOUS
  0
LINE
  8
WHITE
 10
51.520938
 20
6.268750
 30
0.000000
 11
51.520938
 21
4.887500
 31
0.000000
  6
CONTINUOUS
  0
LINE
  8
WHITE
 10
51.520938
 20
4.887500
 30
0.000000
 11
51.308438
 21
3.825000
 31
0.000000
  6
CONTINUOUS
  0
LINE
  8
WHITE
 10
51.308438
 20
3.825000
 30
0.000000
 11
50.777188
 21
2.550000
 31
0.000000
  6
CONTINUOUS
  0
LINE
  8
WHITE
 10
50.777188
 20
2.550000
 30
0.000000
 11
50.139688
 21
1.700000
 31
0.000000
  6
CONTINUOUS
  0
ENDSEC
  0
EOF
