  0
SECTION
  2
HEADER
  9
$ACADVER
  1
AC1009
  9
$LIMMIN
 10
-0.000000
 20
0.000000
  9
$LIMMAX
 10
51.414631
 20
48.862837
  0
ENDSEC
  0
SECTION
  2
TABLES
  0
TABLE
  2
LTYPE
 70
     4
  0
LTYPE
  2
CONTINUOUS
 70
     0
  3
Solid line
 72
     65
 73
     0
 40
0.000000
  0
LTYPE
  2
HIDDEN
 70
     0
  3
 _ _ _ _ _ _ _ _ _ _ _
 72
     65
 73
     2
 40
0.375000
 49
0.250000
 49
-0.125000
  0
LTYPE
  2
DASHED
 70
     0
  3
 ___ ___ ___ ___ ___ ___ ___ 
 72
     65
 73
     2
 40
0.750000
 49
0.500000
 49
-0.250000
  0
LTYPE
  2
CENTER
 70
     0
  3
___ _ ___ _ ___ _ ___
 72
     65
 73
     4
 40
2.000000
 49
1.250000
 49
-0.250000
 49
0.250000
 49
-0.250000
  0
LTYPE
  2
BORDER
 70
     0
  3
___ ___ . ___ ___ . ___ ___
 72
     65
 73
     6
 40
1.750000
 49
0.500000
 49
-0.250000
 49
0.500000
 49
-0.250000
 49
0.000000
 49
-0.250000
  0
LTYPE
  2
DOT
 70
     0
  3
.................
 72
     65
 73
     2
 40
0.250000
 49
0.000000
 49
-0.250000
  0
LTYPE
  2
DASHDOT
 70
     0
  3
__ . __ . __ . __
 72
     65
 73
     4
 40
1.000000
 49
0.500000
 49
-0.250000
 49
0.000000
 49
-0.250000
  0
LTYPE
  2
DIVIDE
 70
     0
  3
___ .. ___ .. ___ .. ___
 72
     65
 73
     6
 40
1.250000
 49
0.500000
 49
-0.250000
 49
0.000000
 49
-0.250000
 49
0.000000
 49
-0.250000
  0
ENDTAB
  0
TABLE
  2
LAYER
 70
     8
  0
LAYER
  2
BLACK
 70
     0
 62
     1
  6
CONTINUOUS
  0
LAYER
  2
WHITE
 70
     0
 62
     7
  6
CONTINUOUS
  0
LAYER
  2
RED
 70
     0
 62
     1
  6
CONTINUOUS
  0
LAYER
  2
YELLOW
 70
     0
 62
     2
  6
CONTINUOUS
  0
LAYER
  2
GREEN
 70
     0
 62
     3
  6
CONTINUOUS
  0
LAYER
  2
CYAN
 70
     0
 62
     4
  6
CONTINUOUS
  0
LAYER
  2
BLUE
 70
     0
 62
     5
  6
CONTINUOUS
  0
LAYER
  2
MAGENTA
 70
     0
 62
     6
  6
CONTINUOUS
  0
ENDTAB
  0
TABLE
  2
APPID
 70
     1
  0
APPID
  2
TC_BEND_DATA
 70
     0
  0
ENDTAB
  0
ENDSEC
  0
SECTION
  2
BLOCKS
  0
ENDSEC
  0
SECTION
  2
ENTITIES
  0
LINE
  8
WHITE
 10
34.414631
 20
44.625000
 30
0.000000
 11
35.902131
 21
43.668750
 31
0.000000
  6
CONTINUOUS
  0
LINE
  8
WHITE
 10
35.902131
 20
43.668750
 30
0.000000
 11
36.092544
 21
43.554503
 31
0.000000
  6
CONTINUOUS
  0
ARC
  8
WHITE
 10
35.578048
 20
42.697010
 30
0.000000
 40
1.000000
 50
-31.930682
 51
59.036243
  6
CONTINUOUS
  0
LINE
  8
WHITE
 10
36.426737
 20
42.168117
 30
0.000000
 11
32.395881
 21
35.700000
 31
0.000000
  6
CONTINUOUS
  0
LINE
  8
WHITE
 10
32.395881
 20
35.700000
 30
0.000000
 11
33.758556
 21
34.861431
 31
0.000000
  6
CONTINUOUS
  0
LINE
  8
WHITE
 10
33.758556
 20
34.861431
 30
0.000000
 11
37.821723
 21
41.344870
 31
0.000000
  6
CONTINUOUS
  0
ARC
  8
WHITE
 10
38.669073
 20
40.813836
 30
0.000000
 40
1.000000
 50
58.671307
 51
147.924660
  6
CONTINUOUS
  0
LINE
  8
WHITE
 10
39.189020
 20
41.668035
 30
0.000000
 11
40.789631
 21
40.693750
 31
0.000000
  6
CONTINUOUS
  0
LINE
  8
WHITE
 10
40.789631
 20
40.693750
 30
0.000000
 11
41.533381
 21
40.056250
 31
0.000000
  6
CONTINUOUS
  0
LINE
  8
WHITE
 10
41.533381
 20
40.056250
 30
0.000000
 11
42.170881
 21
39.206250
 31
0.000000
  6
CONTINUOUS
  0
LINE
  8
WHITE
 10
42.170881
 20
39.206250
 30
0.000000
 11
42.702131
 21
37.931250
 31
0.000000
  6
CONTINUOUS
  0
LINE
  8
WHITE
 10
42.702131
 20
37.931250
 30
0.000000
 11
42.914631
 21
36.550000
 31
0.000000
  6
CONTINUOUS
  0
LINE
  8
WHITE
 10
42.914631
 20
36.550000
 30
0.000000
 11
42.808381
 21
35.487500
 31
0.000000
  6
CONTINUOUS
  0
LINE
  8
WHITE
 10
42.808381
 20
35.487500
 30
0.000000
 11
42.489631
 21
34.531250
 31
0.000000
  6
CONTINUOUS
  0
LINE
  8
WHITE
 10
42.489631
 20
34.531250
 30
0.000000
 11
42.064631
 21
33.575000
 31
0.000000
  6
CONTINUOUS
  0
LINE
  8
WHITE
 10
42.064631
 20
33.575000
 30
0.000000
 11
40.895881
 21
31.981250
 31
0.000000
  6
CONTINUOUS
  0
LINE
  8
WHITE
 10
40.895881
 20
31.981250
 30
0.000000
 11
40.577131
 21
31.237500
 31
0.000000
  6
CONTINUOUS
  0
LINE
  8
WHITE
 10
40.577131
 20
31.237500
 30
0.000000
 11
40.364631
 21
29.962500
 31
0.000000
  6
CONTINUOUS
  0
LINE
  8
WHITE
 10
40.364631
 20
29.962500
 30
0.000000
 11
40.364631
 21
28.900000
 31
0.000000
  6
CONTINUOUS
  0
LINE
  8
WHITE
 10
40.364631
 20
28.900000
 30
0.000000
 11
40.789631
 21
27.943750
 31
0.000000
  6
CONTINUOUS
  0
LINE
  8
WHITE
 10
40.789631
 20
27.943750
 30
0.000000
 11
41.745881
 21
26.562500
 31
0.000000
  6
CONTINUOUS
  0
LINE
  8
WHITE
 10
41.745881
 20
26.562500
 30
0.000000
 11
42.489631
 21
25.925000
 31
0.000000
  6
CONTINUOUS
  0
LINE
  8
WHITE
 10
42.489631
 20
25.925000
 30
0.000000
 11
43.445881
 21
25.500000
 31
0.000000
  6
CONTINUOUS
  0
LINE
  8
WHITE
 10
43.445881
 20
25.500000
 30
0.000000
 11
44.720881
 21
25.181250
 31
0.000000
  6
CONTINUOUS
  0
LINE
  8
WHITE
 10
44.720881
 20
25.181250
 30
0.000000
 11
47.802131
 21
25.287500
 31
0.000000
  6
CONTINUOUS
  0
LINE
  8
WHITE
 10
47.802131
 20
25.287500
 30
0.000000
 11
48.864631
 21
25.075000
 31
0.000000
  6
CONTINUOUS
  0
LINE
  8
WHITE
 10
48.864631
 20
25.075000
 30
0.000000
 11
49.820881
 21
24.543750
 31
0.000000
  6
CONTINUOUS
  0
LINE
  8
WHITE
 10
49.820881
 20
24.543750
 30
0.000000
 11
50.564631
 21
23.906250
 31
0.000000
  6
CONTINUOUS
  0
LINE
  8
WHITE
 10
50.564631
 20
23.906250
 30
0.000000
 11
51.095881
 21
22.950000
 31
0.000000
  6
CONTINUOUS
  0
LINE
  8
WHITE
 10
51.095881
 20
22.950000
 30
0.000000
 11
51.308381
 21
21.993750
 31
0.000000
  6
CONTINUOUS
  0
LINE
  8
WHITE
 10
51.308381
 20
21.993750
 30
0.000000
 11
51.414631
 21
20.931250
 31
0.000000
  6
CONTINUOUS
  0
LINE
  8
WHITE
 10
51.414631
 20
20.931250
 30
0.000000
 11
51.308381
 21
20.293750
 31
0.000000
  6
CONTINUOUS
  0
LINE
  8
WHITE
 10
51.308381
 20
20.293750
 30
0.000000
 11
50.883381
 21
19.337500
 31
0.000000
  6
CONTINUOUS
  0
LINE
  8
WHITE
 10
50.883381
 20
19.337500
 30
0.000000
 11
50.352131
 21
18.487500
 31
0.000000
  6
CONTINUOUS
  0
LINE
  8
WHITE
 10
50.352131
 20
18.487500
 30
0.000000
 11
48.439631
 21
17.106250
 31
0.000000
  6
CONTINUOUS
  0
LINE
  8
WHITE
 10
48.439631
 20
17.106250
 30
0.000000
 11
47.377131
 21
15.831250
 31
0.000000
  6
CONTINUOUS
  0
LINE
  8
WHITE
 10
47.377131
 20
15.831250
 30
0.000000
 11
46.527131
 21
14.768750
 31
0.000000
  6
CONTINUOUS
  0
LINE
  8
WHITE
 10
46.527131
 20
14.768750
 30
0.000000
 11
45.995881
 21
13.493750
 31
0.000000
  6
CONTINUOUS
  0
LINE
  8
WHITE
 10
45.995881
 20
13.493750
 30
0.000000
 11
45.570881
 21
12.218750
 31
0.000000
  6
CONTINUOUS
  0
LINE
  8
WHITE
 10
45.570881
 20
12.218750
 30
0.000000
 11
45.358381
 21
10.518750
 31
0.000000
  6
CONTINUOUS
  0
LINE
  8
WHITE
 10
45.358381
 20
10.518750
 30
0.000000
 11
45.358381
 21
8.818750
 31
0.000000
  6
CONTINUOUS
  0
LINE
  8
WHITE
 10
45.358381
 20
8.818750
 30
0.000000
 11
45.889631
 21
6.056250
 31
0.000000
  6
CONTINUOUS
  0
LINE
  8
WHITE
 10
45.889631
 20
6.056250
 30
0.000000
 11
45.889631
 21
4.993750
 31
0.000000
  6
CONTINUOUS
  0
LINE
  8
WHITE
 10
45.889631
 20
4.993750
 30
0.000000
 11
45.570881
 21
3.718750
 31
0.000000
  6
CONTINUOUS
  0
LINE
  8
WHITE
 10
45.570881
 20
3.718750
 30
0.000000
 11
45.145881
 21
2.762500
 31
0.000000
  6
CONTINUOUS
  0
LINE
  8
WHITE
 10
45.145881
 20
2.762500
 30
0.000000
 11
44.402131
 21
1.700000
 31
0.000000
  6
CONTINUOUS
  0
LINE
  8
WHITE
 10
44.402131
 20
1.700000
 30
0.000000
 11
43.552131
 21
0.956250
 31
0.000000
  6
CONTINUOUS
  0
LINE
  8
WHITE
 10
43.552131
 20
0.956250
 30
0.000000
 11
42.383381
 21
0.318750
 31
0.000000
  6
CONTINUOUS
  0
LINE
  8
WHITE
 10
42.383381
 20
0.318750
 30
0.000000
 11
41.002131
 21
0.000000
 31
0.000000
  6
CONTINUOUS
  0
LINE
  8
WHITE
 10
41.002131
 20
0.000000
 30
0.000000
 11
39.620881
 21
0.106250
 31
0.000000
  6
CONTINUOUS
  0
LINE
  8
WHITE
 10
39.620881
 20
0.106250
 30
0.000000
 11
38.027131
 21
0.425000
 31
0.000000
  6
CONTINUOUS
  0
LINE
  8
WHITE
 10
38.027131
 20
0.425000
 30
0.000000
 11
35.795881
 21
1.487500
 31
0.000000
  6
CONTINUOUS
  0
LINE
  8
WHITE
 10
35.795881
 20
1.487500
 30
0.000000
 11
34.202131
 21
2.231250
 31
0.000000
  6
CONTINUOUS
  0
LINE
  8
WHITE
 10
34.202131
 20
2.231250
 30
0.000000
 11
32.289631
 21
3.187500
 31
0.000000
  6
CONTINUOUS
  0
LINE
  8
WHITE
 10
32.289631
 20
3.187500
 30
0.000000
 11
27.614631
 21
5.950000
 31
0.000000
  6
CONTINUOUS
  0
LINE
  8
WHITE
 10
27.614631
 20
5.950000
 30
0.000000
 11
21.558381
 21
9.881250
 31
0.000000
  6
CONTINUOUS
  0
LINE
  8
WHITE
 10
21.558381
 20
9.881250
 30
0.000000
 11
16.033381
 21
13.812500
 31
0.000000
  6
CONTINUOUS
  0
LINE
  8
WHITE
 10
16.033381
 20
13.812500
 30
0.000000
 11
12.102131
 21
16.893750
 31
0.000000
  6
CONTINUOUS
  0
LINE
  8
WHITE
 10
12.102131
 20
16.893750
 30
0.000000
 11
8.595881
 21
19.868750
 31
0.000000
  6
CONTINUOUS
  0
LINE
  8
WHITE
 10
8.595881
 20
19.868750
 30
0.000000
 11
4.452131
 21
23.587500
 31
0.000000
  6
CONTINUOUS
  0
ARC
  8
WHITE
 10
15.452757
 20
35.032314
 30
0.000000
 40
15.874430
 50
-160.156619
 51
-133.866282
  6
CONTINUOUS
  0
ARC
  8
WHITE
 10
12.210642
 20
33.172105
 30
0.000000
 40
12.210642
 50
151.504361
 51
196.795620
  6
CONTINUOUS
  0
LINE
  8
WHITE
 10
1.479277
 20
38.997703
 30
0.000000
 11
3.002143
 21
41.802983
 31
0.000000
  6
CONTINUOUS
  0
ARC
  8
WHITE
 10
3.880997
 20
41.325891
 30
0.000000
 40
1.000000
 50
58.342834
 51
151.504361
  6
CONTINUOUS
  0
LINE
  8
WHITE
 10
4.405832
 20
42.177094
 30
0.000000
 11
23.986766
 21
30.103876
 31
0.000000
  6
CONTINUOUS
  0
LINE
  8
WHITE
 10
23.986766
 20
30.103876
 30
0.000000
 11
24.852131
 21
31.450000
 31
0.000000
  6
CONTINUOUS
  0
LINE
  8
WHITE
 10
24.852131
 20
31.450000
 30
0.000000
 11
5.217635
 21
43.556244
 31
0.000000
  6
CONTINUOUS
  0
ARC
  8
WHITE
 10
5.742471
 20
44.407447
 30
0.000000
 40
1.000000
 50
146.976132
 51
238.342834
  6
CONTINUOUS
  0
LINE
  8
WHITE
 10
4.904027
 20
44.952436
 30
0.000000
 11
5.727131
 21
46.218750
 31
0.000000
  6
CONTINUOUS
  0
ARC
  8
WHITE
 10
10.724494
 20
42.818249
 30
0.000000
 40
6.044587
 50
18.450280
 51
145.766315
  6
CONTINUOUS
  0
ARC
  8
WHITE
 10
19.386506
 20
45.765625
 30
0.000000
 40
3.105455
 50
-160.543974
 51
-137.528513
  6
CONTINUOUS
  0
ARC
  8
WHITE
 10
23.022058
 20
48.770919
 30
0.000000
 40
7.819955
 50
-139.273042
 51
-88.492564
  6
CONTINUOUS
  0
LINE
  8
WHITE
 10
23.227775
 20
40.953670
 30
0.000000
 11
23.822214
 21
40.992009
 31
0.000000
  6
CONTINUOUS
  0
ARC
  8
WHITE
 10
23.022058
 20
48.770919
 30
0.000000
 40
7.819955
 50
-84.127082
 51
-37.712087
  6
CONTINUOUS
  0
ARC
  8
WHITE
 10
31.682283
 20
42.096537
 30
0.000000
 40
3.113829
 50
108.468367
 51
142.606988
  6
CONTINUOUS
  0
ARC
  8
WHITE
 10
32.117585
 20
41.007877
 30
0.000000
 40
4.284857
 50
57.582500
 51
109.377896
  6
CONTINUOUS
  0
ENDSEC
  0
EOF
