  0
SECTION
  2
HEADER
  9
$ACADVER
  1
AC1009
  9
$LIMMIN
 10
0.000000
 20
0.000000
  9
$LIMMAX
 10
142.375000
 20
51.045491
  0
ENDSEC
  0
SECTION
  2
TABLES
  0
TABLE
  2
LTYPE
 70
     4
  0
LTYPE
  2
CONTINUOUS
 70
     0
  3
Solid line
 72
     65
 73
     0
 40
0.000000
  0
LTYPE
  2
HIDDEN
 70
     0
  3
 _ _ _ _ _ _ _ _ _ _ _
 72
     65
 73
     2
 40
0.375000
 49
0.250000
 49
-0.125000
  0
LTYPE
  2
DASHED
 70
     0
  3
 ___ ___ ___ ___ ___ ___ ___ 
 72
     65
 73
     2
 40
0.750000
 49
0.500000
 49
-0.250000
  0
LTYPE
  2
CENTER
 70
     0
  3
___ _ ___ _ ___ _ ___
 72
     65
 73
     4
 40
2.000000
 49
1.250000
 49
-0.250000
 49
0.250000
 49
-0.250000
  0
LTYPE
  2
BORDER
 70
     0
  3
___ ___ . ___ ___ . ___ ___
 72
     65
 73
     6
 40
1.750000
 49
0.500000
 49
-0.250000
 49
0.500000
 49
-0.250000
 49
0.000000
 49
-0.250000
  0
LTYPE
  2
DOT
 70
     0
  3
.................
 72
     65
 73
     2
 40
0.250000
 49
0.000000
 49
-0.250000
  0
LTYPE
  2
DASHDOT
 70
     0
  3
__ . __ . __ . __
 72
     65
 73
     4
 40
1.000000
 49
0.500000
 49
-0.250000
 49
0.000000
 49
-0.250000
  0
LTYPE
  2
DIVIDE
 70
     0
  3
___ .. ___ .. ___ .. ___
 72
     65
 73
     6
 40
1.250000
 49
0.500000
 49
-0.250000
 49
0.000000
 49
-0.250000
 49
0.000000
 49
-0.250000
  0
ENDTAB
  0
TABLE
  2
LAYER
 70
     8
  0
LAYER
  2
BLACK
 70
     0
 62
     1
  6
CONTINUOUS
  0
LAYER
  2
WHITE
 70
     0
 62
     7
  6
CONTINUOUS
  0
LAYER
  2
RED
 70
     0
 62
     1
  6
CONTINUOUS
  0
LAYER
  2
YELLOW
 70
     0
 62
     2
  6
CONTINUOUS
  0
LAYER
  2
GREEN
 70
     0
 62
     3
  6
CONTINUOUS
  0
LAYER
  2
CYAN
 70
     0
 62
     4
  6
CONTINUOUS
  0
LAYER
  2
BLUE
 70
     0
 62
     5
  6
CONTINUOUS
  0
LAYER
  2
MAGENTA
 70
     0
 62
     6
  6
CONTINUOUS
  0
ENDTAB
  0
TABLE
  2
APPID
 70
     1
  0
APPID
  2
TC_BEND_DATA
 70
     0
  0
ENDTAB
  0
ENDSEC
  0
SECTION
  2
BLOCKS
  0
ENDSEC
  0
SECTION
  2
ENTITIES
  0
LINE
  8
WHITE
 10
0.637500
 20
33.195491
 30
0.000000
 11
0.106250
 21
33.620491
 31
0.000000
  6
CONTINUOUS
  0
LINE
  8
WHITE
 10
0.106250
 20
33.620491
 30
0.000000
 11
0.000000
 21
33.939241
 31
0.000000
  6
CONTINUOUS
  0
LINE
  8
WHITE
 10
0.000000
 20
33.939241
 30
0.000000
 11
0.212500
 21
34.576741
 31
0.000000
  6
CONTINUOUS
  0
LINE
  8
WHITE
 10
0.212500
 20
34.576741
 30
0.000000
 11
5.122974
 21
41.124040
 31
0.000000
  6
CONTINUOUS
  0
ARC
  8
WHITE
 10
5.922974
 20
40.524040
 30
0.000000
 40
1.000000
 50
53.746162
 51
143.130102
  6
CONTINUOUS
  0
LINE
  8
WHITE
 10
6.514338
 20
41.330445
 30
0.000000
 11
13.636234
 21
36.107721
 31
0.000000
  6
CONTINUOUS
  0
LINE
  8
WHITE
 10
13.636234
 20
36.107721
 30
0.000000
 11
14.662500
 21
37.339241
 31
0.000000
  6
CONTINUOUS
  0
LINE
  8
WHITE
 10
14.662500
 20
37.339241
 30
0.000000
 11
7.514702
 21
42.580959
 31
0.000000
  6
CONTINUOUS
  0
ARC
  8
WHITE
 10
8.106066
 20
43.387364
 30
0.000000
 40
1.000000
 50
142.721826
 51
233.746162
  6
CONTINUOUS
  0
LINE
  8
WHITE
 10
7.310362
 20
43.993049
 30
0.000000
 11
12.112500
 21
50.301741
 31
0.000000
  6
CONTINUOUS
  0
LINE
  8
WHITE
 10
12.112500
 20
50.301741
 30
0.000000
 11
12.856250
 21
51.045491
 31
0.000000
  6
CONTINUOUS
  0
LINE
  8
WHITE
 10
12.856250
 20
51.045491
 30
0.000000
 11
13.175000
 21
51.045491
 31
0.000000
  6
CONTINUOUS
  0
LINE
  8
WHITE
 10
13.175000
 20
51.045491
 30
0.000000
 11
14.025000
 21
50.620491
 31
0.000000
  6
CONTINUOUS
  0
LINE
  8
WHITE
 10
14.025000
 20
50.620491
 30
0.000000
 11
17.637500
 21
47.964241
 31
0.000000
  6
CONTINUOUS
  0
LINE
  8
WHITE
 10
17.637500
 20
47.964241
 30
0.000000
 11
18.275000
 21
47.114241
 31
0.000000
  6
CONTINUOUS
  0
LINE
  8
WHITE
 10
18.275000
 20
47.114241
 30
0.000000
 11
18.806250
 21
45.945491
 31
0.000000
  6
CONTINUOUS
  0
ARC
  8
WHITE
 10
23.697431
 20
45.621334
 30
0.000000
 40
4.901911
 50
176.208347
 51
252.289719
  6
CONTINUOUS
  0
LINE
  8
WHITE
 10
22.206250
 20
40.951741
 30
0.000000
 11
25.393750
 21
38.932991
 31
0.000000
  6
CONTINUOUS
  0
LINE
  8
WHITE
 10
25.393750
 20
38.932991
 30
0.000000
 11
28.793750
 21
37.020491
 31
0.000000
  6
CONTINUOUS
  0
LINE
  8
WHITE
 10
28.793750
 20
37.020491
 30
0.000000
 11
33.575000
 21
34.895491
 31
0.000000
  6
CONTINUOUS
  0
LINE
  8
WHITE
 10
33.575000
 20
34.895491
 30
0.000000
 11
37.081250
 21
33.620491
 31
0.000000
  6
CONTINUOUS
  0
LINE
  8
WHITE
 10
37.081250
 20
33.620491
 30
0.000000
 11
41.012500
 21
32.451741
 31
0.000000
  6
CONTINUOUS
  0
LINE
  8
WHITE
 10
41.012500
 20
32.451741
 30
0.000000
 11
45.050000
 21
31.601741
 31
0.000000
  6
CONTINUOUS
  0
LINE
  8
WHITE
 10
45.050000
 20
31.601741
 30
0.000000
 11
48.450000
 21
31.070491
 31
0.000000
  6
CONTINUOUS
  0
LINE
  8
WHITE
 10
48.450000
 20
31.070491
 30
0.000000
 11
50.150000
 21
31.176741
 31
0.000000
  6
CONTINUOUS
  0
LINE
  8
WHITE
 10
50.150000
 20
31.176741
 30
0.000000
 11
51.425000
 21
31.495491
 31
0.000000
  6
CONTINUOUS
  0
LINE
  8
WHITE
 10
51.425000
 20
31.495491
 30
0.000000
 11
53.018750
 21
32.132991
 31
0.000000
  6
CONTINUOUS
  0
LINE
  8
WHITE
 10
53.018750
 20
32.132991
 30
0.000000
 11
54.825000
 21
33.620491
 31
0.000000
  6
CONTINUOUS
  0
ARC
  8
WHITE
 10
56.818939
 20
30.445856
 30
0.000000
 40
3.748880
 50
3.052555
 51
122.132294
  6
CONTINUOUS
  0
ARC
  8
WHITE
 10
62.448226
 20
31.702354
 30
0.000000
 40
2.161695
 50
-150.731360
 51
-5.491324
  6
CONTINUOUS
  0
LINE
  8
WHITE
 10
64.600000
 20
31.495491
 30
0.000000
 11
64.918750
 21
32.770491
 31
0.000000
  6
CONTINUOUS
  0
LINE
  8
WHITE
 10
64.918750
 20
32.770491
 30
0.000000
 11
65.450000
 21
33.726741
 31
0.000000
  6
CONTINUOUS
  0
ARC
  8
WHITE
 10
67.388786
 20
31.299347
 30
0.000000
 40
3.106627
 50
28.264993
 51
128.614745
  6
CONTINUOUS
  0
LINE
  8
WHITE
 10
70.125000
 20
32.770491
 30
0.000000
 11
71.293750
 21
32.132991
 31
0.000000
  6
CONTINUOUS
  0
LINE
  8
WHITE
 10
71.293750
 20
32.132991
 30
0.000000
 11
72.250000
 21
31.920491
 31
0.000000
  6
CONTINUOUS
  0
LINE
  8
WHITE
 10
72.250000
 20
31.920491
 30
0.000000
 11
73.312500
 21
31.814241
 31
0.000000
  6
CONTINUOUS
  0
ARC
  8
WHITE
 10
90.907649
 20
-109.814702
 30
0.000000
 40
142.717717
 50
84.471882
 51
97.081806
  6
CONTINUOUS
  0
LINE
  8
WHITE
 10
104.656250
 20
32.239241
 30
0.000000
 11
105.612500
 21
32.557991
 31
0.000000
  6
CONTINUOUS
  0
LINE
  8
WHITE
 10
105.612500
 20
32.557991
 30
0.000000
 11
107.100000
 21
33.832991
 31
0.000000
  6
CONTINUOUS
  0
ARC
  8
WHITE
 10
108.539147
 20
31.089360
 30
0.000000
 40
3.098169
 50
19.685316
 51
117.678860
  6
CONTINUOUS
  0
ARC
  8
WHITE
 10
113.751438
 20
33.723920
 30
0.000000
 40
2.792659
 50
-145.271905
 51
-27.099946
  6
CONTINUOUS
  0
ARC
  8
WHITE
 10
123.148173
 20
28.097324
 30
0.000000
 40
8.168129
 50
77.256169
 51
147.784962
  6
CONTINUOUS
  0
ARC
  8
WHITE
 10
124.798399
 20
32.063021
 30
0.000000
 40
4.004090
 50
14.850203
 51
87.830181
  6
CONTINUOUS
  0
ARC
  8
WHITE
 10
126.543750
 20
23.526741
 30
0.000000
 40
9.795766
 50
77.471192
 51
102.528808
  6
CONTINUOUS
  0
ARC
  8
WHITE
 10
124.534927
 20
30.172697
 30
0.000000
 40
2.918857
 50
92.281092
 51
248.443832
  6
CONTINUOUS
  0
LINE
  8
WHITE
 10
123.462500
 20
27.457991
 30
0.000000
 11
126.225000
 21
26.289241
 31
0.000000
  6
CONTINUOUS
  0
LINE
  8
WHITE
 10
126.225000
 20
26.289241
 30
0.000000
 11
130.368750
 21
24.801741
 31
0.000000
  6
CONTINUOUS
  0
LINE
  8
WHITE
 10
130.368750
 20
24.801741
 30
0.000000
 11
132.918750
 21
23.951741
 31
0.000000
  6
CONTINUOUS
  0
LINE
  8
WHITE
 10
132.918750
 20
23.951741
 30
0.000000
 11
133.768750
 21
23.526741
 31
0.000000
  6
CONTINUOUS
  0
LINE
  8
WHITE
 10
133.768750
 20
23.526741
 30
0.000000
 11
134.831250
 21
22.676741
 31
0.000000
  6
CONTINUOUS
  0
LINE
  8
WHITE
 10
134.831250
 20
22.676741
 30
0.000000
 11
135.468750
 21
21.826741
 31
0.000000
  6
CONTINUOUS
  0
LINE
  8
WHITE
 10
135.468750
 20
21.826741
 30
0.000000
 11
135.893750
 21
21.082991
 31
0.000000
  6
CONTINUOUS
  0
LINE
  8
WHITE
 10
135.893750
 20
21.082991
 30
0.000000
 11
136.106250
 21
19.489241
 31
0.000000
  6
CONTINUOUS
  0
LINE
  8
WHITE
 10
136.106250
 20
19.489241
 30
0.000000
 11
136.106250
 21
18.426741
 31
0.000000
  6
CONTINUOUS
  0
LINE
  8
WHITE
 10
136.106250
 20
18.426741
 30
0.000000
 11
135.362500
 21
16.195491
 31
0.000000
  6
CONTINUOUS
  0
ARC
  8
WHITE
 10
145.578178
 20
11.907808
 30
0.000000
 40
11.079003
 50
157.231430
 51
247.948895
  6
CONTINUOUS
  0
ARC
  8
WHITE
 10
139.926072
 20
-0.371454
 30
0.000000
 40
2.504193
 50
12.059512
 51
53.410940
  6
CONTINUOUS
  0
ARC
  8
WHITE
 10
140.275525
 20
14.599980
 30
0.000000
 40
14.599980
 50
-106.158159
 51
-81.732213
  6
CONTINUOUS
  0
ARC
  8
WHITE
 10
137.921431
 20
6.800876
 30
0.000000
 40
6.454479
 50
-139.341795
 51
-105.353092
  6
CONTINUOUS
  0
ARC
  8
WHITE
 10
146.538686
 20
13.805002
 30
0.000000
 40
17.557701
 50
-178.439102
 51
-140.324521
  6
CONTINUOUS
  0
ARC
  8
WHITE
 10
120.446034
 20
11.249976
 30
0.000000
 40
8.790312
 50
13.665674
 51
67.702271
  6
CONTINUOUS
  0
LINE
  8
WHITE
 10
123.781250
 20
19.382991
 30
0.000000
 11
118.256250
 21
21.614241
 31
0.000000
  6
CONTINUOUS
  0
LINE
  8
WHITE
 10
118.256250
 20
21.614241
 30
0.000000
 11
117.193750
 21
21.614241
 31
0.000000
  6
CONTINUOUS
  0
ARC
  8
WHITE
 10
116.423014
 20
25.294375
 30
0.000000
 40
3.759976
 50
-153.777365
 51
-78.171423
  6
CONTINUOUS
  0
ARC
  8
WHITE
 10
111.031250
 20
22.676741
 30
0.000000
 40
2.233778
 50
25.346176
 51
154.653824
  6
CONTINUOUS
  0
ARC
  8
WHITE
 10
106.418955
 20
26.821362
 30
0.000000
 40
4.110010
 50
-131.417775
 51
-50.873751
  6
CONTINUOUS
  0
ARC
  8
WHITE
 10
100.129627
 20
20.577737
 30
0.000000
 40
4.768928
 50
41.524337
 51
94.339864
  6
CONTINUOUS
  0
ARC
  8
WHITE
 10
100.182581
 20
-97.693453
 30
0.000000
 40
123.027140
 50
90.192728
 51
96.350268
  6
CONTINUOUS
  0
LINE
  8
WHITE
 10
86.575002
 20
24.578829
 30
0.000000
 11
85.972840
 21
24.510313
 31
0.000000
  6
CONTINUOUS
  0
ARC
  8
WHITE
 10
100.182581
 20
-97.693453
 30
0.000000
 40
123.027140
 50
96.632515
 51
103.072301
  6
CONTINUOUS
  0
ARC
  8
WHITE
 10
73.473780
 20
16.050216
 30
0.000000
 40
6.196874
 50
100.389435
 51
154.218461
  6
CONTINUOUS
  0
ARC
  8
WHITE
 10
64.761652
 20
19.660309
 30
0.000000
 40
3.262963
 50
-85.370731
 51
-16.281953
  6
CONTINUOUS
  0
ARC
  8
WHITE
 10
65.128518
 20
19.279787
 30
0.000000
 40
2.873662
 50
175.820162
 51
267.935577
  6
CONTINUOUS
  0
LINE
  8
WHITE
 10
62.262500
 20
19.489241
 30
0.000000
 11
62.050000
 21
20.445491
 31
0.000000
  6
CONTINUOUS
  0
ARC
  8
WHITE
 10
59.974993
 20
19.927099
 30
0.000000
 40
2.138781
 50
14.026871
 51
140.223126
  6
CONTINUOUS
  0
LINE
  8
WHITE
 10
58.331250
 20
21.295491
 30
0.000000
 11
57.268750
 21
20.339241
 31
0.000000
  6
CONTINUOUS
  0
LINE
  8
WHITE
 10
57.268750
 20
20.339241
 30
0.000000
 11
56.418750
 21
19.807991
 31
0.000000
  6
CONTINUOUS
  0
LINE
  8
WHITE
 10
56.418750
 20
19.807991
 30
0.000000
 11
55.143750
 21
19.382991
 31
0.000000
  6
CONTINUOUS
  0
LINE
  8
WHITE
 10
55.143750
 20
19.382991
 30
0.000000
 11
52.168750
 21
18.851741
 31
0.000000
  6
CONTINUOUS
  0
LINE
  8
WHITE
 10
52.168750
 20
18.851741
 30
0.000000
 11
48.768750
 21
18.532991
 31
0.000000
  6
CONTINUOUS
  0
LINE
  8
WHITE
 10
48.768750
 20
18.532991
 30
0.000000
 11
43.137500
 21
18.320491
 31
0.000000
  6
CONTINUOUS
  0
LINE
  8
WHITE
 10
43.137500
 20
18.320491
 30
0.000000
 11
39.525000
 21
18.532991
 31
0.000000
  6
CONTINUOUS
  0
LINE
  8
WHITE
 10
39.525000
 20
18.532991
 30
0.000000
 11
35.912500
 21
18.851741
 31
0.000000
  6
CONTINUOUS
  0
LINE
  8
WHITE
 10
35.912500
 20
18.851741
 30
0.000000
 11
31.450000
 21
19.701741
 31
0.000000
  6
CONTINUOUS
  0
LINE
  8
WHITE
 10
31.450000
 20
19.701741
 30
0.000000
 11
27.412500
 21
20.764241
 31
0.000000
  6
CONTINUOUS
  0
LINE
  8
WHITE
 10
27.412500
 20
20.764241
 30
0.000000
 11
23.268750
 21
22.251741
 31
0.000000
  6
CONTINUOUS
  0
LINE
  8
WHITE
 10
23.268750
 20
22.251741
 30
0.000000
 11
19.018750
 21
24.057991
 31
0.000000
  6
CONTINUOUS
  0
LINE
  8
WHITE
 10
19.018750
 20
24.057991
 30
0.000000
 11
14.768750
 21
26.395491
 31
0.000000
  6
CONTINUOUS
  0
LINE
  8
WHITE
 10
14.768750
 20
26.395491
 30
0.000000
 11
10.837500
 21
29.051741
 31
0.000000
  6
CONTINUOUS
  0
LINE
  8
WHITE
 10
10.837500
 20
29.051741
 30
0.000000
 11
7.756250
 21
31.070491
 31
0.000000
  6
CONTINUOUS
  0
LINE
  8
WHITE
 10
7.756250
 20
31.070491
 30
0.000000
 11
6.800000
 21
31.495491
 31
0.000000
  6
CONTINUOUS
  0
LINE
  8
WHITE
 10
6.800000
 20
31.495491
 30
0.000000
 11
5.737500
 21
31.601741
 31
0.000000
  6
CONTINUOUS
  0
LINE
  8
WHITE
 10
5.737500
 20
31.601741
 30
0.000000
 11
4.462500
 21
31.389241
 31
0.000000
  6
CONTINUOUS
  0
LINE
  8
WHITE
 10
4.462500
 20
31.389241
 30
0.000000
 11
3.400000
 21
31.495491
 31
0.000000
  6
CONTINUOUS
  0
LINE
  8
WHITE
 10
3.400000
 20
31.495491
 30
0.000000
 11
2.550000
 21
31.920491
 31
0.000000
  6
CONTINUOUS
  0
LINE
  8
WHITE
 10
2.550000
 20
31.920491
 30
0.000000
 11
0.637500
 21
33.195491
 31
0.000000
  6
CONTINUOUS
  0
ENDSEC
  0
EOF
