  0
SECTION
  2
HEADER
  9
$ACADVER
  1
AC1009
  9
$LIMMIN
 10
-0.000000
 20
-0.000000
  9
$LIMMAX
 10
66.907839
 20
51.220624
  0
ENDSEC
  0
SECTION
  2
TABLES
  0
TABLE
  2
LTYPE
 70
     4
  0
LTYPE
  2
CONTINUOUS
 70
     0
  3
Solid line
 72
     65
 73
     0
 40
0.000000
  0
LTYPE
  2
HIDDEN
 70
     0
  3
 _ _ _ _ _ _ _ _ _ _ _
 72
     65
 73
     2
 40
0.375000
 49
0.250000
 49
-0.125000
  0
LTYPE
  2
DASHED
 70
     0
  3
 ___ ___ ___ ___ ___ ___ ___ 
 72
     65
 73
     2
 40
0.750000
 49
0.500000
 49
-0.250000
  0
LTYPE
  2
CENTER
 70
     0
  3
___ _ ___ _ ___ _ ___
 72
     65
 73
     4
 40
2.000000
 49
1.250000
 49
-0.250000
 49
0.250000
 49
-0.250000
  0
LTYPE
  2
BORDER
 70
     0
  3
___ ___ . ___ ___ . ___ ___
 72
     65
 73
     6
 40
1.750000
 49
0.500000
 49
-0.250000
 49
0.500000
 49
-0.250000
 49
0.000000
 49
-0.250000
  0
LTYPE
  2
DOT
 70
     0
  3
.................
 72
     65
 73
     2
 40
0.250000
 49
0.000000
 49
-0.250000
  0
LTYPE
  2
DASHDOT
 70
     0
  3
__ . __ . __ . __
 72
     65
 73
     4
 40
1.000000
 49
0.500000
 49
-0.250000
 49
0.000000
 49
-0.250000
  0
LTYPE
  2
DIVIDE
 70
     0
  3
___ .. ___ .. ___ .. ___
 72
     65
 73
     6
 40
1.250000
 49
0.500000
 49
-0.250000
 49
0.000000
 49
-0.250000
 49
0.000000
 49
-0.250000
  0
ENDTAB
  0
TABLE
  2
LAYER
 70
     8
  0
LAYER
  2
BLACK
 70
     0
 62
     1
  6
CONTINUOUS
  0
LAYER
  2
WHITE
 70
     0
 62
     7
  6
CONTINUOUS
  0
LAYER
  2
RED
 70
     0
 62
     1
  6
CONTINUOUS
  0
LAYER
  2
YELLOW
 70
     0
 62
     2
  6
CONTINUOUS
  0
LAYER
  2
GREEN
 70
     0
 62
     3
  6
CONTINUOUS
  0
LAYER
  2
CYAN
 70
     0
 62
     4
  6
CONTINUOUS
  0
LAYER
  2
BLUE
 70
     0
 62
     5
  6
CONTINUOUS
  0
LAYER
  2
MAGENTA
 70
     0
 62
     6
  6
CONTINUOUS
  0
ENDTAB
  0
TABLE
  2
APPID
 70
     1
  0
APPID
  2
TC_BEND_DATA
 70
     0
  0
ENDTAB
  0
ENDSEC
  0
SECTION
  2
BLOCKS
  0
ENDSEC
  0
SECTION
  2
ENTITIES
  0
ARC
  8
WHITE
 10
64.754895
 20
2.490060
 30
0.000000
 40
2.152944
 50
-72.824742
 51
75.762343
  6
CONTINUOUS
  0
ARC
  8
WHITE
 10
59.920928
 20
34.753865
 30
0.000000
 40
34.753865
 50
-103.529078
 51
-80.944880
  6
CONTINUOUS
  0
LINE
  8
WHITE
 10
51.790650
 20
0.964374
 30
0.000000
 11
49.665650
 21
1.601874
 31
0.000000
  6
CONTINUOUS
  0
LINE
  8
WHITE
 10
49.665650
 20
1.601874
 30
0.000000
 11
46.478150
 21
2.664374
 31
0.000000
  6
CONTINUOUS
  0
LINE
  8
WHITE
 10
46.478150
 20
2.664374
 30
0.000000
 11
44.140650
 21
3.726874
 31
0.000000
  6
CONTINUOUS
  0
ARC
  8
WHITE
 10
45.209275
 20
5.570897
 30
0.000000
 40
2.131287
 50
101.670559
 51
239.907388
  6
CONTINUOUS
  0
LINE
  8
WHITE
 10
44.778150
 20
7.658124
 30
0.000000
 11
46.690650
 21
8.083124
 31
0.000000
  6
CONTINUOUS
  0
ARC
  8
WHITE
 10
44.785672
 20
12.751542
 30
0.000000
 40
5.042129
 50
-67.801770
 51
-14.570080
  6
CONTINUOUS
  0
ARC
  8
WHITE
 10
12.395236
 20
23.153565
 30
0.000000
 40
39.054871
 50
-17.386843
 51
-7.682263
  6
CONTINUOUS
  0
LINE
  8
WHITE
 10
51.099575
 20
17.932733
 30
0.000000
 11
51.174645
 21
18.523188
 31
0.000000
  6
CONTINUOUS
  0
ARC
  8
WHITE
 10
12.395236
 20
23.153565
 30
0.000000
 40
39.054871
 50
-6.809050
 51
3.768742
  6
CONTINUOUS
  0
LINE
  8
WHITE
 10
51.365650
 20
25.720624
 30
0.000000
 11
50.940650
 21
26.570624
 31
0.000000
  6
CONTINUOUS
  0
ARC
  8
WHITE
 10
49.175147
 20
25.504181
 30
0.000000
 40
2.062596
 50
31.133872
 51
137.811047
  6
CONTINUOUS
  0
LINE
  8
WHITE
 10
47.646900
 20
26.889374
 30
0.000000
 11
46.478150
 21
25.614374
 31
0.000000
  6
CONTINUOUS
  0
ARC
  8
WHITE
 10
43.330828
 20
28.799930
 30
0.000000
 40
4.478102
 50
-140.194519
 51
-45.345912
  6
CONTINUOUS
  0
LINE
  8
WHITE
 10
39.890650
 20
25.933124
 30
0.000000
 11
38.615650
 21
27.526874
 31
0.000000
  6
CONTINUOUS
  0
ARC
  8
WHITE
 10
35.694041
 20
24.966643
 30
0.000000
 40
3.884659
 50
41.228362
 51
160.679763
  6
CONTINUOUS
  0
ARC
  8
WHITE
 10
27.669933
 20
26.357110
 30
0.000000
 40
4.359488
 50
-124.063250
 51
-1.383223
  6
CONTINUOUS
  0
LINE
  8
WHITE
 10
25.228150
 20
22.745624
 30
0.000000
 11
21.190650
 21
23.170624
 31
0.000000
  6
CONTINUOUS
  0
LINE
  8
WHITE
 10
21.190650
 20
23.170624
 30
0.000000
 11
18.215650
 21
23.170624
 31
0.000000
  6
CONTINUOUS
  0
ARC
  8
WHITE
 10
18.943880
 20
-14.657958
 30
0.000000
 40
37.835590
 50
91.102853
 51
114.886380
  6
CONTINUOUS
  0
ARC
  8
WHITE
 10
2.362324
 20
21.932751
 30
0.000000
 40
2.362324
 50
135.258138
 51
286.212837
  6
CONTINUOUS
  0
LINE
  8
WHITE
 10
0.684400
 20
23.595624
 30
0.000000
 11
1.640650
 21
24.445624
 31
0.000000
  6
CONTINUOUS
  0
LINE
  8
WHITE
 10
1.640650
 20
24.445624
 30
0.000000
 11
3.871900
 21
26.039374
 31
0.000000
  6
CONTINUOUS
  0
LINE
  8
WHITE
 10
3.871900
 20
26.039374
 30
0.000000
 11
7.271900
 21
28.058124
 31
0.000000
  6
CONTINUOUS
  0
LINE
  8
WHITE
 10
7.271900
 20
28.058124
 30
0.000000
 11
9.503150
 21
29.120624
 31
0.000000
  6
CONTINUOUS
  0
LINE
  8
WHITE
 10
9.503150
 20
29.120624
 30
0.000000
 11
13.646900
 21
30.714374
 31
0.000000
  6
CONTINUOUS
  0
LINE
  8
WHITE
 10
13.646900
 20
30.714374
 30
0.000000
 11
16.515650
 21
31.564374
 31
0.000000
  6
CONTINUOUS
  0
LINE
  8
WHITE
 10
16.515650
 20
31.564374
 30
0.000000
 11
19.703150
 21
32.201874
 31
0.000000
  6
CONTINUOUS
  0
LINE
  8
WHITE
 10
19.703150
 20
32.201874
 30
0.000000
 11
22.996900
 21
32.626874
 31
0.000000
  6
CONTINUOUS
  0
LINE
  8
WHITE
 10
22.996900
 20
32.626874
 30
0.000000
 11
24.696900
 21
32.733124
 31
0.000000
  6
CONTINUOUS
  0
ARC
  8
WHITE
 10
23.942159
 20
36.424395
 30
0.000000
 40
3.767641
 50
-78.444211
 51
34.841392
  6
CONTINUOUS
  0
ARC
  8
WHITE
 10
30.549099
 20
39.866056
 30
0.000000
 40
3.743674
 50
98.288806
 51
200.142901
  6
CONTINUOUS
  0
ARC
  8
WHITE
 10
30.359077
 20
47.735495
 30
0.000000
 40
4.179524
 50
-94.799218
 51
-16.540348
  6
CONTINUOUS
  0
LINE
  8
WHITE
 10
34.365650
 20
46.545624
 30
0.000000
 11
34.790650
 21
50.795624
 31
0.000000
  6
CONTINUOUS
  0
LINE
  8
WHITE
 10
34.790650
 20
50.795624
 30
0.000000
 11
35.003150
 21
51.114374
 31
0.000000
  6
CONTINUOUS
  0
LINE
  8
WHITE
 10
35.003150
 20
51.114374
 30
0.000000
 11
35.321900
 21
51.220624
 31
0.000000
  6
CONTINUOUS
  0
LINE
  8
WHITE
 10
35.321900
 20
51.220624
 30
0.000000
 11
35.959400
 21
51.220624
 31
0.000000
  6
CONTINUOUS
  0
LINE
  8
WHITE
 10
35.959400
 20
51.220624
 30
0.000000
 11
44.097402
 21
50.274345
 31
0.000000
  6
CONTINUOUS
  0
ARC
  8
WHITE
 10
43.981901
 20
49.281037
 30
0.000000
 40
1.000000
 50
-6.988490
 51
83.367485
  6
CONTINUOUS
  0
LINE
  8
WHITE
 10
44.974472
 20
49.159367
 30
0.000000
 11
43.078150
 21
33.689374
 31
0.000000
  6
CONTINUOUS
  0
LINE
  8
WHITE
 10
43.078150
 20
33.689374
 30
0.000000
 11
44.665799
 21
33.490918
 31
0.000000
  6
CONTINUOUS
  0
LINE
  8
WHITE
 10
44.665799
 20
33.490918
 30
0.000000
 11
46.562913
 21
48.967375
 31
0.000000
  6
CONTINUOUS
  0
ARC
  8
WHITE
 10
47.555484
 20
48.845705
 30
0.000000
 40
1.000000
 50
83.047042
 51
173.011510
  6
CONTINUOUS
  0
LINE
  8
WHITE
 10
47.676538
 20
49.838351
 30
0.000000
 11
55.509400
 21
48.883124
 31
0.000000
  6
CONTINUOUS
  0
LINE
  8
WHITE
 10
55.509400
 20
48.883124
 30
0.000000
 11
56.465650
 21
48.670624
 31
0.000000
  6
CONTINUOUS
  0
LINE
  8
WHITE
 10
56.465650
 20
48.670624
 30
0.000000
 11
56.784400
 21
48.458124
 31
0.000000
  6
CONTINUOUS
  0
LINE
  8
WHITE
 10
56.784400
 20
48.458124
 30
0.000000
 11
56.890650
 21
48.139374
 31
0.000000
  6
CONTINUOUS
  0
LINE
  8
WHITE
 10
56.890650
 20
48.139374
 30
0.000000
 11
56.890650
 21
47.076874
 31
0.000000
  6
CONTINUOUS
  0
ARC
  8
WHITE
 10
60.811477
 20
45.924085
 30
0.000000
 40
4.086784
 50
163.615773
 51
262.678218
  6
CONTINUOUS
  0
ARC
  8
WHITE
 10
58.696056
 20
37.727880
 30
0.000000
 40
4.439038
 50
11.026110
 51
68.947663
  6
CONTINUOUS
  0
ARC
  8
WHITE
 10
58.814066
 20
38.388389
 30
0.000000
 40
4.243272
 50
-51.433805
 51
2.545895
  6
CONTINUOUS
  0
LINE
  8
WHITE
 10
61.459400
 20
35.070624
 30
0.000000
 11
60.184400
 21
33.901874
 31
0.000000
  6
CONTINUOUS
  0
LINE
  8
WHITE
 10
60.184400
 20
33.901874
 30
0.000000
 11
59.653150
 21
33.051874
 31
0.000000
  6
CONTINUOUS
  0
LINE
  8
WHITE
 10
59.653150
 20
33.051874
 30
0.000000
 11
58.909400
 21
30.820624
 31
0.000000
  6
CONTINUOUS
  0
LINE
  8
WHITE
 10
58.909400
 20
30.820624
 30
0.000000
 11
58.378150
 21
27.208124
 31
0.000000
  6
CONTINUOUS
  0
ARC
  8
WHITE
 10
95.671376
 20
21.475586
 30
0.000000
 40
37.731243
 50
171.261164
 51
200.789986
  6
CONTINUOUS
  0
ARC
  8
WHITE
 10
65.443261
 20
9.957881
 30
0.000000
 40
5.383352
 50
-159.619629
 51
-91.691027
  6
CONTINUOUS
  0
ENDSEC
  0
EOF
