  0
SECTION
  2
HEADER
  9
$ACADVER
  1
AC1009
  9
$LIMMIN
 10
0.000000
 20
-0.000000
  9
$LIMMAX
 10
48.534211
 20
68.855689
  0
ENDSEC
  0
SECTION
  2
TABLES
  0
TABLE
  2
LTYPE
 70
     4
  0
LTYPE
  2
CONTINUOUS
 70
     0
  3
Solid line
 72
     65
 73
     0
 40
0.000000
  0
LTYPE
  2
HIDDEN
 70
     0
  3
 _ _ _ _ _ _ _ _ _ _ _
 72
     65
 73
     2
 40
0.375000
 49
0.250000
 49
-0.125000
  0
LTYPE
  2
DASHED
 70
     0
  3
 ___ ___ ___ ___ ___ ___ ___ 
 72
     65
 73
     2
 40
0.750000
 49
0.500000
 49
-0.250000
  0
LTYPE
  2
CENTER
 70
     0
  3
___ _ ___ _ ___ _ ___
 72
     65
 73
     4
 40
2.000000
 49
1.250000
 49
-0.250000
 49
0.250000
 49
-0.250000
  0
LTYPE
  2
BORDER
 70
     0
  3
___ ___ . ___ ___ . ___ ___
 72
     65
 73
     6
 40
1.750000
 49
0.500000
 49
-0.250000
 49
0.500000
 49
-0.250000
 49
0.000000
 49
-0.250000
  0
LTYPE
  2
DOT
 70
     0
  3
.................
 72
     65
 73
     2
 40
0.250000
 49
0.000000
 49
-0.250000
  0
LTYPE
  2
DASHDOT
 70
     0
  3
__ . __ . __ . __
 72
     65
 73
     4
 40
1.000000
 49
0.500000
 49
-0.250000
 49
0.000000
 49
-0.250000
  0
LTYPE
  2
DIVIDE
 70
     0
  3
___ .. ___ .. ___ .. ___
 72
     65
 73
     6
 40
1.250000
 49
0.500000
 49
-0.250000
 49
0.000000
 49
-0.250000
 49
0.000000
 49
-0.250000
  0
ENDTAB
  0
TABLE
  2
LAYER
 70
     8
  0
LAYER
  2
BLACK
 70
     0
 62
     1
  6
CONTINUOUS
  0
LAYER
  2
WHITE
 70
     0
 62
     7
  6
CONTINUOUS
  0
LAYER
  2
RED
 70
     0
 62
     1
  6
CONTINUOUS
  0
LAYER
  2
YELLOW
 70
     0
 62
     2
  6
CONTINUOUS
  0
LAYER
  2
GREEN
 70
     0
 62
     3
  6
CONTINUOUS
  0
LAYER
  2
CYAN
 70
     0
 62
     4
  6
CONTINUOUS
  0
LAYER
  2
BLUE
 70
     0
 62
     5
  6
CONTINUOUS
  0
LAYER
  2
MAGENTA
 70
     0
 62
     6
  6
CONTINUOUS
  0
ENDTAB
  0
TABLE
  2
APPID
 70
     1
  0
APPID
  2
TC_BEND_DATA
 70
     0
  0
ENDTAB
  0
ENDSEC
  0
SECTION
  2
BLOCKS
  0
ENDSEC
  0
SECTION
  2
ENTITIES
  0
LINE
  8
WHITE
 10
13.281250
 20
42.505689
 30
0.000000
 11
12.006250
 21
42.186939
 31
0.000000
  6
CONTINUOUS
  0
LINE
  8
WHITE
 10
12.006250
 20
42.186939
 30
0.000000
 11
10.306250
 21
41.868189
 31
0.000000
  6
CONTINUOUS
  0
LINE
  8
WHITE
 10
10.306250
 20
41.868189
 30
0.000000
 11
13.175000
 21
41.124439
 31
0.000000
  6
CONTINUOUS
  0
LINE
  8
WHITE
 10
13.175000
 20
41.124439
 30
0.000000
 11
12.218750
 21
40.699439
 31
0.000000
  6
CONTINUOUS
  0
LINE
  8
WHITE
 10
12.218750
 20
40.699439
 30
0.000000
 11
11.050000
 21
40.486939
 31
0.000000
  6
CONTINUOUS
  0
LINE
  8
WHITE
 10
11.050000
 20
40.486939
 30
0.000000
 11
9.987500
 21
39.955689
 31
0.000000
  6
CONTINUOUS
  0
LINE
  8
WHITE
 10
9.987500
 20
39.955689
 30
0.000000
 11
11.262500
 21
39.424439
 31
0.000000
  6
CONTINUOUS
  0
LINE
  8
WHITE
 10
11.262500
 20
39.424439
 30
0.000000
 11
12.537500
 21
39.211939
 31
0.000000
  6
CONTINUOUS
  0
LINE
  8
WHITE
 10
12.537500
 20
39.211939
 30
0.000000
 11
13.493750
 21
38.999439
 31
0.000000
  6
CONTINUOUS
  0
LINE
  8
WHITE
 10
13.493750
 20
38.999439
 30
0.000000
 11
12.431250
 21
38.361939
 31
0.000000
  6
CONTINUOUS
  0
LINE
  8
WHITE
 10
12.431250
 20
38.361939
 30
0.000000
 11
11.687500
 21
37.936939
 31
0.000000
  6
CONTINUOUS
  0
LINE
  8
WHITE
 10
11.687500
 20
37.936939
 30
0.000000
 11
10.518750
 21
37.086939
 31
0.000000
  6
CONTINUOUS
  0
LINE
  8
WHITE
 10
10.518750
 20
37.086939
 30
0.000000
 11
10.412500
 21
36.874439
 31
0.000000
  6
CONTINUOUS
  0
LINE
  8
WHITE
 10
10.412500
 20
36.874439
 30
0.000000
 11
10.837500
 21
36.661939
 31
0.000000
  6
CONTINUOUS
  0
LINE
  8
WHITE
 10
10.837500
 20
36.661939
 30
0.000000
 11
11.156250
 21
36.449439
 31
0.000000
  6
CONTINUOUS
  0
LINE
  8
WHITE
 10
11.156250
 20
36.449439
 30
0.000000
 11
11.262500
 21
36.343189
 31
0.000000
  6
CONTINUOUS
  0
LINE
  8
WHITE
 10
11.262500
 20
36.343189
 30
0.000000
 11
12.325000
 21
34.855689
 31
0.000000
  6
CONTINUOUS
  0
LINE
  8
WHITE
 10
12.325000
 20
34.855689
 30
0.000000
 11
14.025000
 21
34.005689
 31
0.000000
  6
CONTINUOUS
  0
LINE
  8
WHITE
 10
14.025000
 20
34.005689
 30
0.000000
 11
16.468750
 21
32.199439
 31
0.000000
  6
CONTINUOUS
  0
LINE
  8
WHITE
 10
16.468750
 20
32.199439
 30
0.000000
 11
17.637500
 21
30.605689
 31
0.000000
  6
CONTINUOUS
  0
LINE
  8
WHITE
 10
17.637500
 20
30.605689
 30
0.000000
 11
18.806250
 21
29.330689
 31
0.000000
  6
CONTINUOUS
  0
LINE
  8
WHITE
 10
18.806250
 20
29.330689
 30
0.000000
 11
25.181250
 21
34.643189
 31
0.000000
  6
CONTINUOUS
  0
LINE
  8
WHITE
 10
25.181250
 20
34.643189
 30
0.000000
 11
24.650000
 21
36.874439
 31
0.000000
  6
CONTINUOUS
  0
LINE
  8
WHITE
 10
24.650000
 20
36.874439
 30
0.000000
 11
24.650000
 21
38.043189
 31
0.000000
  6
CONTINUOUS
  0
LINE
  8
WHITE
 10
24.650000
 20
38.043189
 30
0.000000
 11
24.437500
 21
38.255689
 31
0.000000
  6
CONTINUOUS
  0
LINE
  8
WHITE
 10
24.437500
 20
38.255689
 30
0.000000
 11
24.118750
 21
38.468189
 31
0.000000
  6
CONTINUOUS
  0
LINE
  8
WHITE
 10
24.118750
 20
38.468189
 30
0.000000
 11
23.481250
 21
38.680689
 31
0.000000
  6
CONTINUOUS
  0
LINE
  8
WHITE
 10
23.481250
 20
38.680689
 30
0.000000
 11
23.800000
 21
38.786939
 31
0.000000
  6
CONTINUOUS
  0
LINE
  8
WHITE
 10
23.800000
 20
38.786939
 30
0.000000
 11
24.225000
 21
38.999439
 31
0.000000
  6
CONTINUOUS
  0
LINE
  8
WHITE
 10
24.225000
 20
38.999439
 30
0.000000
 11
24.756250
 21
39.424439
 31
0.000000
  6
CONTINUOUS
  0
LINE
  8
WHITE
 10
24.756250
 20
39.424439
 30
0.000000
 11
23.162500
 21
39.636939
 31
0.000000
  6
CONTINUOUS
  0
ARC
  8
WHITE
 10
26.834463
 20
33.247419
 30
0.000000
 40
7.369483
 50
94.597570
 51
119.885348
  6
CONTINUOUS
  0
ARC
  8
WHITE
 10
22.833967
 20
33.157898
 30
0.000000
 40
8.179864
 50
65.364071
 51
89.187218
  6
CONTINUOUS
  0
ARC
  8
WHITE
 10
26.773998
 20
34.992010
 30
0.000000
 40
7.408177
 50
90.814026
 51
121.076766
  6
CONTINUOUS
  0
ARC
  8
WHITE
 10
22.456633
 20
35.406729
 30
0.000000
 40
8.163327
 50
58.936994
 51
88.774328
  6
CONTINUOUS
  0
ARC
  8
WHITE
 10
26.287500
 20
37.071314
 30
0.000000
 40
7.455035
 50
88.702959
 51
119.369528
  6
CONTINUOUS
  0
ARC
  8
WHITE
 10
22.075591
 20
37.658392
 30
0.000000
 40
8.144494
 50
57.461409
 51
88.333133
  6
CONTINUOUS
  0
ARC
  8
WHITE
 10
26.052555
 20
39.322648
 30
0.000000
 40
7.479093
 50
83.638478
 51
120.004499
  6
CONTINUOUS
  0
LINE
  8
WHITE
 10
26.881250
 20
46.755689
 30
0.000000
 11
27.731250
 21
47.286939
 31
0.000000
  6
CONTINUOUS
  0
ARC
  8
WHITE
 10
21.775780
 20
31.384038
 30
0.000000
 40
16.981458
 50
69.469600
 51
92.491755
  6
CONTINUOUS
  0
ARC
  8
WHITE
 10
27.332712
 20
33.545807
 30
0.000000
 40
16.086554
 50
88.201793
 51
113.037518
  6
CONTINUOUS
  0
LINE
  8
WHITE
 10
27.837500
 20
49.624439
 30
0.000000
 11
28.262500
 21
49.836939
 31
0.000000
  6
CONTINUOUS
  0
LINE
  8
WHITE
 10
28.262500
 20
49.836939
 30
0.000000
 11
27.518750
 21
50.474439
 31
0.000000
  6
CONTINUOUS
  0
ARC
  8
WHITE
 10
22.924850
 20
36.441192
 30
0.000000
 40
14.766041
 50
71.873711
 51
96.512835
  6
CONTINUOUS
  0
ARC
  8
WHITE
 10
28.089678
 20
38.266270
 30
0.000000
 40
14.553090
 50
91.829758
 51
118.033076
  6
CONTINUOUS
  0
LINE
  8
WHITE
 10
27.625000
 20
52.811939
 30
0.000000
 11
28.475000
 21
53.130689
 31
0.000000
  6
CONTINUOUS
  0
LINE
  8
WHITE
 10
28.475000
 20
53.130689
 30
0.000000
 11
27.306250
 21
53.768189
 31
0.000000
  6
CONTINUOUS
  0
ARC
  8
WHITE
 10
23.182341
 20
43.656786
 30
0.000000
 40
10.920032
 50
67.812039
 51
96.248741
  6
CONTINUOUS
  0
ARC
  8
WHITE
 10
27.645303
 20
45.305410
 30
0.000000
 40
10.802787
 50
91.234833
 51
121.544248
  6
CONTINUOUS
  0
LINE
  8
WHITE
 10
27.412500
 20
56.105689
 30
0.000000
 11
28.156250
 21
56.211939
 31
0.000000
  6
CONTINUOUS
  0
LINE
  8
WHITE
 10
28.156250
 20
56.211939
 30
0.000000
 11
27.412500
 21
56.849439
 31
0.000000
  6
CONTINUOUS
  0
ARC
  8
WHITE
 10
22.861064
 20
50.044080
 30
0.000000
 40
8.187092
 50
56.225328
 51
89.377589
  6
CONTINUOUS
  0
ARC
  8
WHITE
 10
26.668750
 20
51.855689
 30
0.000000
 40
7.380361
 50
83.386540
 51
120.256437
  6
CONTINUOUS
  0
LINE
  8
WHITE
 10
27.518750
 20
59.186939
 30
0.000000
 11
28.793750
 21
59.505689
 31
0.000000
  6
CONTINUOUS
  0
ARC
  8
WHITE
 10
24.242314
 20
52.700330
 30
0.000000
 40
8.187092
 50
56.225328
 51
89.377589
  6
CONTINUOUS
  0
ARC
  8
WHITE
 10
28.050000
 20
54.511939
 30
0.000000
 40
7.380361
 50
83.386540
 51
120.256437
  6
CONTINUOUS
  0
ARC
  8
WHITE
 10
24.348564
 20
55.037830
 30
0.000000
 40
8.187092
 50
56.225328
 51
89.377589
  6
CONTINUOUS
  0
ARC
  8
WHITE
 10
28.156250
 20
56.849439
 30
0.000000
 40
7.380361
 50
83.386540
 51
120.256437
  6
CONTINUOUS
  0
ARC
  8
WHITE
 10
24.454814
 20
57.375330
 30
0.000000
 40
8.187092
 50
56.225328
 51
89.377589
  6
CONTINUOUS
  0
ARC
  8
WHITE
 10
28.378811
 20
59.216762
 30
0.000000
 40
7.414106
 50
87.613782
 51
121.149007
  6
CONTINUOUS
  0
LINE
  8
WHITE
 10
28.687500
 20
66.624439
 30
0.000000
 11
25.606250
 21
67.580689
 31
0.000000
  6
CONTINUOUS
  0
ARC
  8
WHITE
 10
28.550248
 20
63.570278
 30
0.000000
 40
4.974989
 50
93.315775
 51
126.281978
  6
CONTINUOUS
  0
LINE
  8
WHITE
 10
28.262500
 20
68.536939
 30
0.000000
 11
29.431250
 21
68.643189
 31
0.000000
  6
CONTINUOUS
  0
LINE
  8
WHITE
 10
29.431250
 20
68.643189
 30
0.000000
 11
32.406250
 21
68.855689
 31
0.000000
  6
CONTINUOUS
  0
LINE
  8
WHITE
 10
32.406250
 20
68.855689
 30
0.000000
 11
34.425000
 21
68.855689
 31
0.000000
  6
CONTINUOUS
  0
LINE
  8
WHITE
 10
34.425000
 20
68.855689
 30
0.000000
 11
36.125000
 21
68.749439
 31
0.000000
  6
CONTINUOUS
  0
LINE
  8
WHITE
 10
36.125000
 20
68.749439
 30
0.000000
 11
37.718750
 21
68.430689
 31
0.000000
  6
CONTINUOUS
  0
LINE
  8
WHITE
 10
37.718750
 20
68.430689
 30
0.000000
 11
38.356250
 21
68.005689
 31
0.000000
  6
CONTINUOUS
  0
LINE
  8
WHITE
 10
38.356250
 20
68.005689
 30
0.000000
 11
39.206250
 21
67.368189
 31
0.000000
  6
CONTINUOUS
  0
LINE
  8
WHITE
 10
39.206250
 20
67.368189
 30
0.000000
 11
40.268750
 21
65.880689
 31
0.000000
  6
CONTINUOUS
  0
LINE
  8
WHITE
 10
40.268750
 20
65.880689
 30
0.000000
 11
41.225000
 21
63.543189
 31
0.000000
  6
CONTINUOUS
  0
LINE
  8
WHITE
 10
41.225000
 20
63.543189
 30
0.000000
 11
42.181250
 21
60.780689
 31
0.000000
  6
CONTINUOUS
  0
LINE
  8
WHITE
 10
42.181250
 20
60.780689
 30
0.000000
 11
42.500000
 21
59.080689
 31
0.000000
  6
CONTINUOUS
  0
LINE
  8
WHITE
 10
42.500000
 20
59.080689
 30
0.000000
 11
43.243750
 21
56.955689
 31
0.000000
  6
CONTINUOUS
  0
LINE
  8
WHITE
 10
43.243750
 20
56.955689
 30
0.000000
 11
43.881250
 21
56.105689
 31
0.000000
  6
CONTINUOUS
  0
LINE
  8
WHITE
 10
43.881250
 20
56.105689
 30
0.000000
 11
44.518750
 21
54.830689
 31
0.000000
  6
CONTINUOUS
  0
LINE
  8
WHITE
 10
44.518750
 20
54.830689
 30
0.000000
 11
44.837500
 21
53.555689
 31
0.000000
  6
CONTINUOUS
  0
LINE
  8
WHITE
 10
44.837500
 20
53.555689
 30
0.000000
 11
44.837500
 21
52.386939
 31
0.000000
  6
CONTINUOUS
  0
LINE
  8
WHITE
 10
44.837500
 20
52.386939
 30
0.000000
 11
44.731250
 21
50.368189
 31
0.000000
  6
CONTINUOUS
  0
LINE
  8
WHITE
 10
44.731250
 20
50.368189
 30
0.000000
 11
44.943750
 21
48.880689
 31
0.000000
  6
CONTINUOUS
  0
LINE
  8
WHITE
 10
44.943750
 20
48.880689
 30
0.000000
 11
45.262500
 21
47.711939
 31
0.000000
  6
CONTINUOUS
  0
LINE
  8
WHITE
 10
45.262500
 20
47.711939
 30
0.000000
 11
45.475000
 21
46.543189
 31
0.000000
  6
CONTINUOUS
  0
LINE
  8
WHITE
 10
45.475000
 20
46.543189
 30
0.000000
 11
45.262500
 21
40.593189
 31
0.000000
  6
CONTINUOUS
  0
LINE
  8
WHITE
 10
45.262500
 20
40.593189
 30
0.000000
 11
46.431250
 21
30.711939
 31
0.000000
  6
CONTINUOUS
  0
LINE
  8
WHITE
 10
46.431250
 20
30.711939
 30
0.000000
 11
46.431250
 21
30.393189
 31
0.000000
  6
CONTINUOUS
  0
LINE
  8
WHITE
 10
46.431250
 20
30.393189
 30
0.000000
 11
46.750000
 21
28.799439
 31
0.000000
  6
CONTINUOUS
  0
LINE
  8
WHITE
 10
46.750000
 20
28.799439
 30
0.000000
 11
46.750000
 21
26.461939
 31
0.000000
  6
CONTINUOUS
  0
LINE
  8
WHITE
 10
46.750000
 20
26.461939
 30
0.000000
 11
46.218750
 21
23.699439
 31
0.000000
  6
CONTINUOUS
  0
LINE
  8
WHITE
 10
46.218750
 20
23.699439
 30
0.000000
 11
46.218750
 21
22.424439
 31
0.000000
  6
CONTINUOUS
  0
LINE
  8
WHITE
 10
46.218750
 20
22.424439
 30
0.000000
 11
46.325000
 21
21.361939
 31
0.000000
  6
CONTINUOUS
  0
LINE
  8
WHITE
 10
46.325000
 20
21.361939
 30
0.000000
 11
46.643750
 21
20.405689
 31
0.000000
  6
CONTINUOUS
  0
ARC
  8
WHITE
 10
38.051092
 20
14.400523
 30
0.000000
 40
10.483120
 50
-7.267219
 51
34.948610
  6
CONTINUOUS
  0
LINE
  8
WHITE
 10
48.450000
 20
13.074439
 30
0.000000
 11
47.918750
 21
11.480689
 31
0.000000
  6
CONTINUOUS
  0
LINE
  8
WHITE
 10
47.918750
 20
11.480689
 30
0.000000
 11
47.068750
 21
9.993189
 31
0.000000
  6
CONTINUOUS
  0
ARC
  8
WHITE
 10
24.667425
 20
25.731693
 30
0.000000
 40
27.377361
 50
-69.357896
 51
-35.090735
  6
CONTINUOUS
  0
ARC
  8
WHITE
 10
33.191634
 20
5.730444
 30
0.000000
 40
5.730444
 50
-135.384464
 51
-78.656587
  6
CONTINUOUS
  0
ARC
  8
WHITE
 10
26.110945
 20
-2.969769
 30
0.000000
 40
5.556009
 50
57.300312
 51
124.675209
  6
CONTINUOUS
  0
ARC
  8
WHITE
 10
18.793566
 20
6.483079
 30
0.000000
 40
6.412946
 50
-96.545863
 51
-49.599111
  6
CONTINUOUS
  0
LINE
  8
WHITE
 10
18.062500
 20
0.111939
 30
0.000000
 11
16.472600
 21
0.319317
 31
0.000000
  6
CONTINUOUS
  0
ARC
  8
WHITE
 10
16.601939
 20
1.310918
 30
0.000000
 40
1.000000
 50
174.079379
 51
262.568592
  6
CONTINUOUS
  0
LINE
  8
WHITE
 10
15.607274
 20
1.414068
 30
0.000000
 11
16.994245
 21
14.788440
 31
0.000000
  6
CONTINUOUS
  0
LINE
  8
WHITE
 10
16.994245
 20
14.788440
 30
0.000000
 11
15.406250
 21
14.986939
 31
0.000000
  6
CONTINUOUS
  0
LINE
  8
WHITE
 10
15.406250
 20
14.986939
 30
0.000000
 11
14.024959
 21
1.667349
 31
0.000000
  6
CONTINUOUS
  0
ARC
  8
WHITE
 10
13.030293
 20
1.770500
 30
0.000000
 40
1.000000
 50
-97.594643
 51
-5.920621
  6
CONTINUOUS
  0
LINE
  8
WHITE
 10
12.898130
 20
0.779272
 30
0.000000
 11
10.731250
 21
1.068189
 31
0.000000
  6
CONTINUOUS
  0
LINE
  8
WHITE
 10
10.731250
 20
1.068189
 30
0.000000
 11
9.031250
 21
1.493189
 31
0.000000
  6
CONTINUOUS
  0
LINE
  8
WHITE
 10
9.031250
 20
1.493189
 30
0.000000
 11
7.650000
 21
2.661939
 31
0.000000
  6
CONTINUOUS
  0
ARC
  8
WHITE
 10
12.529089
 20
8.116669
 30
0.000000
 40
7.318442
 50
158.126742
 51
228.188343
  6
CONTINUOUS
  0
ARC
  8
WHITE
 10
-10.307218
 20
14.568375
 30
0.000000
 40
16.471490
 50
-13.071078
 51
30.182194
  6
CONTINUOUS
  0
LINE
  8
WHITE
 10
3.931250
 20
22.849439
 30
0.000000
 11
2.868750
 21
25.186939
 31
0.000000
  6
CONTINUOUS
  0
LINE
  8
WHITE
 10
2.868750
 20
25.186939
 30
0.000000
 11
2.125000
 21
26.886939
 31
0.000000
  6
CONTINUOUS
  0
LINE
  8
WHITE
 10
2.125000
 20
26.886939
 30
0.000000
 11
1.593750
 21
29.543189
 31
0.000000
  6
CONTINUOUS
  0
LINE
  8
WHITE
 10
1.593750
 20
29.543189
 30
0.000000
 11
0.956250
 21
32.624439
 31
0.000000
  6
CONTINUOUS
  0
LINE
  8
WHITE
 10
0.956250
 20
32.624439
 30
0.000000
 11
0.531250
 21
34.961939
 31
0.000000
  6
CONTINUOUS
  0
LINE
  8
WHITE
 10
0.531250
 20
34.961939
 30
0.000000
 11
0.106250
 21
38.680689
 31
0.000000
  6
CONTINUOUS
  0
LINE
  8
WHITE
 10
0.106250
 20
38.680689
 30
0.000000
 11
0.000000
 21
41.230689
 31
0.000000
  6
CONTINUOUS
  0
LINE
  8
WHITE
 10
0.000000
 20
41.230689
 30
0.000000
 11
0.531250
 21
43.355689
 31
0.000000
  6
CONTINUOUS
  0
LINE
  8
WHITE
 10
0.531250
 20
43.355689
 30
0.000000
 11
1.593750
 21
45.480689
 31
0.000000
  6
CONTINUOUS
  0
LINE
  8
WHITE
 10
1.593750
 20
45.480689
 30
0.000000
 11
2.337500
 21
47.605689
 31
0.000000
  6
CONTINUOUS
  0
LINE
  8
WHITE
 10
2.337500
 20
47.605689
 30
0.000000
 11
2.337500
 21
50.793189
 31
0.000000
  6
CONTINUOUS
  0
LINE
  8
WHITE
 10
2.337500
 20
50.793189
 30
0.000000
 11
1.912500
 21
52.599439
 31
0.000000
  6
CONTINUOUS
  0
LINE
  8
WHITE
 10
1.912500
 20
52.599439
 30
0.000000
 11
1.062500
 21
54.299439
 31
0.000000
  6
CONTINUOUS
  0
LINE
  8
WHITE
 10
1.062500
 20
54.299439
 30
0.000000
 11
0.743750
 21
55.574439
 31
0.000000
  6
CONTINUOUS
  0
LINE
  8
WHITE
 10
0.743750
 20
55.574439
 30
0.000000
 11
0.531250
 21
57.699439
 31
0.000000
  6
CONTINUOUS
  0
LINE
  8
WHITE
 10
0.531250
 20
57.699439
 30
0.000000
 11
0.850000
 21
60.355689
 31
0.000000
  6
CONTINUOUS
  0
LINE
  8
WHITE
 10
0.850000
 20
60.355689
 30
0.000000
 11
1.487500
 21
61.630689
 31
0.000000
  6
CONTINUOUS
  0
LINE
  8
WHITE
 10
1.487500
 20
61.630689
 30
0.000000
 11
2.337500
 21
63.649439
 31
0.000000
  6
CONTINUOUS
  0
LINE
  8
WHITE
 10
2.337500
 20
63.649439
 30
0.000000
 11
3.506250
 21
64.499439
 31
0.000000
  6
CONTINUOUS
  0
LINE
  8
WHITE
 10
3.506250
 20
64.499439
 30
0.000000
 11
5.843750
 21
64.499439
 31
0.000000
  6
CONTINUOUS
  0
ARC
  8
WHITE
 10
6.958906
 20
59.410433
 30
0.000000
 40
5.209756
 50
54.455766
 51
102.359883
  6
CONTINUOUS
  0
ARC
  8
WHITE
 10
9.278521
 20
59.940784
 30
0.000000
 40
3.775814
 50
79.177413
 51
133.200999
  6
CONTINUOUS
  0
LINE
  8
WHITE
 10
6.693750
 20
62.693189
 30
0.000000
 11
6.268750
 21
62.374439
 31
0.000000
  6
CONTINUOUS
  0
LINE
  8
WHITE
 10
6.268750
 20
62.374439
 30
0.000000
 11
6.906250
 21
62.480689
 31
0.000000
  6
CONTINUOUS
  0
ARC
  8
WHITE
 10
8.871875
 20
52.705689
 30
0.000000
 40
9.970672
 50
78.630197
 51
101.369803
  6
CONTINUOUS
  0
ARC
  8
WHITE
 10
1.454526
 20
81.316249
 30
0.000000
 40
21.043254
 50
-72.877469
 51
-63.519712
  6
CONTINUOUS
  0
LINE
  8
WHITE
 10
7.650000
 20
61.205689
 30
0.000000
 11
6.906250
 21
60.886939
 31
0.000000
  6
CONTINUOUS
  0
LINE
  8
WHITE
 10
6.906250
 20
60.886939
 30
0.000000
 11
7.118750
 21
60.674439
 31
0.000000
  6
CONTINUOUS
  0
LINE
  8
WHITE
 10
7.118750
 20
60.674439
 30
0.000000
 11
7.437500
 21
60.674439
 31
0.000000
  6
CONTINUOUS
  0
ARC
  8
WHITE
 10
9.436407
 20
55.577591
 30
0.000000
 40
5.474805
 50
65.721444
 51
111.414364
  6
CONTINUOUS
  0
ARC
  8
WHITE
 10
13.165516
 20
52.170081
 30
0.000000
 40
8.527177
 50
99.981490
 51
129.372236
  6
CONTINUOUS
  0
LINE
  8
WHITE
 10
7.756250
 20
58.761939
 30
0.000000
 11
7.225000
 21
58.443189
 31
0.000000
  6
CONTINUOUS
  0
LINE
  8
WHITE
 10
7.225000
 20
58.443189
 30
0.000000
 11
7.650000
 21
58.336939
 31
0.000000
  6
CONTINUOUS
  0
ARC
  8
WHITE
 10
9.237044
 20
49.518902
 30
0.000000
 40
8.959714
 50
67.652389
 51
100.202699
  6
CONTINUOUS
  0
ARC
  8
WHITE
 10
12.800000
 20
46.343189
 30
0.000000
 40
11.463565
 50
90.780974
 51
117.291513
  6
CONTINUOUS
  0
ARC
  8
WHITE
 10
9.428297
 20
45.801631
 30
0.000000
 40
10.893310
 50
71.068473
 51
99.962315
  6
CONTINUOUS
  0
LINE
  8
WHITE
 10
12.962500
 20
56.105689
 30
0.000000
 11
13.812500
 21
55.786939
 31
0.000000
  6
CONTINUOUS
  0
ARC
  8
WHITE
 10
13.661819
 20
41.578047
 30
0.000000
 40
14.209691
 50
89.392420
 51
109.927366
  6
CONTINUOUS
  0
ARC
  8
WHITE
 10
6.776525
 20
35.605423
 30
0.000000
 40
19.439090
 50
67.429932
 51
83.969513
  6
CONTINUOUS
  0
ARC
  8
WHITE
 10
16.953151
 20
27.749314
 30
0.000000
 40
25.948868
 50
96.007228
 51
107.529349
  6
CONTINUOUS
  0
LINE
  8
WHITE
 10
9.137500
 20
52.493189
 30
0.000000
 11
9.881250
 21
52.174439
 31
0.000000
  6
CONTINUOUS
  0
ARC
  8
WHITE
 10
8.385410
 20
42.045333
 30
0.000000
 40
10.238961
 50
58.690148
 51
81.599423
  6
CONTINUOUS
  0
ARC
  8
WHITE
 10
16.358137
 20
32.206043
 30
0.000000
 40
18.775370
 50
98.119771
 51
111.916950
  6
CONTINUOUS
  0
ARC
  8
WHITE
 10
9.113091
 20
41.483392
 30
0.000000
 40
8.144494
 50
57.461409
 51
88.333133
  6
CONTINUOUS
  0
ARC
  8
WHITE
 10
13.300000
 20
40.996314
 30
0.000000
 40
7.355677
 50
88.490643
 51
119.581844
  6
CONTINUOUS
  0
ARC
  8
WHITE
 10
9.494133
 20
39.231729
 30
0.000000
 40
8.163327
 50
58.936994
 51
88.774328
  6
CONTINUOUS
  0
ARC
  8
WHITE
 10
13.640759
 20
38.770098
 30
0.000000
 40
7.454628
 50
89.496634
 51
119.344912
  6
CONTINUOUS
  0
ARC
  8
WHITE
 10
9.871467
 20
37.089148
 30
0.000000
 40
8.179864
 50
65.364071
 51
89.187218
  6
CONTINUOUS
  0
ARC
  8
WHITE
 10
13.778383
 20
37.076704
 30
0.000000
 40
7.464308
 50
93.818803
 51
119.579685
  6
CONTINUOUS
  0
LINE
  8
WHITE
 10
10.093750
 20
43.568189
 30
0.000000
 11
12.006250
 21
43.143189
 31
0.000000
  6
CONTINUOUS
  0
LINE
  8
WHITE
 10
12.006250
 20
43.143189
 30
0.000000
 11
13.281250
 21
42.505689
 31
0.000000
  6
CONTINUOUS
  0
LINE
  8
WHITE
 10
36.762500
 20
32.836939
 30
0.000000
 11
36.868750
 21
32.624439
 31
0.000000
  6
CONTINUOUS
  0
LINE
  8
WHITE
 10
36.868750
 20
32.624439
 30
0.000000
 11
37.081250
 21
32.411939
 31
0.000000
  6
CONTINUOUS
  0
LINE
  8
WHITE
 10
37.081250
 20
32.411939
 30
0.000000
 11
37.187500
 21
32.199439
 31
0.000000
  6
CONTINUOUS
  0
LINE
  8
WHITE
 10
37.187500
 20
32.199439
 30
0.000000
 11
37.293750
 21
31.880689
 31
0.000000
  6
CONTINUOUS
  0
LINE
  8
WHITE
 10
37.293750
 20
31.880689
 30
0.000000
 11
37.612500
 21
31.243189
 31
0.000000
  6
CONTINUOUS
  0
LINE
  8
WHITE
 10
37.612500
 20
31.243189
 30
0.000000
 11
37.825000
 21
31.030689
 31
0.000000
  6
CONTINUOUS
  0
LINE
  8
WHITE
 10
37.825000
 20
31.030689
 30
0.000000
 11
38.037500
 21
30.711939
 31
0.000000
  6
CONTINUOUS
  0
LINE
  8
WHITE
 10
38.037500
 20
30.711939
 30
0.000000
 11
38.462500
 21
30.286939
 31
0.000000
  6
CONTINUOUS
  0
LINE
  8
WHITE
 10
38.462500
 20
30.286939
 30
0.000000
 11
38.675000
 21
29.968189
 31
0.000000
  6
CONTINUOUS
  0
LINE
  8
WHITE
 10
38.675000
 20
29.968189
 30
0.000000
 11
38.993750
 21
29.755689
 31
0.000000
  6
CONTINUOUS
  0
LINE
  8
WHITE
 10
38.993750
 20
29.755689
 30
0.000000
 11
39.206250
 21
29.543189
 31
0.000000
  6
CONTINUOUS
  0
LINE
  8
WHITE
 10
39.206250
 20
29.543189
 30
0.000000
 11
39.418750
 21
29.436939
 31
0.000000
  6
CONTINUOUS
  0
LINE
  8
WHITE
 10
39.418750
 20
29.436939
 30
0.000000
 11
39.631250
 21
29.224439
 31
0.000000
  6
CONTINUOUS
  0
LINE
  8
WHITE
 10
39.631250
 20
29.224439
 30
0.000000
 11
40.056250
 21
29.011939
 31
0.000000
  6
CONTINUOUS
  0
LINE
  8
WHITE
 10
40.056250
 20
29.011939
 30
0.000000
 11
40.375000
 21
28.905689
 31
0.000000
  6
CONTINUOUS
  0
LINE
  8
WHITE
 10
40.375000
 20
28.905689
 30
0.000000
 11
40.906250
 21
28.905689
 31
0.000000
  6
CONTINUOUS
  0
LINE
  8
WHITE
 10
40.906250
 20
28.905689
 30
0.000000
 11
41.225000
 21
29.011939
 31
0.000000
  6
CONTINUOUS
  0
LINE
  8
WHITE
 10
41.225000
 20
29.011939
 30
0.000000
 11
41.650000
 21
29.224439
 31
0.000000
  6
CONTINUOUS
  0
LINE
  8
WHITE
 10
41.650000
 20
29.224439
 30
0.000000
 11
41.968750
 21
29.543189
 31
0.000000
  6
CONTINUOUS
  0
LINE
  8
WHITE
 10
41.968750
 20
29.543189
 30
0.000000
 11
42.075000
 21
29.755689
 31
0.000000
  6
CONTINUOUS
  0
LINE
  8
WHITE
 10
42.075000
 20
29.755689
 30
0.000000
 11
42.181250
 21
30.074439
 31
0.000000
  6
CONTINUOUS
  0
LINE
  8
WHITE
 10
42.181250
 20
30.074439
 30
0.000000
 11
42.181250
 21
30.286939
 31
0.000000
  6
CONTINUOUS
  0
LINE
  8
WHITE
 10
42.181250
 20
30.286939
 30
0.000000
 11
42.287500
 21
30.499439
 31
0.000000
  6
CONTINUOUS
  0
LINE
  8
WHITE
 10
42.287500
 20
30.499439
 30
0.000000
 11
42.287500
 21
30.818189
 31
0.000000
  6
CONTINUOUS
  0
LINE
  8
WHITE
 10
42.287500
 20
30.818189
 30
0.000000
 11
42.181250
 21
31.243189
 31
0.000000
  6
CONTINUOUS
  0
LINE
  8
WHITE
 10
42.181250
 20
31.243189
 30
0.000000
 11
42.181250
 21
31.455689
 31
0.000000
  6
CONTINUOUS
  0
LINE
  8
WHITE
 10
42.181250
 20
31.455689
 30
0.000000
 11
42.075000
 21
31.668189
 31
0.000000
  6
CONTINUOUS
  0
LINE
  8
WHITE
 10
42.075000
 20
31.668189
 30
0.000000
 11
42.075000
 21
31.986939
 31
0.000000
  6
CONTINUOUS
  0
LINE
  8
WHITE
 10
42.075000
 20
31.986939
 30
0.000000
 11
41.862500
 21
32.624439
 31
0.000000
  6
CONTINUOUS
  0
LINE
  8
WHITE
 10
41.862500
 20
32.624439
 30
0.000000
 11
41.862500
 21
33.049439
 31
0.000000
  6
CONTINUOUS
  0
LINE
  8
WHITE
 10
41.862500
 20
33.049439
 30
0.000000
 11
41.756250
 21
33.474439
 31
0.000000
  6
CONTINUOUS
  0
LINE
  8
WHITE
 10
41.756250
 20
33.474439
 30
0.000000
 11
41.543750
 21
33.899439
 31
0.000000
  6
CONTINUOUS
  0
LINE
  8
WHITE
 10
41.543750
 20
33.899439
 30
0.000000
 11
41.012500
 21
36.024439
 31
0.000000
  6
CONTINUOUS
  0
LINE
  8
WHITE
 10
41.012500
 20
36.024439
 30
0.000000
 11
40.800000
 21
36.343189
 31
0.000000
  6
CONTINUOUS
  0
LINE
  8
WHITE
 10
40.800000
 20
36.343189
 30
0.000000
 11
40.693750
 21
36.768189
 31
0.000000
  6
CONTINUOUS
  0
LINE
  8
WHITE
 10
40.693750
 20
36.768189
 30
0.000000
 11
40.162500
 21
38.361939
 31
0.000000
  6
CONTINUOUS
  0
LINE
  8
WHITE
 10
40.162500
 20
38.361939
 30
0.000000
 11
39.950000
 21
38.574439
 31
0.000000
  6
CONTINUOUS
  0
LINE
  8
WHITE
 10
39.950000
 20
38.574439
 30
0.000000
 11
39.737500
 21
38.999439
 31
0.000000
  6
CONTINUOUS
  0
LINE
  8
WHITE
 10
39.737500
 20
38.999439
 30
0.000000
 11
39.737500
 21
39.211939
 31
0.000000
  6
CONTINUOUS
  0
LINE
  8
WHITE
 10
39.737500
 20
39.211939
 30
0.000000
 11
39.631250
 21
39.530689
 31
0.000000
  6
CONTINUOUS
  0
LINE
  8
WHITE
 10
39.631250
 20
39.530689
 30
0.000000
 11
39.525000
 21
39.743189
 31
0.000000
  6
CONTINUOUS
  0
LINE
  8
WHITE
 10
39.525000
 20
39.743189
 30
0.000000
 11
39.418750
 21
39.849439
 31
0.000000
  6
CONTINUOUS
  0
LINE
  8
WHITE
 10
39.418750
 20
39.849439
 30
0.000000
 11
39.312500
 21
40.061939
 31
0.000000
  6
CONTINUOUS
  0
LINE
  8
WHITE
 10
39.312500
 20
40.061939
 30
0.000000
 11
39.312500
 21
40.274439
 31
0.000000
  6
CONTINUOUS
  0
LINE
  8
WHITE
 10
39.312500
 20
40.274439
 30
0.000000
 11
39.206250
 21
40.486939
 31
0.000000
  6
CONTINUOUS
  0
LINE
  8
WHITE
 10
39.206250
 20
40.486939
 30
0.000000
 11
38.993750
 21
41.336939
 31
0.000000
  6
CONTINUOUS
  0
LINE
  8
WHITE
 10
38.993750
 20
41.336939
 30
0.000000
 11
38.993750
 21
41.655689
 31
0.000000
  6
CONTINUOUS
  0
LINE
  8
WHITE
 10
38.993750
 20
41.655689
 30
0.000000
 11
38.887500
 21
41.974439
 31
0.000000
  6
CONTINUOUS
  0
LINE
  8
WHITE
 10
38.887500
 20
41.974439
 30
0.000000
 11
38.887500
 21
42.293189
 31
0.000000
  6
CONTINUOUS
  0
LINE
  8
WHITE
 10
38.887500
 20
42.293189
 30
0.000000
 11
38.781250
 21
42.505689
 31
0.000000
  6
CONTINUOUS
  0
LINE
  8
WHITE
 10
38.781250
 20
42.505689
 30
0.000000
 11
38.675000
 21
42.824439
 31
0.000000
  6
CONTINUOUS
  0
LINE
  8
WHITE
 10
38.675000
 20
42.824439
 30
0.000000
 11
38.675000
 21
43.036939
 31
0.000000
  6
CONTINUOUS
  0
LINE
  8
WHITE
 10
38.675000
 20
43.036939
 30
0.000000
 11
38.462500
 21
43.249439
 31
0.000000
  6
CONTINUOUS
  0
LINE
  8
WHITE
 10
38.462500
 20
43.249439
 30
0.000000
 11
38.250000
 21
43.355689
 31
0.000000
  6
CONTINUOUS
  0
LINE
  8
WHITE
 10
38.250000
 20
43.355689
 30
0.000000
 11
37.506250
 21
43.355689
 31
0.000000
  6
CONTINUOUS
  0
LINE
  8
WHITE
 10
37.506250
 20
43.355689
 30
0.000000
 11
37.187500
 21
43.249439
 31
0.000000
  6
CONTINUOUS
  0
LINE
  8
WHITE
 10
37.187500
 20
43.249439
 30
0.000000
 11
36.868750
 21
43.249439
 31
0.000000
  6
CONTINUOUS
  0
LINE
  8
WHITE
 10
36.868750
 20
43.249439
 30
0.000000
 11
36.443750
 21
43.036939
 31
0.000000
  6
CONTINUOUS
  0
LINE
  8
WHITE
 10
36.443750
 20
43.036939
 30
0.000000
 11
36.231250
 21
43.036939
 31
0.000000
  6
CONTINUOUS
  0
LINE
  8
WHITE
 10
36.231250
 20
43.036939
 30
0.000000
 11
36.018750
 21
42.930689
 31
0.000000
  6
CONTINUOUS
  0
LINE
  8
WHITE
 10
36.018750
 20
42.930689
 30
0.000000
 11
35.912500
 21
42.824439
 31
0.000000
  6
CONTINUOUS
  0
LINE
  8
WHITE
 10
35.912500
 20
42.824439
 30
0.000000
 11
35.062500
 21
42.399439
 31
0.000000
  6
CONTINUOUS
  0
LINE
  8
WHITE
 10
35.062500
 20
42.399439
 30
0.000000
 11
34.743750
 21
42.186939
 31
0.000000
  6
CONTINUOUS
  0
LINE
  8
WHITE
 10
34.743750
 20
42.186939
 30
0.000000
 11
34.425000
 21
42.080689
 31
0.000000
  6
CONTINUOUS
  0
LINE
  8
WHITE
 10
34.425000
 20
42.080689
 30
0.000000
 11
34.212500
 21
41.868189
 31
0.000000
  6
CONTINUOUS
  0
LINE
  8
WHITE
 10
34.212500
 20
41.868189
 30
0.000000
 11
33.893750
 21
41.868189
 31
0.000000
  6
CONTINUOUS
  0
LINE
  8
WHITE
 10
33.893750
 20
41.868189
 30
0.000000
 11
33.575000
 21
41.761939
 31
0.000000
  6
CONTINUOUS
  0
LINE
  8
WHITE
 10
33.575000
 20
41.761939
 30
0.000000
 11
33.150000
 21
41.761939
 31
0.000000
  6
CONTINUOUS
  0
LINE
  8
WHITE
 10
33.150000
 20
41.761939
 30
0.000000
 11
32.831250
 21
41.655689
 31
0.000000
  6
CONTINUOUS
  0
LINE
  8
WHITE
 10
32.831250
 20
41.655689
 30
0.000000
 11
32.618750
 21
41.655689
 31
0.000000
  6
CONTINUOUS
  0
LINE
  8
WHITE
 10
32.618750
 20
41.655689
 30
0.000000
 11
32.406250
 21
41.549439
 31
0.000000
  6
CONTINUOUS
  0
LINE
  8
WHITE
 10
32.406250
 20
41.549439
 30
0.000000
 11
32.193750
 21
41.549439
 31
0.000000
  6
CONTINUOUS
  0
LINE
  8
WHITE
 10
32.193750
 20
41.549439
 30
0.000000
 11
31.981250
 21
41.443189
 31
0.000000
  6
CONTINUOUS
  0
LINE
  8
WHITE
 10
31.981250
 20
41.443189
 30
0.000000
 11
31.768750
 21
41.230689
 31
0.000000
  6
CONTINUOUS
  0
LINE
  8
WHITE
 10
31.768750
 20
41.230689
 30
0.000000
 11
31.556250
 21
40.593189
 31
0.000000
  6
CONTINUOUS
  0
LINE
  8
WHITE
 10
31.556250
 20
40.593189
 30
0.000000
 11
31.556250
 21
39.530689
 31
0.000000
  6
CONTINUOUS
  0
LINE
  8
WHITE
 10
31.556250
 20
39.530689
 30
0.000000
 11
31.662500
 21
39.211939
 31
0.000000
  6
CONTINUOUS
  0
LINE
  8
WHITE
 10
31.662500
 20
39.211939
 30
0.000000
 11
31.662500
 21
38.468189
 31
0.000000
  6
CONTINUOUS
  0
LINE
  8
WHITE
 10
31.662500
 20
38.468189
 30
0.000000
 11
31.768750
 21
38.149439
 31
0.000000
  6
CONTINUOUS
  0
LINE
  8
WHITE
 10
31.768750
 20
38.149439
 30
0.000000
 11
31.768750
 21
37.724439
 31
0.000000
  6
CONTINUOUS
  0
LINE
  8
WHITE
 10
31.768750
 20
37.724439
 30
0.000000
 11
31.875000
 21
37.299439
 31
0.000000
  6
CONTINUOUS
  0
LINE
  8
WHITE
 10
31.875000
 20
37.299439
 30
0.000000
 11
31.875000
 21
36.980689
 31
0.000000
  6
CONTINUOUS
  0
LINE
  8
WHITE
 10
31.875000
 20
36.980689
 30
0.000000
 11
31.981250
 21
36.555689
 31
0.000000
  6
CONTINUOUS
  0
LINE
  8
WHITE
 10
31.981250
 20
36.555689
 30
0.000000
 11
31.981250
 21
36.130689
 31
0.000000
  6
CONTINUOUS
  0
LINE
  8
WHITE
 10
31.981250
 20
36.130689
 30
0.000000
 11
32.087500
 21
35.811939
 31
0.000000
  6
CONTINUOUS
  0
LINE
  8
WHITE
 10
32.087500
 20
35.811939
 30
0.000000
 11
32.087500
 21
35.493189
 31
0.000000
  6
CONTINUOUS
  0
LINE
  8
WHITE
 10
32.087500
 20
35.493189
 30
0.000000
 11
32.193750
 21
35.174439
 31
0.000000
  6
CONTINUOUS
  0
LINE
  8
WHITE
 10
32.193750
 20
35.174439
 30
0.000000
 11
32.193750
 21
34.855689
 31
0.000000
  6
CONTINUOUS
  0
LINE
  8
WHITE
 10
32.193750
 20
34.855689
 30
0.000000
 11
32.300000
 21
34.643189
 31
0.000000
  6
CONTINUOUS
  0
LINE
  8
WHITE
 10
32.300000
 20
34.643189
 30
0.000000
 11
32.406250
 21
34.324439
 31
0.000000
  6
CONTINUOUS
  0
LINE
  8
WHITE
 10
32.406250
 20
34.324439
 30
0.000000
 11
32.406250
 21
34.111939
 31
0.000000
  6
CONTINUOUS
  0
LINE
  8
WHITE
 10
32.406250
 20
34.111939
 30
0.000000
 11
32.618750
 21
33.793189
 31
0.000000
  6
CONTINUOUS
  0
LINE
  8
WHITE
 10
32.618750
 20
33.793189
 30
0.000000
 11
32.725000
 21
33.580689
 31
0.000000
  6
CONTINUOUS
  0
LINE
  8
WHITE
 10
32.725000
 20
33.580689
 30
0.000000
 11
33.150000
 21
33.155689
 31
0.000000
  6
CONTINUOUS
  0
LINE
  8
WHITE
 10
33.150000
 20
33.155689
 30
0.000000
 11
33.362500
 21
33.155689
 31
0.000000
  6
CONTINUOUS
  0
LINE
  8
WHITE
 10
33.362500
 20
33.155689
 30
0.000000
 11
33.681250
 21
33.049439
 31
0.000000
  6
CONTINUOUS
  0
LINE
  8
WHITE
 10
33.681250
 20
33.049439
 30
0.000000
 11
35.062500
 21
33.049439
 31
0.000000
  6
CONTINUOUS
  0
LINE
  8
WHITE
 10
35.062500
 20
33.049439
 30
0.000000
 11
35.381250
 21
33.155689
 31
0.000000
  6
CONTINUOUS
  0
LINE
  8
WHITE
 10
35.381250
 20
33.155689
 30
0.000000
 11
35.593750
 21
33.155689
 31
0.000000
  6
CONTINUOUS
  0
LINE
  8
WHITE
 10
35.593750
 20
33.155689
 30
0.000000
 11
35.806250
 21
33.261939
 31
0.000000
  6
CONTINUOUS
  0
LINE
  8
WHITE
 10
35.806250
 20
33.261939
 30
0.000000
 11
36.018750
 21
33.261939
 31
0.000000
  6
CONTINUOUS
  0
LINE
  8
WHITE
 10
36.018750
 20
33.261939
 30
0.000000
 11
36.337500
 21
33.155689
 31
0.000000
  6
CONTINUOUS
  0
LINE
  8
WHITE
 10
36.337500
 20
33.155689
 30
0.000000
 11
36.550000
 21
33.049439
 31
0.000000
  6
CONTINUOUS
  0
LINE
  8
WHITE
 10
36.550000
 20
33.049439
 30
0.000000
 11
36.762500
 21
32.836939
 31
0.000000
  6
CONTINUOUS
  0
LINE
  8
WHITE
 10
42.393750
 20
22.318189
 30
0.000000
 11
41.968750
 21
23.168189
 31
0.000000
  6
CONTINUOUS
  0
LINE
  8
WHITE
 10
41.968750
 20
23.168189
 30
0.000000
 11
41.543750
 21
23.593189
 31
0.000000
  6
CONTINUOUS
  0
LINE
  8
WHITE
 10
41.543750
 20
23.593189
 30
0.000000
 11
41.331250
 21
23.699439
 31
0.000000
  6
CONTINUOUS
  0
LINE
  8
WHITE
 10
41.331250
 20
23.699439
 30
0.000000
 11
41.118750
 21
23.911939
 31
0.000000
  6
CONTINUOUS
  0
LINE
  8
WHITE
 10
41.118750
 20
23.911939
 30
0.000000
 11
40.800000
 21
24.018189
 31
0.000000
  6
CONTINUOUS
  0
LINE
  8
WHITE
 10
40.800000
 20
24.018189
 30
0.000000
 11
39.950000
 21
24.868189
 31
0.000000
  6
CONTINUOUS
  0
LINE
  8
WHITE
 10
39.950000
 20
24.868189
 30
0.000000
 11
39.737500
 21
24.974439
 31
0.000000
  6
CONTINUOUS
  0
LINE
  8
WHITE
 10
39.737500
 20
24.974439
 30
0.000000
 11
39.631250
 21
25.186939
 31
0.000000
  6
CONTINUOUS
  0
LINE
  8
WHITE
 10
39.631250
 20
25.186939
 30
0.000000
 11
39.418750
 21
25.399439
 31
0.000000
  6
CONTINUOUS
  0
LINE
  8
WHITE
 10
39.418750
 20
25.399439
 30
0.000000
 11
39.206250
 21
25.824439
 31
0.000000
  6
CONTINUOUS
  0
LINE
  8
WHITE
 10
39.206250
 20
25.824439
 30
0.000000
 11
38.993750
 21
26.036939
 31
0.000000
  6
CONTINUOUS
  0
LINE
  8
WHITE
 10
38.993750
 20
26.036939
 30
0.000000
 11
38.568750
 21
26.249439
 31
0.000000
  6
CONTINUOUS
  0
LINE
  8
WHITE
 10
38.568750
 20
26.249439
 30
0.000000
 11
38.250000
 21
26.355689
 31
0.000000
  6
CONTINUOUS
  0
LINE
  8
WHITE
 10
38.250000
 20
26.355689
 30
0.000000
 11
38.037500
 21
26.461939
 31
0.000000
  6
CONTINUOUS
  0
LINE
  8
WHITE
 10
38.037500
 20
26.461939
 30
0.000000
 11
33.575000
 21
26.461939
 31
0.000000
  6
CONTINUOUS
  0
LINE
  8
WHITE
 10
33.575000
 20
26.461939
 30
0.000000
 11
33.043750
 21
26.355689
 31
0.000000
  6
CONTINUOUS
  0
LINE
  8
WHITE
 10
33.043750
 20
26.355689
 30
0.000000
 11
31.875000
 21
26.355689
 31
0.000000
  6
CONTINUOUS
  0
LINE
  8
WHITE
 10
31.875000
 20
26.355689
 30
0.000000
 11
31.662500
 21
26.249439
 31
0.000000
  6
CONTINUOUS
  0
LINE
  8
WHITE
 10
31.662500
 20
26.249439
 30
0.000000
 11
31.237500
 21
26.249439
 31
0.000000
  6
CONTINUOUS
  0
LINE
  8
WHITE
 10
31.237500
 20
26.249439
 30
0.000000
 11
31.025000
 21
26.143189
 31
0.000000
  6
CONTINUOUS
  0
LINE
  8
WHITE
 10
31.025000
 20
26.143189
 30
0.000000
 11
30.812500
 21
26.143189
 31
0.000000
  6
CONTINUOUS
  0
LINE
  8
WHITE
 10
30.812500
 20
26.143189
 30
0.000000
 11
30.600000
 21
26.036939
 31
0.000000
  6
CONTINUOUS
  0
LINE
  8
WHITE
 10
30.600000
 20
26.036939
 30
0.000000
 11
30.493750
 21
25.930689
 31
0.000000
  6
CONTINUOUS
  0
LINE
  8
WHITE
 10
30.493750
 20
25.930689
 30
0.000000
 11
30.281250
 21
25.611939
 31
0.000000
  6
CONTINUOUS
  0
LINE
  8
WHITE
 10
30.281250
 20
25.611939
 30
0.000000
 11
30.281250
 21
21.361939
 31
0.000000
  6
CONTINUOUS
  0
LINE
  8
WHITE
 10
30.281250
 20
21.361939
 30
0.000000
 11
30.387500
 21
21.149439
 31
0.000000
  6
CONTINUOUS
  0
LINE
  8
WHITE
 10
30.387500
 20
21.149439
 30
0.000000
 11
30.706250
 21
20.936939
 31
0.000000
  6
CONTINUOUS
  0
LINE
  8
WHITE
 10
30.706250
 20
20.936939
 30
0.000000
 11
30.812500
 21
20.936939
 31
0.000000
  6
CONTINUOUS
  0
LINE
  8
WHITE
 10
30.812500
 20
20.936939
 30
0.000000
 11
31.131250
 21
20.830689
 31
0.000000
  6
CONTINUOUS
  0
LINE
  8
WHITE
 10
31.131250
 20
20.830689
 30
0.000000
 11
31.556250
 21
21.043189
 31
0.000000
  6
CONTINUOUS
  0
LINE
  8
WHITE
 10
31.556250
 20
21.043189
 30
0.000000
 11
32.193750
 21
21.255689
 31
0.000000
  6
CONTINUOUS
  0
LINE
  8
WHITE
 10
32.193750
 20
21.255689
 30
0.000000
 11
32.406250
 21
21.361939
 31
0.000000
  6
CONTINUOUS
  0
LINE
  8
WHITE
 10
32.406250
 20
21.361939
 30
0.000000
 11
32.725000
 21
21.468189
 31
0.000000
  6
CONTINUOUS
  0
LINE
  8
WHITE
 10
32.725000
 20
21.468189
 30
0.000000
 11
33.150000
 21
21.680689
 31
0.000000
  6
CONTINUOUS
  0
LINE
  8
WHITE
 10
33.150000
 20
21.680689
 30
0.000000
 11
33.468750
 21
21.786939
 31
0.000000
  6
CONTINUOUS
  0
LINE
  8
WHITE
 10
33.468750
 20
21.786939
 30
0.000000
 11
33.681250
 21
21.893189
 31
0.000000
  6
CONTINUOUS
  0
LINE
  8
WHITE
 10
33.681250
 20
21.893189
 30
0.000000
 11
34.000000
 21
21.893189
 31
0.000000
  6
CONTINUOUS
  0
LINE
  8
WHITE
 10
34.000000
 20
21.893189
 30
0.000000
 11
34.425000
 21
22.105689
 31
0.000000
  6
CONTINUOUS
  0
LINE
  8
WHITE
 10
34.425000
 20
22.105689
 30
0.000000
 11
34.637500
 21
22.105689
 31
0.000000
  6
CONTINUOUS
  0
LINE
  8
WHITE
 10
34.637500
 20
22.105689
 30
0.000000
 11
34.850000
 21
22.211939
 31
0.000000
  6
CONTINUOUS
  0
LINE
  8
WHITE
 10
34.850000
 20
22.211939
 30
0.000000
 11
35.275000
 21
22.318189
 31
0.000000
  6
CONTINUOUS
  0
LINE
  8
WHITE
 10
35.275000
 20
22.318189
 30
0.000000
 11
36.231250
 21
22.318189
 31
0.000000
  6
CONTINUOUS
  0
LINE
  8
WHITE
 10
36.231250
 20
22.318189
 30
0.000000
 11
36.443750
 21
22.211939
 31
0.000000
  6
CONTINUOUS
  0
LINE
  8
WHITE
 10
36.443750
 20
22.211939
 30
0.000000
 11
36.762500
 21
22.105689
 31
0.000000
  6
CONTINUOUS
  0
LINE
  8
WHITE
 10
36.762500
 20
22.105689
 30
0.000000
 11
36.975000
 21
21.893189
 31
0.000000
  6
CONTINUOUS
  0
LINE
  8
WHITE
 10
36.975000
 20
21.893189
 30
0.000000
 11
37.187500
 21
21.574439
 31
0.000000
  6
CONTINUOUS
  0
LINE
  8
WHITE
 10
37.187500
 20
21.574439
 30
0.000000
 11
37.506250
 21
20.936939
 31
0.000000
  6
CONTINUOUS
  0
LINE
  8
WHITE
 10
37.506250
 20
20.936939
 30
0.000000
 11
37.718750
 21
20.299439
 31
0.000000
  6
CONTINUOUS
  0
LINE
  8
WHITE
 10
37.718750
 20
20.299439
 30
0.000000
 11
37.825000
 21
20.086939
 31
0.000000
  6
CONTINUOUS
  0
LINE
  8
WHITE
 10
37.825000
 20
20.086939
 30
0.000000
 11
38.037500
 21
19.768189
 31
0.000000
  6
CONTINUOUS
  0
LINE
  8
WHITE
 10
38.037500
 20
19.768189
 30
0.000000
 11
38.143750
 21
19.555689
 31
0.000000
  6
CONTINUOUS
  0
LINE
  8
WHITE
 10
38.143750
 20
19.555689
 30
0.000000
 11
38.356250
 21
19.236939
 31
0.000000
  6
CONTINUOUS
  0
LINE
  8
WHITE
 10
38.356250
 20
19.236939
 30
0.000000
 11
38.568750
 21
19.024439
 31
0.000000
  6
CONTINUOUS
  0
LINE
  8
WHITE
 10
38.568750
 20
19.024439
 30
0.000000
 11
38.781250
 21
18.705689
 31
0.000000
  6
CONTINUOUS
  0
LINE
  8
WHITE
 10
38.781250
 20
18.705689
 30
0.000000
 11
39.312500
 21
18.174439
 31
0.000000
  6
CONTINUOUS
  0
LINE
  8
WHITE
 10
39.312500
 20
18.174439
 30
0.000000
 11
39.631250
 21
17.961939
 31
0.000000
  6
CONTINUOUS
  0
LINE
  8
WHITE
 10
39.631250
 20
17.961939
 30
0.000000
 11
40.268750
 21
17.643189
 31
0.000000
  6
CONTINUOUS
  0
LINE
  8
WHITE
 10
40.268750
 20
17.643189
 30
0.000000
 11
41.118750
 21
17.643189
 31
0.000000
  6
CONTINUOUS
  0
LINE
  8
WHITE
 10
41.118750
 20
17.643189
 30
0.000000
 11
41.331250
 21
17.749439
 31
0.000000
  6
CONTINUOUS
  0
LINE
  8
WHITE
 10
41.331250
 20
17.749439
 30
0.000000
 11
41.756250
 21
17.749439
 31
0.000000
  6
CONTINUOUS
  0
LINE
  8
WHITE
 10
41.756250
 20
17.749439
 30
0.000000
 11
41.968750
 21
17.855689
 31
0.000000
  6
CONTINUOUS
  0
LINE
  8
WHITE
 10
41.968750
 20
17.855689
 30
0.000000
 11
42.287500
 21
17.961939
 31
0.000000
  6
CONTINUOUS
  0
LINE
  8
WHITE
 10
42.287500
 20
17.961939
 30
0.000000
 11
42.712500
 21
18.386939
 31
0.000000
  6
CONTINUOUS
  0
LINE
  8
WHITE
 10
42.712500
 20
18.386939
 30
0.000000
 11
42.818750
 21
18.599439
 31
0.000000
  6
CONTINUOUS
  0
LINE
  8
WHITE
 10
42.818750
 20
18.599439
 30
0.000000
 11
42.925000
 21
18.918189
 31
0.000000
  6
CONTINUOUS
  0
LINE
  8
WHITE
 10
42.925000
 20
18.918189
 30
0.000000
 11
42.925000
 21
20.618189
 31
0.000000
  6
CONTINUOUS
  0
LINE
  8
WHITE
 10
42.925000
 20
20.618189
 30
0.000000
 11
42.818750
 21
20.830689
 31
0.000000
  6
CONTINUOUS
  0
LINE
  8
WHITE
 10
42.818750
 20
20.830689
 30
0.000000
 11
42.818750
 21
21.043189
 31
0.000000
  6
CONTINUOUS
  0
LINE
  8
WHITE
 10
42.818750
 20
21.043189
 30
0.000000
 11
42.712500
 21
21.255689
 31
0.000000
  6
CONTINUOUS
  0
LINE
  8
WHITE
 10
42.712500
 20
21.255689
 30
0.000000
 11
42.606250
 21
21.574439
 31
0.000000
  6
CONTINUOUS
  0
LINE
  8
WHITE
 10
42.606250
 20
21.574439
 30
0.000000
 11
42.500000
 21
21.786939
 31
0.000000
  6
CONTINUOUS
  0
LINE
  8
WHITE
 10
42.500000
 20
21.786939
 30
0.000000
 11
42.393750
 21
22.105689
 31
0.000000
  6
CONTINUOUS
  0
LINE
  8
WHITE
 10
42.393750
 20
22.105689
 30
0.000000
 11
42.393750
 21
22.318189
 31
0.000000
  6
CONTINUOUS
  0
LINE
  8
WHITE
 10
35.806250
 20
51.111939
 30
0.000000
 11
35.168750
 21
50.686939
 31
0.000000
  6
CONTINUOUS
  0
LINE
  8
WHITE
 10
35.168750
 20
50.686939
 30
0.000000
 11
34.425000
 21
49.411939
 31
0.000000
  6
CONTINUOUS
  0
LINE
  8
WHITE
 10
34.425000
 20
49.411939
 30
0.000000
 11
33.893750
 21
48.136939
 31
0.000000
  6
CONTINUOUS
  0
LINE
  8
WHITE
 10
33.893750
 20
48.136939
 30
0.000000
 11
33.575000
 21
46.755689
 31
0.000000
  6
CONTINUOUS
  0
LINE
  8
WHITE
 10
33.575000
 20
46.755689
 30
0.000000
 11
33.256250
 21
45.480689
 31
0.000000
  6
CONTINUOUS
  0
LINE
  8
WHITE
 10
33.256250
 20
45.480689
 30
0.000000
 11
33.468750
 21
44.843189
 31
0.000000
  6
CONTINUOUS
  0
LINE
  8
WHITE
 10
33.468750
 20
44.843189
 30
0.000000
 11
34.743750
 21
44.843189
 31
0.000000
  6
CONTINUOUS
  0
ARC
  8
WHITE
 10
34.240882
 20
48.425124
 30
0.000000
 40
3.617062
 50
-82.008470
 51
40.896380
  6
CONTINUOUS
  0
LINE
  8
WHITE
 10
36.975000
 20
50.793189
 30
0.000000
 11
35.806250
 21
51.111939
 31
0.000000
  6
CONTINUOUS
  0
ENDSEC
  0
EOF
