  0
SECTION
  2
HEADER
  9
$ACADVER
  1
AC1009
  9
$LIMMIN
 10
0.000000
 20
0.000000
  9
$LIMMAX
 10
52.636520
 20
46.767950
  0
ENDSEC
  0
SECTION
  2
TABLES
  0
TABLE
  2
LTYPE
 70
     4
  0
LTYPE
  2
CONTINUOUS
 70
     0
  3
Solid line
 72
     65
 73
     0
 40
0.000000
  0
LTYPE
  2
HIDDEN
 70
     0
  3
 _ _ _ _ _ _ _ _ _ _ _
 72
     65
 73
     2
 40
0.375000
 49
0.250000
 49
-0.125000
  0
LTYPE
  2
DASHED
 70
     0
  3
 ___ ___ ___ ___ ___ ___ ___ 
 72
     65
 73
     2
 40
0.750000
 49
0.500000
 49
-0.250000
  0
LTYPE
  2
CENTER
 70
     0
  3
___ _ ___ _ ___ _ ___
 72
     65
 73
     4
 40
2.000000
 49
1.250000
 49
-0.250000
 49
0.250000
 49
-0.250000
  0
LTYPE
  2
BORDER
 70
     0
  3
___ ___ . ___ ___ . ___ ___
 72
     65
 73
     6
 40
1.750000
 49
0.500000
 49
-0.250000
 49
0.500000
 49
-0.250000
 49
0.000000
 49
-0.250000
  0
LTYPE
  2
DOT
 70
     0
  3
.................
 72
     65
 73
     2
 40
0.250000
 49
0.000000
 49
-0.250000
  0
LTYPE
  2
DASHDOT
 70
     0
  3
__ . __ . __ . __
 72
     65
 73
     4
 40
1.000000
 49
0.500000
 49
-0.250000
 49
0.000000
 49
-0.250000
  0
LTYPE
  2
DIVIDE
 70
     0
  3
___ .. ___ .. ___ .. ___
 72
     65
 73
     6
 40
1.250000
 49
0.500000
 49
-0.250000
 49
0.000000
 49
-0.250000
 49
0.000000
 49
-0.250000
  0
ENDTAB
  0
TABLE
  2
LAYER
 70
     8
  0
LAYER
  2
BLACK
 70
     0
 62
     1
  6
CONTINUOUS
  0
LAYER
  2
WHITE
 70
     0
 62
     7
  6
CONTINUOUS
  0
LAYER
  2
RED
 70
     0
 62
     1
  6
CONTINUOUS
  0
LAYER
  2
YELLOW
 70
     0
 62
     2
  6
CONTINUOUS
  0
LAYER
  2
GREEN
 70
     0
 62
     3
  6
CONTINUOUS
  0
LAYER
  2
CYAN
 70
     0
 62
     4
  6
CONTINUOUS
  0
LAYER
  2
BLUE
 70
     0
 62
     5
  6
CONTINUOUS
  0
LAYER
  2
MAGENTA
 70
     0
 62
     6
  6
CONTINUOUS
  0
ENDTAB
  0
TABLE
  2
APPID
 70
     1
  0
APPID
  2
TC_BEND_DATA
 70
     0
  0
ENDTAB
  0
ENDSEC
  0
SECTION
  2
BLOCKS
  0
ENDSEC
  0
SECTION
  2
ENTITIES
  0
LINE
  8
WHITE
 10
24.620231
 20
23.587500
 30
0.000000
 11
6.283528
 21
24.292758
 31
0.000000
  6
CONTINUOUS
  0
ARC
  8
WHITE
 10
6.321961
 20
25.292019
 30
0.000000
 40
1.000000
 50
177.709390
 51
267.797402
  6
CONTINUOUS
  0
LINE
  8
WHITE
 10
5.322760
 20
25.331987
 30
0.000000
 11
5.388981
 21
26.987500
 31
0.000000
  6
CONTINUOUS
  0
ARC
  8
WHITE
 10
-3.931417
 20
27.975007
 30
0.000000
 40
9.372566
 50
-6.047994
 51
49.129946
  6
CONTINUOUS
  0
ARC
  8
WHITE
 10
8.898687
 20
38.999341
 30
0.000000
 40
7.768609
 50
86.104364
 51
210.448430
  6
CONTINUOUS
  0
LINE
  8
WHITE
 10
9.426481
 20
46.750000
 30
0.000000
 11
30.357731
 21
43.987500
 31
0.000000
  6
CONTINUOUS
  0
ARC
  8
WHITE
 10
29.351127
 20
38.107558
 30
0.000000
 40
5.965482
 50
-8.872158
 51
80.285541
  6
CONTINUOUS
  0
LINE
  8
WHITE
 10
35.245231
 20
37.187500
 30
0.000000
 11
35.245231
 21
36.018750
 31
0.000000
  6
CONTINUOUS
  0
LINE
  8
WHITE
 10
35.245231
 20
36.018750
 30
0.000000
 11
20.795231
 21
38.250000
 31
0.000000
  6
CONTINUOUS
  0
LINE
  8
WHITE
 10
20.795231
 20
38.250000
 30
0.000000
 11
20.582731
 21
36.550000
 31
0.000000
  6
CONTINUOUS
  0
LINE
  8
WHITE
 10
20.582731
 20
36.550000
 30
0.000000
 11
35.032731
 21
34.318750
 31
0.000000
  6
CONTINUOUS
  0
LINE
  8
WHITE
 10
35.032731
 20
34.318750
 30
0.000000
 11
34.820231
 21
32.512500
 31
0.000000
  6
CONTINUOUS
  0
ARC
  8
WHITE
 10
38.144026
 20
32.036424
 30
0.000000
 40
3.357717
 50
171.848805
 51
249.082284
  6
CONTINUOUS
  0
LINE
  8
WHITE
 10
36.945231
 20
28.900000
 30
0.000000
 11
51.182731
 21
23.693750
 31
0.000000
  6
CONTINUOUS
  0
ARC
  8
WHITE
 10
50.331911
 20
21.551945
 30
0.000000
 40
2.304609
 50
-73.920234
 51
68.334830
  6
CONTINUOUS
  0
LINE
  8
WHITE
 10
50.970231
 20
19.337500
 30
0.000000
 11
50.545231
 21
19.231250
 31
0.000000
  6
CONTINUOUS
  0
LINE
  8
WHITE
 10
50.545231
 20
19.231250
 30
0.000000
 11
37.259675
 21
15.723863
 31
0.000000
  6
CONTINUOUS
  0
ARC
  8
WHITE
 10
38.104554
 20
12.523565
 30
0.000000
 40
3.309944
 50
104.788678
 51
187.133046
  6
CONTINUOUS
  0
LINE
  8
WHITE
 10
34.820227
 20
12.112556
 30
0.000000
 11
34.926481
 21
10.625000
 31
0.000000
  6
CONTINUOUS
  0
LINE
  8
WHITE
 10
34.926481
 20
10.625000
 30
0.000000
 11
20.582731
 21
9.456250
 31
0.000000
  6
CONTINUOUS
  0
LINE
  8
WHITE
 10
20.582731
 20
9.456250
 30
0.000000
 11
20.795231
 21
7.756250
 31
0.000000
  6
CONTINUOUS
  0
LINE
  8
WHITE
 10
20.795231
 20
7.756250
 30
0.000000
 11
35.032731
 21
8.925000
 31
0.000000
  6
CONTINUOUS
  0
LINE
  8
WHITE
 10
35.032731
 20
8.925000
 30
0.000000
 11
35.032731
 21
7.331250
 31
0.000000
  6
CONTINUOUS
  0
ARC
  8
WHITE
 10
30.138934
 20
6.471137
 30
0.000000
 40
4.968806
 50
-73.784465
 51
9.968251
  6
CONTINUOUS
  0
LINE
  8
WHITE
 10
31.526481
 20
1.700000
 30
0.000000
 11
29.932731
 21
1.168750
 31
0.000000
  6
CONTINUOUS
  0
LINE
  8
WHITE
 10
29.932731
 20
1.168750
 30
0.000000
 11
26.851481
 21
0.956250
 31
0.000000
  6
CONTINUOUS
  0
LINE
  8
WHITE
 10
26.851481
 20
0.956250
 30
0.000000
 11
7.726481
 21
0.000000
 31
0.000000
  6
CONTINUOUS
  0
ARC
  8
WHITE
 10
7.736179
 20
7.736173
 30
0.000000
 40
7.736179
 50
141.637636
 51
269.928173
  6
CONTINUOUS
  0
LINE
  8
WHITE
 10
1.670231
 20
12.537500
 30
0.000000
 11
3.688981
 21
14.768750
 31
0.000000
  6
CONTINUOUS
  0
LINE
  8
WHITE
 10
3.688981
 20
14.768750
 30
0.000000
 11
4.645231
 21
16.256250
 31
0.000000
  6
CONTINUOUS
  0
LINE
  8
WHITE
 10
4.645231
 20
16.256250
 30
0.000000
 11
4.963981
 21
17.531250
 31
0.000000
  6
CONTINUOUS
  0
LINE
  8
WHITE
 10
4.963981
 20
17.531250
 30
0.000000
 11
5.176481
 21
18.912500
 31
0.000000
  6
CONTINUOUS
  0
LINE
  8
WHITE
 10
5.176481
 20
18.912500
 30
0.000000
 11
5.282731
 21
21.356250
 31
0.000000
  6
CONTINUOUS
  0
LINE
  8
WHITE
 10
5.282731
 20
21.356250
 30
0.000000
 11
5.282731
 21
21.690866
 31
0.000000
  6
CONTINUOUS
  0
ARC
  8
WHITE
 10
6.282731
 20
21.690866
 30
0.000000
 40
1.000000
 50
87.797402
 51
180.000000
  6
CONTINUOUS
  0
LINE
  8
WHITE
 10
6.321164
 20
22.690127
 30
0.000000
 11
24.620231
 21
21.986317
 31
0.000000
  6
CONTINUOUS
  0
LINE
  8
WHITE
 10
24.620231
 20
21.986317
 30
0.000000
 11
24.620231
 21
23.587500
 31
0.000000
  6
CONTINUOUS
  0
ENDSEC
  0
EOF
