  0
SECTION
  2
HEADER
  9
$ACADVER
  1
AC1009
  9
$LIMMIN
 10
-0.000000
 20
-0.000000
  9
$LIMMAX
 10
68.434635
 20
50.434387
  0
ENDSEC
  0
SECTION
  2
TABLES
  0
TABLE
  2
LTYPE
 70
     4
  0
LTYPE
  2
CONTINUOUS
 70
     0
  3
Solid line
 72
     65
 73
     0
 40
0.000000
  0
LTYPE
  2
HIDDEN
 70
     0
  3
 _ _ _ _ _ _ _ _ _ _ _
 72
     65
 73
     2
 40
0.375000
 49
0.250000
 49
-0.125000
  0
LTYPE
  2
DASHED
 70
     0
  3
 ___ ___ ___ ___ ___ ___ ___ 
 72
     65
 73
     2
 40
0.750000
 49
0.500000
 49
-0.250000
  0
LTYPE
  2
CENTER
 70
     0
  3
___ _ ___ _ ___ _ ___
 72
     65
 73
     4
 40
2.000000
 49
1.250000
 49
-0.250000
 49
0.250000
 49
-0.250000
  0
LTYPE
  2
BORDER
 70
     0
  3
___ ___ . ___ ___ . ___ ___
 72
     65
 73
     6
 40
1.750000
 49
0.500000
 49
-0.250000
 49
0.500000
 49
-0.250000
 49
0.000000
 49
-0.250000
  0
LTYPE
  2
DOT
 70
     0
  3
.................
 72
     65
 73
     2
 40
0.250000
 49
0.000000
 49
-0.250000
  0
LTYPE
  2
DASHDOT
 70
     0
  3
__ . __ . __ . __
 72
     65
 73
     4
 40
1.000000
 49
0.500000
 49
-0.250000
 49
0.000000
 49
-0.250000
  0
LTYPE
  2
DIVIDE
 70
     0
  3
___ .. ___ .. ___ .. ___
 72
     65
 73
     6
 40
1.250000
 49
0.500000
 49
-0.250000
 49
0.000000
 49
-0.250000
 49
0.000000
 49
-0.250000
  0
ENDTAB
  0
TABLE
  2
LAYER
 70
     8
  0
LAYER
  2
BLACK
 70
     0
 62
     1
  6
CONTINUOUS
  0
LAYER
  2
WHITE
 70
     0
 62
     7
  6
CONTINUOUS
  0
LAYER
  2
RED
 70
     0
 62
     1
  6
CONTINUOUS
  0
LAYER
  2
YELLOW
 70
     0
 62
     2
  6
CONTINUOUS
  0
LAYER
  2
GREEN
 70
     0
 62
     3
  6
CONTINUOUS
  0
LAYER
  2
CYAN
 70
     0
 62
     4
  6
CONTINUOUS
  0
LAYER
  2
BLUE
 70
     0
 62
     5
  6
CONTINUOUS
  0
LAYER
  2
MAGENTA
 70
     0
 62
     6
  6
CONTINUOUS
  0
ENDTAB
  0
TABLE
  2
APPID
 70
     1
  0
APPID
  2
TC_BEND_DATA
 70
     0
  0
ENDTAB
  0
ENDSEC
  0
SECTION
  2
BLOCKS
  0
ENDSEC
  0
SECTION
  2
ENTITIES
  0
LINE
  8
WHITE
 10
52.705510
 20
43.616938
 30
0.000000
 11
55.255510
 21
41.704438
 31
0.000000
  6
CONTINUOUS
  0
ARC
  8
WHITE
 10
30.880901
 20
11.703370
 30
0.000000
 40
38.654697
 50
14.381691
 51
50.907589
  6
CONTINUOUS
  0
ARC
  8
WHITE
 10
66.514778
 20
20.662856
 30
0.000000
 40
1.919857
 50
-96.257788
 51
19.522818
  6
CONTINUOUS
  0
LINE
  8
WHITE
 10
66.305510
 20
18.754438
 30
0.000000
 11
65.986760
 21
18.754438
 31
0.000000
  6
CONTINUOUS
  0
LINE
  8
WHITE
 10
65.986760
 20
18.754438
 30
0.000000
 11
65.349260
 21
18.966938
 31
0.000000
  6
CONTINUOUS
  0
LINE
  8
WHITE
 10
65.349260
 20
18.966938
 30
0.000000
 11
64.818010
 21
19.391938
 31
0.000000
  6
CONTINUOUS
  0
LINE
  8
WHITE
 10
64.818010
 20
19.391938
 30
0.000000
 11
62.905510
 21
23.004438
 31
0.000000
  6
CONTINUOUS
  0
ARC
  8
WHITE
 10
30.893260
 20
5.611668
 30
0.000000
 40
36.432027
 50
28.515944
 51
59.254929
  6
CONTINUOUS
  0
LINE
  8
WHITE
 10
49.518010
 20
36.923188
 30
0.000000
 11
46.224260
 21
38.729438
 31
0.000000
  6
CONTINUOUS
  0
LINE
  8
WHITE
 10
46.224260
 20
38.729438
 30
0.000000
 11
43.886760
 21
39.791938
 31
0.000000
  6
CONTINUOUS
  0
LINE
  8
WHITE
 10
43.886760
 20
39.791938
 30
0.000000
 11
40.805510
 21
40.960688
 31
0.000000
  6
CONTINUOUS
  0
ARC
  8
WHITE
 10
36.548971
 20
30.122371
 30
0.000000
 40
11.644193
 50
68.558547
 51
125.691486
  6
CONTINUOUS
  0
LINE
  8
WHITE
 10
29.755510
 20
39.579438
 30
0.000000
 11
28.268010
 21
38.304438
 31
0.000000
  6
CONTINUOUS
  0
LINE
  8
WHITE
 10
28.268010
 20
38.304438
 30
0.000000
 11
27.205510
 21
36.923188
 31
0.000000
  6
CONTINUOUS
  0
LINE
  8
WHITE
 10
27.205510
 20
36.923188
 30
0.000000
 11
26.143010
 21
35.116938
 31
0.000000
  6
CONTINUOUS
  0
LINE
  8
WHITE
 10
26.143010
 20
35.116938
 30
0.000000
 11
25.884656
 21
34.637139
 31
0.000000
  6
CONTINUOUS
  0
ARC
  8
WHITE
 10
25.004185
 20
35.111239
 30
0.000000
 40
1.000000
 50
-119.649864
 51
-28.300756
  6
CONTINUOUS
  0
LINE
  8
WHITE
 10
24.509487
 20
34.242174
 30
0.000000
 11
18.493010
 21
37.666938
 31
0.000000
  6
CONTINUOUS
  0
LINE
  8
WHITE
 10
18.493010
 20
37.666938
 30
0.000000
 11
17.776430
 21
36.233778
 31
0.000000
  6
CONTINUOUS
  0
LINE
  8
WHITE
 10
17.776430
 20
36.233778
 30
0.000000
 11
23.718304
 21
32.851480
 31
0.000000
  6
CONTINUOUS
  0
ARC
  8
WHITE
 10
23.223606
 20
31.982415
 30
0.000000
 40
1.000000
 50
-30.963757
 51
60.350136
  6
CONTINUOUS
  0
LINE
  8
WHITE
 10
24.081099
 20
31.467920
 30
0.000000
 11
23.593010
 21
30.654438
 31
0.000000
  6
CONTINUOUS
  0
ARC
  8
WHITE
 10
32.200008
 20
24.483834
 30
0.000000
 40
10.590409
 50
144.362175
 51
226.185617
  6
CONTINUOUS
  0
ARC
  8
WHITE
 10
51.919100
 20
43.594520
 30
0.000000
 40
38.045527
 50
-135.317880
 51
-83.521547
  6
CONTINUOUS
  0
ARC
  8
WHITE
 10
56.319062
 20
3.656418
 30
0.000000
 40
2.138214
 50
-81.455296
 51
92.876482
  6
CONTINUOUS
  0
LINE
  8
WHITE
 10
56.636760
 20
1.541938
 30
0.000000
 11
54.405510
 21
1.010688
 31
0.000000
  6
CONTINUOUS
  0
LINE
  8
WHITE
 10
54.405510
 20
1.010688
 30
0.000000
 11
52.386760
 21
0.585688
 31
0.000000
  6
CONTINUOUS
  0
ARC
  8
WHITE
 10
45.808333
 20
37.237175
 30
0.000000
 40
37.237175
 50
-155.568494
 51
-79.824557
  6
CONTINUOUS
  0
ARC
  8
WHITE
 10
30.500894
 20
27.761986
 30
0.000000
 40
19.516899
 50
170.213435
 51
197.676938
  6
CONTINUOUS
  0
LINE
  8
WHITE
 10
11.268010
 20
31.079438
 30
0.000000
 11
11.055510
 21
32.035688
 31
0.000000
  6
CONTINUOUS
  0
LINE
  8
WHITE
 10
11.055510
 20
32.035688
 30
0.000000
 11
10.311760
 21
33.204438
 31
0.000000
  6
CONTINUOUS
  0
LINE
  8
WHITE
 10
10.311760
 20
33.204438
 30
0.000000
 11
8.718010
 21
34.479438
 31
0.000000
  6
CONTINUOUS
  0
LINE
  8
WHITE
 10
8.718010
 20
34.479438
 30
0.000000
 11
3.830510
 21
38.410688
 31
0.000000
  6
CONTINUOUS
  0
LINE
  8
WHITE
 10
3.830510
 20
38.410688
 30
0.000000
 11
2.449260
 21
39.260688
 31
0.000000
  6
CONTINUOUS
  0
ARC
  8
WHITE
 10
5.691890
 20
43.938611
 30
0.000000
 40
5.691890
 50
72.082228
 51
235.271175
  6
CONTINUOUS
  0
LINE
  8
WHITE
 10
7.443010
 20
49.354438
 30
0.000000
 11
16.368010
 21
45.954438
 31
0.000000
  6
CONTINUOUS
  0
ARC
  8
WHITE
 10
18.204515
 20
50.636859
 30
0.000000
 40
5.029694
 50
-111.415744
 51
-41.012300
  6
CONTINUOUS
  0
ARC
  8
WHITE
 10
25.215689
 20
44.596858
 30
0.000000
 40
4.224517
 50
119.105198
 51
139.574754
  6
CONTINUOUS
  0
ARC
  8
WHITE
 10
31.429208
 20
33.435749
 30
0.000000
 40
16.998637
 50
87.402645
 51
119.105198
  6
CONTINUOUS
  0
LINE
  8
WHITE
 10
32.199533
 20
50.416924
 30
0.000000
 11
34.218010
 21
50.310688
 31
0.000000
  6
CONTINUOUS
  0
LINE
  8
WHITE
 10
34.218010
 20
50.310688
 30
0.000000
 11
36.661760
 21
50.098188
 31
0.000000
  6
CONTINUOUS
  0
LINE
  8
WHITE
 10
36.661760
 20
50.098188
 30
0.000000
 11
41.336760
 21
49.035688
 31
0.000000
  6
CONTINUOUS
  0
LINE
  8
WHITE
 10
41.336760
 20
49.035688
 30
0.000000
 11
45.055510
 21
47.654438
 31
0.000000
  6
CONTINUOUS
  0
LINE
  8
WHITE
 10
45.055510
 20
47.654438
 30
0.000000
 11
46.861760
 21
46.910688
 31
0.000000
  6
CONTINUOUS
  0
LINE
  8
WHITE
 10
46.861760
 20
46.910688
 30
0.000000
 11
50.686760
 21
44.891938
 31
0.000000
  6
CONTINUOUS
  0
LINE
  8
WHITE
 10
50.686760
 20
44.891938
 30
0.000000
 11
52.705510
 21
43.616938
 31
0.000000
  6
CONTINUOUS
  0
ENDSEC
  0
EOF
