  0
SECTION
  2
HEADER
  9
$ACADVER
  1
AC1009
  9
$LIMMIN
 10
0.000000
 20
0.000000
  9
$LIMMAX
 10
52.962503
 20
42.343341
  0
ENDSEC
  0
SECTION
  2
TABLES
  0
TABLE
  2
LTYPE
 70
     4
  0
LTYPE
  2
CONTINUOUS
 70
     0
  3
Solid line
 72
     65
 73
     0
 40
0.000000
  0
LTYPE
  2
HIDDEN
 70
     0
  3
 _ _ _ _ _ _ _ _ _ _ _
 72
     65
 73
     2
 40
0.375000
 49
0.250000
 49
-0.125000
  0
LTYPE
  2
DASHED
 70
     0
  3
 ___ ___ ___ ___ ___ ___ ___ 
 72
     65
 73
     2
 40
0.750000
 49
0.500000
 49
-0.250000
  0
LTYPE
  2
CENTER
 70
     0
  3
___ _ ___ _ ___ _ ___
 72
     65
 73
     4
 40
2.000000
 49
1.250000
 49
-0.250000
 49
0.250000
 49
-0.250000
  0
LTYPE
  2
BORDER
 70
     0
  3
___ ___ . ___ ___ . ___ ___
 72
     65
 73
     6
 40
1.750000
 49
0.500000
 49
-0.250000
 49
0.500000
 49
-0.250000
 49
0.000000
 49
-0.250000
  0
LTYPE
  2
DOT
 70
     0
  3
.................
 72
     65
 73
     2
 40
0.250000
 49
0.000000
 49
-0.250000
  0
LTYPE
  2
DASHDOT
 70
     0
  3
__ . __ . __ . __
 72
     65
 73
     4
 40
1.000000
 49
0.500000
 49
-0.250000
 49
0.000000
 49
-0.250000
  0
LTYPE
  2
DIVIDE
 70
     0
  3
___ .. ___ .. ___ .. ___
 72
     65
 73
     6
 40
1.250000
 49
0.500000
 49
-0.250000
 49
0.000000
 49
-0.250000
 49
0.000000
 49
-0.250000
  0
ENDTAB
  0
TABLE
  2
LAYER
 70
     8
  0
LAYER
  2
BLACK
 70
     0
 62
     1
  6
CONTINUOUS
  0
LAYER
  2
WHITE
 70
     0
 62
     7
  6
CONTINUOUS
  0
LAYER
  2
RED
 70
     0
 62
     1
  6
CONTINUOUS
  0
LAYER
  2
YELLOW
 70
     0
 62
     2
  6
CONTINUOUS
  0
LAYER
  2
GREEN
 70
     0
 62
     3
  6
CONTINUOUS
  0
LAYER
  2
CYAN
 70
     0
 62
     4
  6
CONTINUOUS
  0
LAYER
  2
BLUE
 70
     0
 62
     5
  6
CONTINUOUS
  0
LAYER
  2
MAGENTA
 70
     0
 62
     6
  6
CONTINUOUS
  0
ENDTAB
  0
TABLE
  2
APPID
 70
     1
  0
APPID
  2
TC_BEND_DATA
 70
     0
  0
ENDTAB
  0
ENDSEC
  0
SECTION
  2
BLOCKS
  0
ENDSEC
  0
SECTION
  2
ENTITIES
  0
LINE
  8
WHITE
 10
42.500001
 20
8.957687
 30
0.000000
 11
33.150001
 21
6.195187
 31
0.000000
  6
CONTINUOUS
  0
LINE
  8
WHITE
 10
33.150001
 20
6.195187
 30
0.000000
 11
29.856251
 21
5.451437
 31
0.000000
  6
CONTINUOUS
  0
LINE
  8
WHITE
 10
29.856251
 20
5.451437
 30
0.000000
 11
27.518751
 21
5.026437
 31
0.000000
  6
CONTINUOUS
  0
LINE
  8
WHITE
 10
27.518751
 20
5.026437
 30
0.000000
 11
24.543751
 21
4.601437
 31
0.000000
  6
CONTINUOUS
  0
LINE
  8
WHITE
 10
24.543751
 20
4.601437
 30
0.000000
 11
20.187501
 21
4.388937
 31
0.000000
  6
CONTINUOUS
  0
LINE
  8
WHITE
 10
20.187501
 20
4.388937
 30
0.000000
 11
16.468751
 21
4.388937
 31
0.000000
  6
CONTINUOUS
  0
LINE
  8
WHITE
 10
16.468751
 20
4.388937
 30
0.000000
 11
11.900001
 21
4.707687
 31
0.000000
  6
CONTINUOUS
  0
LINE
  8
WHITE
 10
11.900001
 20
4.707687
 30
0.000000
 11
8.500001
 21
5.238937
 31
0.000000
  6
CONTINUOUS
  0
LINE
  8
WHITE
 10
8.500001
 20
5.238937
 30
0.000000
 11
4.462501
 21
6.088937
 31
0.000000
  6
CONTINUOUS
  0
ARC
  8
WHITE
 10
5.849228
 20
9.793447
 30
0.000000
 40
3.955554
 50
152.597641
 51
249.477381
  6
CONTINUOUS
  0
LINE
  8
WHITE
 10
2.337501
 20
11.613937
 30
0.000000
 11
4.675001
 21
14.801437
 31
0.000000
  6
CONTINUOUS
  0
LINE
  8
WHITE
 10
4.675001
 20
14.801437
 30
0.000000
 11
6.693751
 21
18.201437
 31
0.000000
  6
CONTINUOUS
  0
LINE
  8
WHITE
 10
6.693751
 20
18.201437
 30
0.000000
 11
8.393751
 21
21.388937
 31
0.000000
  6
CONTINUOUS
  0
ARC
  8
WHITE
 10
1.387065
 20
24.031769
 30
0.000000
 40
7.488538
 50
-20.665833
 51
67.523219
  6
CONTINUOUS
  0
ARC
  8
WHITE
 10
1.884710
 20
28.586778
 30
0.000000
 40
3.344579
 50
44.992349
 51
96.820667
  6
CONTINUOUS
  0
ARC
  8
WHITE
 10
5.345775
 20
24.612315
 30
0.000000
 40
8.252802
 50
90.968706
 51
117.872841
  6
CONTINUOUS
  0
LINE
  8
WHITE
 10
5.206251
 20
32.863937
 30
0.000000
 11
6.906251
 21
32.651437
 31
0.000000
  6
CONTINUOUS
  0
LINE
  8
WHITE
 10
6.906251
 20
32.651437
 30
0.000000
 11
7.862501
 21
32.226437
 31
0.000000
  6
CONTINUOUS
  0
LINE
  8
WHITE
 10
7.862501
 20
32.226437
 30
0.000000
 11
9.243751
 21
31.376437
 31
0.000000
  6
CONTINUOUS
  0
LINE
  8
WHITE
 10
9.243751
 20
31.376437
 30
0.000000
 11
10.200001
 21
31.163937
 31
0.000000
  6
CONTINUOUS
  0
ARC
  8
WHITE
 10
10.393663
 20
33.266511
 30
0.000000
 40
2.111474
 50
-95.262502
 51
15.202498
  6
CONTINUOUS
  0
ARC
  8
WHITE
 10
6.911260
 20
33.284733
 30
0.000000
 40
5.545897
 50
5.540707
 51
94.508370
  6
CONTINUOUS
  0
ARC
  8
WHITE
 10
7.550337
 20
25.179626
 30
0.000000
 40
13.676159
 50
94.508370
 51
123.509843
  6
CONTINUOUS
  0
ARC
  8
WHITE
 10
8.508397
 20
33.179629
 30
0.000000
 40
9.163712
 50
-18.223333
 51
158.200350
  6
CONTINUOUS
  0
ARC
  8
WHITE
 10
-36.767086
 20
40.393202
 30
0.000000
 40
54.912543
 50
-24.565840
 51
-10.576678
  6
CONTINUOUS
  0
LINE
  8
WHITE
 10
13.175001
 20
17.563937
 30
0.000000
 11
11.793751
 21
14.588937
 31
0.000000
  6
CONTINUOUS
  0
ARC
  8
WHITE
 10
14.495288
 20
13.599593
 30
0.000000
 40
2.876996
 50
159.886494
 51
279.724648
  6
CONTINUOUS
  0
LINE
  8
WHITE
 10
14.981251
 20
10.763937
 30
0.000000
 11
19.656251
 21
10.870187
 31
0.000000
  6
CONTINUOUS
  0
LINE
  8
WHITE
 10
19.656251
 20
10.870187
 30
0.000000
 11
24.225001
 21
11.295187
 31
0.000000
  6
CONTINUOUS
  0
LINE
  8
WHITE
 10
24.225001
 20
11.295187
 30
0.000000
 11
28.262501
 21
12.038937
 31
0.000000
  6
CONTINUOUS
  0
LINE
  8
WHITE
 10
28.262501
 20
12.038937
 30
0.000000
 11
45.262501
 21
16.288937
 31
0.000000
  6
CONTINUOUS
  0
ARC
  8
WHITE
 10
46.352806
 20
10.958827
 30
0.000000
 40
5.440481
 50
13.744409
 51
101.560704
  6
CONTINUOUS
  0
LINE
  8
WHITE
 10
51.637501
 20
12.251437
 30
0.000000
 11
51.850001
 21
11.401437
 31
0.000000
  6
CONTINUOUS
  0
LINE
  8
WHITE
 10
51.850001
 20
11.401437
 30
0.000000
 11
52.700001
 21
8.532687
 31
0.000000
  6
CONTINUOUS
  0
LINE
  8
WHITE
 10
52.700001
 20
8.532687
 30
0.000000
 11
52.912501
 21
7.576437
 31
0.000000
  6
CONTINUOUS
  0
ARC
  8
WHITE
 10
47.608751
 20
6.846437
 30
0.000000
 40
5.353752
 50
-72.779247
 51
7.836863
  6
CONTINUOUS
  0
LINE
  8
WHITE
 10
49.193751
 20
1.732687
 30
0.000000
 11
42.181251
 21
0.032687
 31
0.000000
  6
CONTINUOUS
  0
ARC
  8
WHITE
 10
41.633001
 20
4.614187
 30
0.000000
 40
4.614187
 50
-170.563706
 51
-83.176090
  6
CONTINUOUS
  0
LINE
  8
WHITE
 10
37.081251
 20
3.857687
 30
0.000000
 11
36.879614
 21
4.613826
 31
0.000000
  6
CONTINUOUS
  0
ARC
  8
WHITE
 10
37.845849
 20
4.871489
 30
0.000000
 40
1.000000
 50
106.460015
 51
194.931417
  6
CONTINUOUS
  0
LINE
  8
WHITE
 10
37.562502
 20
5.830507
 30
0.000000
 11
42.977299
 21
7.430333
 31
0.000000
  6
CONTINUOUS
  0
LINE
  8
WHITE
 10
42.977299
 20
7.430333
 30
0.000000
 11
42.500001
 21
8.957687
 31
0.000000
  6
CONTINUOUS
  0
ENDSEC
  0
EOF
