  0
SECTION
  2
HEADER
  9
$ACADVER
  1
AC1009
  9
$LIMMIN
 10
0.000000
 20
0.000000
  9
$LIMMAX
 10
61.813788
 20
58.109640
  0
ENDSEC
  0
SECTION
  2
TABLES
  0
TABLE
  2
LTYPE
 70
     4
  0
LTYPE
  2
CONTINUOUS
 70
     0
  3
Solid line
 72
     65
 73
     0
 40
0.000000
  0
LTYPE
  2
HIDDEN
 70
     0
  3
 _ _ _ _ _ _ _ _ _ _ _
 72
     65
 73
     2
 40
0.375000
 49
0.250000
 49
-0.125000
  0
LTYPE
  2
DASHED
 70
     0
  3
 ___ ___ ___ ___ ___ ___ ___ 
 72
     65
 73
     2
 40
0.750000
 49
0.500000
 49
-0.250000
  0
LTYPE
  2
CENTER
 70
     0
  3
___ _ ___ _ ___ _ ___
 72
     65
 73
     4
 40
2.000000
 49
1.250000
 49
-0.250000
 49
0.250000
 49
-0.250000
  0
LTYPE
  2
BORDER
 70
     0
  3
___ ___ . ___ ___ . ___ ___
 72
     65
 73
     6
 40
1.750000
 49
0.500000
 49
-0.250000
 49
0.500000
 49
-0.250000
 49
0.000000
 49
-0.250000
  0
LTYPE
  2
DOT
 70
     0
  3
.................
 72
     65
 73
     2
 40
0.250000
 49
0.000000
 49
-0.250000
  0
LTYPE
  2
DASHDOT
 70
     0
  3
__ . __ . __ . __
 72
     65
 73
     4
 40
1.000000
 49
0.500000
 49
-0.250000
 49
0.000000
 49
-0.250000
  0
LTYPE
  2
DIVIDE
 70
     0
  3
___ .. ___ .. ___ .. ___
 72
     65
 73
     6
 40
1.250000
 49
0.500000
 49
-0.250000
 49
0.000000
 49
-0.250000
 49
0.000000
 49
-0.250000
  0
ENDTAB
  0
TABLE
  2
LAYER
 70
     8
  0
LAYER
  2
BLACK
 70
     0
 62
     1
  6
CONTINUOUS
  0
LAYER
  2
WHITE
 70
     0
 62
     7
  6
CONTINUOUS
  0
LAYER
  2
RED
 70
     0
 62
     1
  6
CONTINUOUS
  0
LAYER
  2
YELLOW
 70
     0
 62
     2
  6
CONTINUOUS
  0
LAYER
  2
GREEN
 70
     0
 62
     3
  6
CONTINUOUS
  0
LAYER
  2
CYAN
 70
     0
 62
     4
  6
CONTINUOUS
  0
LAYER
  2
BLUE
 70
     0
 62
     5
  6
CONTINUOUS
  0
LAYER
  2
MAGENTA
 70
     0
 62
     6
  6
CONTINUOUS
  0
ENDTAB
  0
TABLE
  2
APPID
 70
     1
  0
APPID
  2
TC_BEND_DATA
 70
     0
  0
ENDTAB
  0
ENDSEC
  0
SECTION
  2
BLOCKS
  0
ENDSEC
  0
SECTION
  2
ENTITIES
  0
ARC
  8
WHITE
 10
29.705413
 20
34.589135
 30
0.000000
 40
8.749237
 50
46.752165
 51
127.896981
  6
CONTINUOUS
  0
ARC
  8
WHITE
 10
42.296489
 20
6.441931
 30
0.000000
 40
39.387160
 50
117.136967
 51
165.007946
  6
CONTINUOUS
  0
LINE
  8
WHITE
 10
4.250000
 20
16.630802
 30
0.000000
 11
3.825000
 21
15.674552
 31
0.000000
  6
CONTINUOUS
  0
ARC
  8
WHITE
 10
2.035980
 20
16.734180
 30
0.000000
 40
2.079280
 50
-168.286583
 51
-30.638062
  6
CONTINUOUS
  0
LINE
  8
WHITE
 10
0.000000
 20
16.312052
 30
0.000000
 11
0.212500
 21
18.649552
 31
0.000000
  6
CONTINUOUS
  0
LINE
  8
WHITE
 10
0.212500
 20
18.649552
 30
0.000000
 11
0.425000
 21
20.668302
 31
0.000000
  6
CONTINUOUS
  0
LINE
  8
WHITE
 10
0.425000
 20
20.668302
 30
0.000000
 11
1.381250
 21
24.705802
 31
0.000000
  6
CONTINUOUS
  0
LINE
  8
WHITE
 10
1.381250
 20
24.705802
 30
0.000000
 11
1.806250
 21
26.299552
 31
0.000000
  6
CONTINUOUS
  0
LINE
  8
WHITE
 10
1.806250
 20
26.299552
 30
0.000000
 11
3.612500
 21
30.655802
 31
0.000000
  6
CONTINUOUS
  0
LINE
  8
WHITE
 10
3.612500
 20
30.655802
 30
0.000000
 11
5.312500
 21
34.055802
 31
0.000000
  6
CONTINUOUS
  0
LINE
  8
WHITE
 10
5.312500
 20
34.055802
 30
0.000000
 11
6.800000
 21
36.393302
 31
0.000000
  6
CONTINUOUS
  0
LINE
  8
WHITE
 10
6.800000
 20
36.393302
 30
0.000000
 11
8.287500
 21
38.305802
 31
0.000000
  6
CONTINUOUS
  0
LINE
  8
WHITE
 10
8.287500
 20
38.305802
 30
0.000000
 11
10.943750
 21
41.387052
 31
0.000000
  6
CONTINUOUS
  0
LINE
  8
WHITE
 10
10.943750
 20
41.387052
 30
0.000000
 11
12.750000
 21
43.193302
 31
0.000000
  6
CONTINUOUS
  0
LINE
  8
WHITE
 10
12.750000
 20
43.193302
 30
0.000000
 11
15.937500
 21
45.743302
 31
0.000000
  6
CONTINUOUS
  0
LINE
  8
WHITE
 10
15.937500
 20
45.743302
 30
0.000000
 11
18.487500
 21
47.549552
 31
0.000000
  6
CONTINUOUS
  0
LINE
  8
WHITE
 10
18.487500
 20
47.549552
 30
0.000000
 11
21.462500
 21
49.249552
 31
0.000000
  6
CONTINUOUS
  0
LINE
  8
WHITE
 10
21.462500
 20
49.249552
 30
0.000000
 11
24.862500
 21
50.843302
 31
0.000000
  6
CONTINUOUS
  0
LINE
  8
WHITE
 10
24.862500
 20
50.843302
 30
0.000000
 11
28.475000
 21
52.012052
 31
0.000000
  6
CONTINUOUS
  0
ARC
  8
WHITE
 10
33.277290
 20
35.647448
 30
0.000000
 40
17.054684
 50
62.224176
 51
106.354638
  6
CONTINUOUS
  0
LINE
  8
WHITE
 10
41.225000
 20
50.737052
 30
0.000000
 11
41.968750
 21
50.630802
 31
0.000000
  6
CONTINUOUS
  0
LINE
  8
WHITE
 10
41.968750
 20
50.630802
 30
0.000000
 11
42.925000
 21
50.630802
 31
0.000000
  6
CONTINUOUS
  0
LINE
  8
WHITE
 10
42.925000
 20
50.630802
 30
0.000000
 11
43.881250
 21
50.949552
 31
0.000000
  6
CONTINUOUS
  0
LINE
  8
WHITE
 10
43.881250
 20
50.949552
 30
0.000000
 11
52.062500
 21
56.687052
 31
0.000000
  6
CONTINUOUS
  0
ARC
  8
WHITE
 10
55.907182
 20
52.203033
 30
0.000000
 40
5.906606
 50
-45.716202
 51
130.610406
  6
CONTINUOUS
  0
LINE
  8
WHITE
 10
60.031250
 20
47.974552
 30
0.000000
 11
54.081250
 21
41.068302
 31
0.000000
  6
CONTINUOUS
  0
ARC
  8
WHITE
 10
57.380685
 20
38.337474
 30
0.000000
 40
4.282954
 50
140.386618
 51
199.262360
  6
CONTINUOUS
  0
ARC
  8
WHITE
 10
36.237798
 20
31.167237
 30
0.000000
 40
18.042906
 50
-27.272539
 51
18.607912
  6
CONTINUOUS
  0
ARC
  8
WHITE
 10
15.484697
 20
40.297877
 30
0.000000
 40
40.696783
 50
-67.064904
 51
-25.309710
  6
CONTINUOUS
  0
ARC
  8
WHITE
 10
17.219595
 20
36.801341
 30
0.000000
 40
36.801341
 50
-93.155621
 51
-67.431074
  6
CONTINUOUS
  0
ARC
  8
WHITE
 10
15.458323
 20
2.223407
 30
0.000000
 40
2.183692
 50
175.537786
 51
263.041029
  6
CONTINUOUS
  0
LINE
  8
WHITE
 10
13.281250
 20
2.393302
 30
0.000000
 11
13.600000
 21
3.349552
 31
0.000000
  6
CONTINUOUS
  0
LINE
  8
WHITE
 10
13.600000
 20
3.349552
 30
0.000000
 11
13.706250
 21
3.562052
 31
0.000000
  6
CONTINUOUS
  0
LINE
  8
WHITE
 10
13.706250
 20
3.562052
 30
0.000000
 11
14.343750
 21
3.987052
 31
0.000000
  6
CONTINUOUS
  0
ARC
  8
WHITE
 10
6.746303
 20
46.669694
 30
0.000000
 40
43.353537
 50
-79.907142
 51
-41.941721
  6
CONTINUOUS
  0
LINE
  8
WHITE
 10
38.993750
 20
17.693302
 30
0.000000
 11
40.481250
 21
19.499552
 31
0.000000
  6
CONTINUOUS
  0
LINE
  8
WHITE
 10
40.481250
 20
19.499552
 30
0.000000
 11
41.862500
 21
21.518302
 31
0.000000
  6
CONTINUOUS
  0
LINE
  8
WHITE
 10
41.862500
 20
21.518302
 30
0.000000
 11
43.350000
 21
23.855802
 31
0.000000
  6
CONTINUOUS
  0
ARC
  8
WHITE
 10
35.701704
 20
28.189661
 30
0.000000
 40
8.790835
 50
-29.537788
 51
38.239944
  6
CONTINUOUS
  0
LINE
  8
WHITE
 10
42.606250
 20
33.630802
 30
0.000000
 11
41.543750
 21
34.905802
 31
0.000000
  6
CONTINUOUS
  0
LINE
  8
WHITE
 10
41.543750
 20
34.905802
 30
0.000000
 11
40.552090
 21
35.963572
 31
0.000000
  6
CONTINUOUS
  0
ARC
  8
WHITE
 10
41.281627
 20
36.647514
 30
0.000000
 40
1.000000
 50
132.165889
 51
223.152390
  6
CONTINUOUS
  0
LINE
  8
WHITE
 10
40.610348
 20
37.388718
 30
0.000000
 11
45.599929
 21
41.907584
 31
0.000000
  6
CONTINUOUS
  0
LINE
  8
WHITE
 10
45.599929
 20
41.907584
 30
0.000000
 11
44.518750
 21
43.087052
 31
0.000000
  6
CONTINUOUS
  0
LINE
  8
WHITE
 10
44.518750
 20
43.087052
 30
0.000000
 11
39.568964
 21
38.604227
 31
0.000000
  6
CONTINUOUS
  0
ARC
  8
WHITE
 10
38.897685
 20
39.345431
 30
0.000000
 40
1.000000
 50
-133.025066
 51
-47.834111
  6
CONTINUOUS
  0
LINE
  8
WHITE
 10
38.215367
 20
38.614376
 30
0.000000
 11
35.700000
 21
40.962052
 31
0.000000
  6
CONTINUOUS
  0
ENDSEC
  0
EOF
