  0
SECTION
  2
HEADER
  9
$ACADVER
  1
AC1009
  9
$LIMMIN
 10
0.000000
 20
0.000000
  9
$LIMMAX
 10
58.974761
 20
54.820479
  0
ENDSEC
  0
SECTION
  2
TABLES
  0
TABLE
  2
LTYPE
 70
     4
  0
LTYPE
  2
CONTINUOUS
 70
     0
  3
Solid line
 72
     65
 73
     0
 40
0.000000
  0
LTYPE
  2
HIDDEN
 70
     0
  3
 _ _ _ _ _ _ _ _ _ _ _
 72
     65
 73
     2
 40
0.375000
 49
0.250000
 49
-0.125000
  0
LTYPE
  2
DASHED
 70
     0
  3
 ___ ___ ___ ___ ___ ___ ___ 
 72
     65
 73
     2
 40
0.750000
 49
0.500000
 49
-0.250000
  0
LTYPE
  2
CENTER
 70
     0
  3
___ _ ___ _ ___ _ ___
 72
     65
 73
     4
 40
2.000000
 49
1.250000
 49
-0.250000
 49
0.250000
 49
-0.250000
  0
LTYPE
  2
BORDER
 70
     0
  3
___ ___ . ___ ___ . ___ ___
 72
     65
 73
     6
 40
1.750000
 49
0.500000
 49
-0.250000
 49
0.500000
 49
-0.250000
 49
0.000000
 49
-0.250000
  0
LTYPE
  2
DOT
 70
     0
  3
.................
 72
     65
 73
     2
 40
0.250000
 49
0.000000
 49
-0.250000
  0
LTYPE
  2
DASHDOT
 70
     0
  3
__ . __ . __ . __
 72
     65
 73
     4
 40
1.000000
 49
0.500000
 49
-0.250000
 49
0.000000
 49
-0.250000
  0
LTYPE
  2
DIVIDE
 70
     0
  3
___ .. ___ .. ___ .. ___
 72
     65
 73
     6
 40
1.250000
 49
0.500000
 49
-0.250000
 49
0.000000
 49
-0.250000
 49
0.000000
 49
-0.250000
  0
ENDTAB
  0
TABLE
  2
LAYER
 70
     8
  0
LAYER
  2
BLACK
 70
     0
 62
     1
  6
CONTINUOUS
  0
LAYER
  2
WHITE
 70
     0
 62
     7
  6
CONTINUOUS
  0
LAYER
  2
RED
 70
     0
 62
     1
  6
CONTINUOUS
  0
LAYER
  2
YELLOW
 70
     0
 62
     2
  6
CONTINUOUS
  0
LAYER
  2
GREEN
 70
     0
 62
     3
  6
CONTINUOUS
  0
LAYER
  2
CYAN
 70
     0
 62
     4
  6
CONTINUOUS
  0
LAYER
  2
BLUE
 70
     0
 62
     5
  6
CONTINUOUS
  0
LAYER
  2
MAGENTA
 70
     0
 62
     6
  6
CONTINUOUS
  0
ENDTAB
  0
TABLE
  2
APPID
 70
     1
  0
APPID
  2
TC_BEND_DATA
 70
     0
  0
ENDTAB
  0
ENDSEC
  0
SECTION
  2
BLOCKS
  0
ENDSEC
  0
SECTION
  2
ENTITIES
  0
ARC
  8
WHITE
 10
44.625029
 20
11.880096
 30
0.000000
 40
7.121902
 50
-56.438321
 51
13.937310
  6
CONTINUOUS
  0
ARC
  8
WHITE
 10
56.952794
 20
16.327323
 30
0.000000
 40
6.065556
 50
158.104815
 51
206.768482
  6
CONTINUOUS
  0
LINE
  8
WHITE
 10
51.324761
 20
18.589229
 30
0.000000
 11
54.193511
 21
23.157979
 31
0.000000
  6
CONTINUOUS
  0
LINE
  8
WHITE
 10
54.193511
 20
23.157979
 30
0.000000
 11
56.531011
 21
27.832979
 31
0.000000
  6
CONTINUOUS
  0
LINE
  8
WHITE
 10
56.531011
 20
27.832979
 30
0.000000
 11
57.699761
 21
31.126729
 31
0.000000
  6
CONTINUOUS
  0
LINE
  8
WHITE
 10
57.699761
 20
31.126729
 30
0.000000
 11
58.656011
 21
34.632979
 31
0.000000
  6
CONTINUOUS
  0
LINE
  8
WHITE
 10
58.656011
 20
34.632979
 30
0.000000
 11
58.974761
 21
36.651729
 31
0.000000
  6
CONTINUOUS
  0
LINE
  8
WHITE
 10
58.974761
 20
36.651729
 30
0.000000
 11
58.974761
 21
37.604000
 31
0.000000
  6
CONTINUOUS
  0
ARC
  8
WHITE
 10
56.864480
 20
37.604000
 30
0.000000
 40
2.110281
 50
0.000000
 51
149.644962
  6
CONTINUOUS
  0
LINE
  8
WHITE
 10
55.043496
 20
38.670445
 30
0.000000
 11
52.918511
 21
33.995479
 31
0.000000
  6
CONTINUOUS
  0
LINE
  8
WHITE
 10
52.918511
 20
33.995479
 30
0.000000
 11
51.431011
 21
31.339229
 31
0.000000
  6
CONTINUOUS
  0
ARC
  8
WHITE
 10
18.709792
 20
48.343350
 30
0.000000
 40
36.875715
 50
-57.600509
 51
-27.459388
  6
CONTINUOUS
  0
ARC
  8
WHITE
 10
31.751450
 20
24.647193
 30
0.000000
 40
10.023015
 50
-140.490422
 51
-47.920292
  6
CONTINUOUS
  0
LINE
  8
WHITE
 10
24.018511
 20
18.270479
 30
0.000000
 11
23.522699
 21
18.811364
 31
0.000000
  6
CONTINUOUS
  0
ARC
  8
WHITE
 10
22.785545
 20
18.135640
 30
0.000000
 40
1.000000
 50
42.510447
 51
132.273689
  6
CONTINUOUS
  0
LINE
  8
WHITE
 10
22.112872
 20
18.875580
 30
0.000000
 11
17.006011
 21
14.232979
 31
0.000000
  6
CONTINUOUS
  0
LINE
  8
WHITE
 10
17.006011
 20
14.232979
 30
0.000000
 11
15.924843
 21
15.412435
 31
0.000000
  6
CONTINUOUS
  0
LINE
  8
WHITE
 10
15.924843
 20
15.412435
 30
0.000000
 11
21.067833
 21
20.087881
 31
0.000000
  6
CONTINUOUS
  0
ARC
  8
WHITE
 10
20.395160
 20
20.827821
 30
0.000000
 40
1.000000
 50
-47.726311
 51
43.781125
  6
CONTINUOUS
  0
LINE
  8
WHITE
 10
21.117149
 20
21.519727
 30
0.000000
 11
19.343511
 21
23.370479
 31
0.000000
  6
CONTINUOUS
  0
ARC
  8
WHITE
 10
26.570322
 20
28.860710
 30
0.000000
 40
9.075761
 50
148.738871
 51
217.224052
  6
CONTINUOUS
  0
LINE
  8
WHITE
 10
18.812261
 20
33.570479
 30
0.000000
 11
20.299761
 21
35.801729
 31
0.000000
  6
CONTINUOUS
  0
ARC
  8
WHITE
 10
52.975092
 20
8.960021
 30
0.000000
 40
42.286576
 50
109.298577
 51
140.598023
  6
CONTINUOUS
  0
LINE
  8
WHITE
 10
38.999761
 20
48.870479
 30
0.000000
 11
43.887261
 21
50.464229
 31
0.000000
  6
CONTINUOUS
  0
ARC
  8
WHITE
 10
43.242347
 20
52.661186
 30
0.000000
 40
2.289659
 50
-73.640458
 51
49.239520
  6
CONTINUOUS
  0
LINE
  8
WHITE
 10
44.737261
 20
54.395479
 30
0.000000
 11
44.099761
 21
54.714229
 31
0.000000
  6
CONTINUOUS
  0
LINE
  8
WHITE
 10
44.099761
 20
54.714229
 30
0.000000
 11
43.568511
 21
54.820479
 31
0.000000
  6
CONTINUOUS
  0
ARC
  8
WHITE
 10
44.181513
 20
15.579821
 30
0.000000
 40
39.245445
 50
90.894979
 51
118.592147
  6
CONTINUOUS
  0
LINE
  8
WHITE
 10
25.399761
 20
50.039229
 30
0.000000
 11
24.231011
 21
49.507979
 31
0.000000
  6
CONTINUOUS
  0
LINE
  8
WHITE
 10
24.231011
 20
49.507979
 30
0.000000
 11
22.849761
 21
49.189229
 31
0.000000
  6
CONTINUOUS
  0
LINE
  8
WHITE
 10
22.849761
 20
49.189229
 30
0.000000
 11
21.574761
 21
49.295479
 31
0.000000
  6
CONTINUOUS
  0
ARC
  8
WHITE
 10
17.034842
 20
41.435356
 30
0.000000
 40
9.077025
 50
59.989748
 51
129.439761
  6
CONTINUOUS
  0
LINE
  8
WHITE
 10
11.268511
 20
48.445479
 30
0.000000
 11
7.337261
 21
44.089229
 31
0.000000
  6
CONTINUOUS
  0
ARC
  8
WHITE
 10
9.674761
 20
41.486104
 30
0.000000
 40
3.498595
 50
131.922545
 51
228.077455
  6
CONTINUOUS
  0
LINE
  8
WHITE
 10
7.337261
 20
38.882979
 30
0.000000
 11
8.307270
 21
37.912970
 31
0.000000
  6
CONTINUOUS
  0
ARC
  8
WHITE
 10
9.014377
 20
38.620076
 30
0.000000
 40
1.000000
 50
-135.000000
 51
-44.383940
  6
CONTINUOUS
  0
LINE
  8
WHITE
 10
9.729046
 20
37.920613
 30
0.000000
 11
13.962075
 21
42.245665
 31
0.000000
  6
CONTINUOUS
  0
LINE
  8
WHITE
 10
13.962075
 20
42.245665
 30
0.000000
 11
15.093511
 21
41.114229
 31
0.000000
  6
CONTINUOUS
  0
LINE
  8
WHITE
 10
15.093511
 20
41.114229
 30
0.000000
 11
10.206011
 21
36.120479
 31
0.000000
  6
CONTINUOUS
  0
ARC
  8
WHITE
 10
23.081386
 20
26.742854
 30
0.000000
 40
15.928438
 50
143.932726
 51
188.724660
  6
CONTINUOUS
  0
LINE
  8
WHITE
 10
7.337261
 20
24.326729
 30
0.000000
 11
8.081011
 21
20.501729
 31
0.000000
  6
CONTINUOUS
  0
LINE
  8
WHITE
 10
8.081011
 20
20.501729
 30
0.000000
 11
8.081011
 21
19.120479
 31
0.000000
  6
CONTINUOUS
  0
LINE
  8
WHITE
 10
8.081011
 20
19.120479
 30
0.000000
 11
7.762261
 21
17.845479
 31
0.000000
  6
CONTINUOUS
  0
LINE
  8
WHITE
 10
7.762261
 20
17.845479
 30
0.000000
 11
7.124761
 21
16.676729
 31
0.000000
  6
CONTINUOUS
  0
LINE
  8
WHITE
 10
7.124761
 20
16.676729
 30
0.000000
 11
3.193511
 21
11.895479
 31
0.000000
  6
CONTINUOUS
  0
LINE
  8
WHITE
 10
3.193511
 20
11.895479
 30
0.000000
 11
1.068511
 21
9.239229
 31
0.000000
  6
CONTINUOUS
  0
ARC
  8
WHITE
 10
6.274599
 20
5.736766
 30
0.000000
 40
6.274599
 50
146.068800
 51
218.839264
  6
CONTINUOUS
  0
ARC
  8
WHITE
 10
5.780659
 20
6.257371
 30
0.000000
 40
6.257371
 50
-134.596985
 51
-66.322833
  6
CONTINUOUS
  0
LINE
  8
WHITE
 10
8.293511
 20
0.526729
 30
0.000000
 11
15.199761
 21
5.095479
 31
0.000000
  6
CONTINUOUS
  0
LINE
  8
WHITE
 10
15.199761
 20
5.095479
 30
0.000000
 11
17.218511
 21
6.264229
 31
0.000000
  6
CONTINUOUS
  0
LINE
  8
WHITE
 10
17.218511
 20
6.264229
 30
0.000000
 11
18.599761
 21
6.582979
 31
0.000000
  6
CONTINUOUS
  0
LINE
  8
WHITE
 10
18.599761
 20
6.582979
 30
0.000000
 11
19.874761
 21
6.370479
 31
0.000000
  6
CONTINUOUS
  0
ARC
  8
WHITE
 10
27.746823
 20
20.926792
 30
0.000000
 40
16.548584
 50
-118.404546
 51
-60.831522
  6
CONTINUOUS
  0
LINE
  8
WHITE
 10
35.812261
 20
6.476729
 30
0.000000
 11
42.081011
 21
10.832979
 31
0.000000
  6
CONTINUOUS
  0
LINE
  8
WHITE
 10
42.081011
 20
10.832979
 30
0.000000
 11
43.057692
 21
9.563294
 31
0.000000
  6
CONTINUOUS
  0
LINE
  8
WHITE
 10
43.057692
 20
9.563294
 30
0.000000
 11
38.225210
 21
6.205129
 31
0.000000
  6
CONTINUOUS
  0
ARC
  8
WHITE
 10
38.795867
 20
5.383940
 30
0.000000
 40
1.000000
 50
124.796026
 51
218.659808
  6
CONTINUOUS
  0
LINE
  8
WHITE
 10
38.014998
 20
4.759245
 30
0.000000
 11
39.106011
 21
3.395479
 31
0.000000
  6
CONTINUOUS
  0
ARC
  8
WHITE
 10
41.701809
 20
5.645047
 30
0.000000
 40
3.434927
 50
-139.087156
 51
-74.629641
  6
CONTINUOUS
  0
LINE
  8
WHITE
 10
42.612261
 20
2.332979
 30
0.000000
 11
43.568511
 21
2.651729
 31
0.000000
  6
CONTINUOUS
  0
LINE
  8
WHITE
 10
43.568511
 20
2.651729
 30
0.000000
 11
44.737261
 21
3.289229
 31
0.000000
  6
CONTINUOUS
  0
LINE
  8
WHITE
 10
44.737261
 20
3.289229
 30
0.000000
 11
48.562261
 21
5.945479
 31
0.000000
  6
CONTINUOUS
  0
ENDSEC
  0
EOF
