  0
SECTION
  2
HEADER
  9
$ACADVER
  1
AC1009
  9
$LIMMIN
 10
0.000000
 20
0.000000
  9
$LIMMAX
 10
209.445723
 20
105.652652
  0
ENDSEC
  0
SECTION
  2
TABLES
  0
TABLE
  2
LTYPE
 70
     4
  0
LTYPE
  2
CONTINUOUS
 70
     0
  3
Solid line
 72
     65
 73
     0
 40
0.000000
  0
LTYPE
  2
HIDDEN
 70
     0
  3
 _ _ _ _ _ _ _ _ _ _ _
 72
     65
 73
     2
 40
0.375000
 49
0.250000
 49
-0.125000
  0
LTYPE
  2
DASHED
 70
     0
  3
 ___ ___ ___ ___ ___ ___ ___ 
 72
     65
 73
     2
 40
0.750000
 49
0.500000
 49
-0.250000
  0
LTYPE
  2
CENTER
 70
     0
  3
___ _ ___ _ ___ _ ___
 72
     65
 73
     4
 40
2.000000
 49
1.250000
 49
-0.250000
 49
0.250000
 49
-0.250000
  0
LTYPE
  2
BORDER
 70
     0
  3
___ ___ . ___ ___ . ___ ___
 72
     65
 73
     6
 40
1.750000
 49
0.500000
 49
-0.250000
 49
0.500000
 49
-0.250000
 49
0.000000
 49
-0.250000
  0
LTYPE
  2
DOT
 70
     0
  3
.................
 72
     65
 73
     2
 40
0.250000
 49
0.000000
 49
-0.250000
  0
LTYPE
  2
DASHDOT
 70
     0
  3
__ . __ . __ . __
 72
     65
 73
     4
 40
1.000000
 49
0.500000
 49
-0.250000
 49
0.000000
 49
-0.250000
  0
LTYPE
  2
DIVIDE
 70
     0
  3
___ .. ___ .. ___ .. ___
 72
     65
 73
     6
 40
1.250000
 49
0.500000
 49
-0.250000
 49
0.000000
 49
-0.250000
 49
0.000000
 49
-0.250000
  0
ENDTAB
  0
TABLE
  2
LAYER
 70
     8
  0
LAYER
  2
BLACK
 70
     0
 62
     1
  6
CONTINUOUS
  0
LAYER
  2
WHITE
 70
     0
 62
     7
  6
CONTINUOUS
  0
LAYER
  2
RED
 70
     0
 62
     1
  6
CONTINUOUS
  0
LAYER
  2
YELLOW
 70
     0
 62
     2
  6
CONTINUOUS
  0
LAYER
  2
GREEN
 70
     0
 62
     3
  6
CONTINUOUS
  0
LAYER
  2
CYAN
 70
     0
 62
     4
  6
CONTINUOUS
  0
LAYER
  2
BLUE
 70
     0
 62
     5
  6
CONTINUOUS
  0
LAYER
  2
MAGENTA
 70
     0
 62
     6
  6
CONTINUOUS
  0
ENDTAB
  0
TABLE
  2
APPID
 70
     1
  0
APPID
  2
TC_BEND_DATA
 70
     0
  0
ENDTAB
  0
ENDSEC
  0
SECTION
  2
BLOCKS
  0
ENDSEC
  0
SECTION
  2
ENTITIES
  0
LINE
  8
WHITE
 10
136.743750
 20
4.356250
 30
0.000000
 11
137.168750
 21
3.081250
 31
0.000000
  6
CONTINUOUS
  0
ARC
  8
WHITE
 10
139.043258
 20
3.938603
 30
0.000000
 40
2.061270
 50
-155.421821
 51
-46.486304
  6
CONTINUOUS
  0
ARC
  8
WHITE
 10
142.633090
 20
1.693778
 30
0.000000
 40
2.296501
 50
30.772829
 51
160.939198
  6
CONTINUOUS
  0
ARC
  8
WHITE
 10
146.837500
 20
3.081250
 30
0.000000
 40
2.241346
 50
-174.559668
 51
-95.440332
  6
CONTINUOUS
  0
LINE
  8
WHITE
 10
146.625000
 20
0.850000
 30
0.000000
 11
150.025000
 21
0.425000
 31
0.000000
  6
CONTINUOUS
  0
LINE
  8
WHITE
 10
150.025000
 20
0.425000
 30
0.000000
 11
155.125000
 21
0.106250
 31
0.000000
  6
CONTINUOUS
  0
LINE
  8
WHITE
 10
155.125000
 20
0.106250
 30
0.000000
 11
160.437500
 21
0.000000
 31
0.000000
  6
CONTINUOUS
  0
LINE
  8
WHITE
 10
160.437500
 20
0.000000
 30
0.000000
 11
167.343750
 21
0.000000
 31
0.000000
  6
CONTINUOUS
  0
LINE
  8
WHITE
 10
167.343750
 20
0.000000
 30
0.000000
 11
172.231250
 21
0.212500
 31
0.000000
  6
CONTINUOUS
  0
LINE
  8
WHITE
 10
172.231250
 20
0.212500
 30
0.000000
 11
179.775000
 21
0.743750
 31
0.000000
  6
CONTINUOUS
  0
LINE
  8
WHITE
 10
179.775000
 20
0.743750
 30
0.000000
 11
185.937500
 21
1.487500
 31
0.000000
  6
CONTINUOUS
  0
LINE
  8
WHITE
 10
185.937500
 20
1.487500
 30
0.000000
 11
194.437500
 21
2.762500
 31
0.000000
  6
CONTINUOUS
  0
LINE
  8
WHITE
 10
194.437500
 20
2.762500
 30
0.000000
 11
196.775000
 21
2.975000
 31
0.000000
  6
CONTINUOUS
  0
LINE
  8
WHITE
 10
196.775000
 20
2.975000
 30
0.000000
 11
203.787500
 21
4.356250
 31
0.000000
  6
CONTINUOUS
  0
LINE
  8
WHITE
 10
203.787500
 20
4.356250
 30
0.000000
 11
207.506250
 21
4.993750
 31
0.000000
  6
CONTINUOUS
  0
ARC
  8
WHITE
 10
206.868750
 20
7.490625
 30
0.000000
 40
2.576973
 50
-75.677280
 51
75.677280
  6
CONTINUOUS
  0
LINE
  8
WHITE
 10
207.506250
 20
9.987500
 30
0.000000
 11
196.562500
 21
10.200000
 31
0.000000
  6
CONTINUOUS
  0
LINE
  8
WHITE
 10
196.562500
 20
10.200000
 30
0.000000
 11
189.762500
 21
10.518750
 31
0.000000
  6
CONTINUOUS
  0
LINE
  8
WHITE
 10
189.762500
 20
10.518750
 30
0.000000
 11
182.431250
 21
11.262500
 31
0.000000
  6
CONTINUOUS
  0
ARC
  8
WHITE
 10
181.745997
 20
8.576405
 30
0.000000
 40
2.772126
 50
75.688471
 51
168.322296
  6
CONTINUOUS
  0
ARC
  8
WHITE
 10
176.904957
 20
10.306313
 30
0.000000
 40
2.426364
 50
-156.788017
 51
-28.797388
  6
CONTINUOUS
  0
LINE
  8
WHITE
 10
174.675000
 20
9.350000
 30
0.000000
 11
174.356250
 21
10.625000
 31
0.000000
  6
CONTINUOUS
  0
ARC
  8
WHITE
 10
171.899372
 20
10.310092
 30
0.000000
 40
2.476978
 50
7.303996
 51
140.068299
  6
CONTINUOUS
  0
LINE
  8
WHITE
 10
170.000000
 20
11.900000
 30
0.000000
 11
169.150000
 21
10.412500
 31
0.000000
  6
CONTINUOUS
  0
ARC
  8
WHITE
 10
166.761087
 20
11.692969
 30
0.000000
 40
2.710444
 50
-163.953378
 51
-28.191535
  6
CONTINUOUS
  0
LINE
  8
WHITE
 10
164.156250
 20
10.943750
 30
0.000000
 11
163.943750
 21
12.643750
 31
0.000000
  6
CONTINUOUS
  0
ARC
  8
WHITE
 10
161.284223
 20
12.325784
 30
0.000000
 40
2.678467
 50
6.817776
 51
146.284994
  6
CONTINUOUS
  0
LINE
  8
WHITE
 10
159.056250
 20
13.812500
 30
0.000000
 11
158.206250
 21
12.006250
 31
0.000000
  6
CONTINUOUS
  0
ARC
  8
WHITE
 10
155.872045
 20
13.386939
 30
0.000000
 40
2.711976
 50
-168.715342
 51
-30.604444
  6
CONTINUOUS
  0
LINE
  8
WHITE
 10
153.212500
 20
12.856250
 30
0.000000
 11
153.212500
 21
15.831250
 31
0.000000
  6
CONTINUOUS
  0
ARC
  8
WHITE
 10
150.405950
 20
15.201841
 30
0.000000
 40
2.876261
 50
12.640263
 51
146.544315
  6
CONTINUOUS
  0
LINE
  8
WHITE
 10
148.006250
 20
16.787500
 30
0.000000
 11
147.050000
 21
14.981250
 31
0.000000
  6
CONTINUOUS
  0
ARC
  8
WHITE
 10
144.487407
 20
16.259707
 30
0.000000
 40
2.863797
 50
175.813965
 51
333.485762
  6
CONTINUOUS
  0
LINE
  8
WHITE
 10
141.631250
 20
16.468750
 30
0.000000
 11
141.950000
 21
18.806250
 31
0.000000
  6
CONTINUOUS
  0
LINE
  8
WHITE
 10
141.950000
 20
18.806250
 30
0.000000
 11
141.950000
 21
19.868750
 31
0.000000
  6
CONTINUOUS
  0
ARC
  8
WHITE
 10
138.987684
 20
18.908640
 30
0.000000
 40
3.114021
 50
17.957923
 51
128.187051
  6
CONTINUOUS
  0
LINE
  8
WHITE
 10
137.062500
 20
21.356250
 30
0.000000
 11
136.425000
 21
20.506250
 31
0.000000
  6
CONTINUOUS
  0
LINE
  8
WHITE
 10
136.425000
 20
20.506250
 30
0.000000
 11
135.893750
 21
19.231250
 31
0.000000
  6
CONTINUOUS
  0
ARC
  8
WHITE
 10
133.095985
 20
20.091231
 30
0.000000
 40
2.926953
 50
165.481422
 51
342.913550
  6
CONTINUOUS
  0
LINE
  8
WHITE
 10
130.262500
 20
20.825000
 30
0.000000
 11
130.900000
 21
22.737500
 31
0.000000
  6
CONTINUOUS
  0
ARC
  8
WHITE
 10
127.912740
 20
24.073798
 30
0.000000
 40
3.272524
 50
-24.100516
 51
46.720381
  6
CONTINUOUS
  0
ARC
  8
WHITE
 10
128.173508
 20
23.603033
 30
0.000000
 40
3.474495
 50
55.204001
 51
171.464081
  6
CONTINUOUS
  0
LINE
  8
WHITE
 10
124.737500
 20
24.118750
 30
0.000000
 11
124.206250
 21
23.268750
 31
0.000000
  6
CONTINUOUS
  0
LINE
  8
WHITE
 10
124.206250
 20
23.268750
 30
0.000000
 11
123.781250
 21
22.737500
 31
0.000000
  6
CONTINUOUS
  0
ARC
  8
WHITE
 10
121.888114
 20
25.270777
 30
0.000000
 40
3.162508
 50
151.598802
 51
306.771030
  6
CONTINUOUS
  0
LINE
  8
WHITE
 10
119.106250
 20
26.775000
 30
0.000000
 11
119.743750
 21
27.943750
 31
0.000000
  6
CONTINUOUS
  0
ARC
  8
WHITE
 10
117.058020
 20
29.558382
 30
0.000000
 40
3.133717
 50
-31.013827
 51
140.391400
  6
CONTINUOUS
  0
LINE
  8
WHITE
 10
114.643750
 20
31.556250
 30
0.000000
 11
114.325000
 21
31.025000
 31
0.000000
  6
CONTINUOUS
  0
LINE
  8
WHITE
 10
114.325000
 20
31.025000
 30
0.000000
 11
114.006250
 21
30.068750
 31
0.000000
  6
CONTINUOUS
  0
ARC
  8
WHITE
 10
110.826600
 20
30.394809
 30
0.000000
 40
3.196324
 50
-88.235855
 51
-5.854962
  6
CONTINUOUS
  0
LINE
  8
WHITE
 10
110.925000
 20
27.200000
 30
0.000000
 11
109.650000
 21
27.306250
 31
0.000000
  6
CONTINUOUS
  0
LINE
  8
WHITE
 10
109.650000
 20
27.306250
 30
0.000000
 11
109.311536
 21
27.490867
 31
0.000000
  6
CONTINUOUS
  0
ARC
  8
WHITE
 10
108.832684
 20
26.612971
 30
0.000000
 40
1.000000
 50
61.389540
 51
151.858399
  6
CONTINUOUS
  0
LINE
  8
WHITE
 10
107.950899
 20
27.084623
 30
0.000000
 11
106.002052
 21
23.441126
 31
0.000000
  6
CONTINUOUS
  0
LINE
  8
WHITE
 10
106.002052
 20
23.441126
 30
0.000000
 11
104.550000
 21
24.118750
 31
0.000000
  6
CONTINUOUS
  0
LINE
  8
WHITE
 10
104.550000
 20
24.118750
 30
0.000000
 11
106.521528
 21
27.804651
 31
0.000000
  6
CONTINUOUS
  0
ARC
  8
WHITE
 10
105.639744
 20
28.276303
 30
0.000000
 40
1.000000
 50
-28.141601
 51
61.927513
  6
CONTINUOUS
  0
LINE
  8
WHITE
 10
106.110332
 20
29.158656
 30
0.000000
 11
100.618750
 21
32.087500
 31
0.000000
  6
CONTINUOUS
  0
LINE
  8
WHITE
 10
100.618750
 20
32.087500
 30
0.000000
 11
99.174848
 21
32.843830
 31
0.000000
  6
CONTINUOUS
  0
ARC
  8
WHITE
 10
98.710841
 20
31.957998
 30
0.000000
 40
1.000000
 50
62.354025
 51
152.402704
  6
CONTINUOUS
  0
LINE
  8
WHITE
 10
97.824615
 20
32.421252
 30
0.000000
 11
95.887566
 21
28.715592
 31
0.000000
  6
CONTINUOUS
  0
LINE
  8
WHITE
 10
95.887566
 20
28.715592
 30
0.000000
 11
94.456250
 21
29.431250
 31
0.000000
  6
CONTINUOUS
  0
LINE
  8
WHITE
 10
94.456250
 20
29.431250
 30
0.000000
 11
96.444866
 21
33.235559
 31
0.000000
  6
CONTINUOUS
  0
ARC
  8
WHITE
 10
95.558640
 20
33.698813
 30
0.000000
 40
1.000000
 50
-27.597296
 51
61.389540
  6
CONTINUOUS
  0
LINE
  8
WHITE
 10
96.037493
 20
34.576709
 30
0.000000
 11
95.731250
 21
34.743750
 31
0.000000
  6
CONTINUOUS
  0
LINE
  8
WHITE
 10
95.731250
 20
34.743750
 30
0.000000
 11
90.418750
 21
37.718750
 31
0.000000
  6
CONTINUOUS
  0
LINE
  8
WHITE
 10
90.418750
 20
37.718750
 30
0.000000
 11
89.238812
 21
38.439823
 31
0.000000
  6
CONTINUOUS
  0
ARC
  8
WHITE
 10
88.717362
 20
37.586541
 30
0.000000
 40
1.000000
 50
58.570434
 51
149.981633
  6
CONTINUOUS
  0
LINE
  8
WHITE
 10
87.851497
 20
38.086819
 30
0.000000
 11
85.645455
 21
34.268669
 31
0.000000
  6
CONTINUOUS
  0
LINE
  8
WHITE
 10
85.645455
 20
34.268669
 30
0.000000
 11
84.256250
 21
35.062500
 31
0.000000
  6
CONTINUOUS
  0
LINE
  8
WHITE
 10
84.256250
 20
35.062500
 30
0.000000
 11
86.520547
 21
38.981475
 31
0.000000
  6
CONTINUOUS
  0
ARC
  8
WHITE
 10
85.654682
 20
39.481753
 30
0.000000
 40
1.000000
 50
-30.018367
 51
59.743563
  6
CONTINUOUS
  0
LINE
  8
WHITE
 10
86.158553
 20
40.345532
 30
0.000000
 11
85.743750
 21
40.587500
 31
0.000000
  6
CONTINUOUS
  0
LINE
  8
WHITE
 10
85.743750
 20
40.587500
 30
0.000000
 11
80.112500
 21
43.987500
 31
0.000000
  6
CONTINUOUS
  0
LINE
  8
WHITE
 10
80.112500
 20
43.987500
 30
0.000000
 11
79.456277
 21
44.441808
 31
0.000000
  6
CONTINUOUS
  0
ARC
  8
WHITE
 10
78.887067
 20
43.619616
 30
0.000000
 40
1.000000
 50
55.304846
 51
148.109208
  6
CONTINUOUS
  0
LINE
  8
WHITE
 10
78.038010
 20
44.147918
 30
0.000000
 11
75.585835
 21
40.206922
 31
0.000000
  6
CONTINUOUS
  0
LINE
  8
WHITE
 10
75.585835
 20
40.206922
 30
0.000000
 11
74.268750
 21
41.118750
 31
0.000000
  6
CONTINUOUS
  0
LINE
  8
WHITE
 10
74.268750
 20
41.118750
 30
0.000000
 11
76.752276
 21
45.110132
 31
0.000000
  6
CONTINUOUS
  0
ARC
  8
WHITE
 10
75.903220
 20
45.638434
 30
0.000000
 40
1.000000
 50
-31.890792
 51
53.972627
  6
CONTINUOUS
  0
LINE
  8
WHITE
 10
76.491392
 20
46.447170
 30
0.000000
 11
76.075000
 21
46.750000
 31
0.000000
  6
CONTINUOUS
  0
LINE
  8
WHITE
 10
76.075000
 20
46.750000
 30
0.000000
 11
71.931250
 21
49.618750
 31
0.000000
  6
CONTINUOUS
  0
LINE
  8
WHITE
 10
71.931250
 20
49.618750
 30
0.000000
 11
70.125000
 21
50.681250
 31
0.000000
  6
CONTINUOUS
  0
LINE
  8
WHITE
 10
70.125000
 20
50.681250
 30
0.000000
 11
69.845966
 21
50.867273
 31
0.000000
  6
CONTINUOUS
  0
ARC
  8
WHITE
 10
69.291266
 20
50.035222
 30
0.000000
 40
1.000000
 50
56.309932
 51
143.746162
  6
CONTINUOUS
  0
LINE
  8
WHITE
 10
68.484861
 20
50.626586
 30
0.000000
 11
65.549782
 21
46.624206
 31
0.000000
  6
CONTINUOUS
  0
LINE
  8
WHITE
 10
65.549782
 20
46.624206
 30
0.000000
 11
64.281250
 21
47.600000
 31
0.000000
  6
CONTINUOUS
  0
LINE
  8
WHITE
 10
64.281250
 20
47.600000
 30
0.000000
 11
67.212636
 21
51.597345
 31
0.000000
  6
CONTINUOUS
  0
ARC
  8
WHITE
 10
66.406231
 20
52.188709
 30
0.000000
 40
1.000000
 50
-36.253838
 51
52.125016
  6
CONTINUOUS
  0
LINE
  8
WHITE
 10
67.020172
 20
52.978061
 30
0.000000
 11
66.831250
 21
53.125000
 31
0.000000
  6
CONTINUOUS
  0
LINE
  8
WHITE
 10
66.831250
 20
53.125000
 30
0.000000
 11
65.768750
 21
53.975000
 31
0.000000
  6
CONTINUOUS
  0
LINE
  8
WHITE
 10
65.768750
 20
53.975000
 30
0.000000
 11
61.306250
 21
57.162500
 31
0.000000
  6
CONTINUOUS
  0
LINE
  8
WHITE
 10
61.306250
 20
57.162500
 30
0.000000
 11
60.703237
 21
57.614760
 31
0.000000
  6
CONTINUOUS
  0
ARC
  8
WHITE
 10
60.103237
 20
56.814760
 30
0.000000
 40
1.000000
 50
53.130102
 51
142.125016
  6
CONTINUOUS
  0
LINE
  8
WHITE
 10
59.313885
 20
57.428701
 30
0.000000
 11
56.114567
 21
53.315293
 31
0.000000
  6
CONTINUOUS
  0
LINE
  8
WHITE
 10
56.114567
 20
53.315293
 30
0.000000
 11
54.931250
 21
54.400000
 31
0.000000
  6
CONTINUOUS
  0
LINE
  8
WHITE
 10
54.931250
 20
54.400000
 30
0.000000
 11
58.044412
 21
58.402637
 31
0.000000
  6
CONTINUOUS
  0
ARC
  8
WHITE
 10
57.255060
 20
59.016577
 30
0.000000
 40
1.000000
 50
-37.874984
 51
51.340192
  6
CONTINUOUS
  0
LINE
  8
WHITE
 10
57.879755
 20
59.797446
 30
0.000000
 11
57.587500
 21
60.031250
 31
0.000000
  6
CONTINUOUS
  0
LINE
  8
WHITE
 10
57.587500
 20
60.031250
 30
0.000000
 11
55.675000
 21
61.625000
 31
0.000000
  6
CONTINUOUS
  0
LINE
  8
WHITE
 10
55.675000
 20
61.625000
 30
0.000000
 11
52.487500
 21
64.068750
 31
0.000000
  6
CONTINUOUS
  0
LINE
  8
WHITE
 10
52.487500
 20
64.068750
 30
0.000000
 11
51.927014
 21
64.535822
 31
0.000000
  6
CONTINUOUS
  0
ARC
  8
WHITE
 10
51.286829
 20
63.767601
 30
0.000000
 40
1.000000
 50
50.194429
 51
139.600096
  6
CONTINUOUS
  0
LINE
  8
WHITE
 10
50.525290
 20
64.415719
 30
0.000000
 11
46.867747
 21
60.118107
 31
0.000000
  6
CONTINUOUS
  0
LINE
  8
WHITE
 10
46.867747
 20
60.118107
 30
0.000000
 11
45.687500
 21
61.200000
 31
0.000000
  6
CONTINUOUS
  0
LINE
  8
WHITE
 10
45.687500
 20
61.200000
 30
0.000000
 11
49.269393
 21
65.408724
 31
0.000000
  6
CONTINUOUS
  0
ARC
  8
WHITE
 10
48.507853
 20
66.056843
 30
0.000000
 40
1.000000
 50
-40.399904
 51
51.340192
  6
CONTINUOUS
  0
LINE
  8
WHITE
 10
49.132548
 20
66.837711
 30
0.000000
 11
48.875000
 21
67.043750
 31
0.000000
  6
CONTINUOUS
  0
LINE
  8
WHITE
 10
48.875000
 20
67.043750
 30
0.000000
 11
43.236390
 21
71.917803
 31
0.000000
  6
CONTINUOUS
  0
ARC
  8
WHITE
 10
42.582436
 20
71.161268
 30
0.000000
 40
1.000000
 50
49.159642
 51
136.974934
  6
CONTINUOUS
  0
LINE
  8
WHITE
 10
41.851381
 20
71.843586
 30
0.000000
 11
38.000793
 21
67.717957
 31
0.000000
  6
CONTINUOUS
  0
LINE
  8
WHITE
 10
38.000793
 20
67.717957
 30
0.000000
 11
36.868750
 21
68.850000
 31
0.000000
  6
CONTINUOUS
  0
LINE
  8
WHITE
 10
36.868750
 20
68.850000
 30
0.000000
 11
40.637972
 21
72.888452
 31
0.000000
  6
CONTINUOUS
  0
ARC
  8
WHITE
 10
39.906916
 20
73.570770
 30
0.000000
 40
1.000000
 50
-43.025066
 51
39.276784
  6
CONTINUOUS
  0
ARC
  8
WHITE
 10
42.743653
 20
75.890693
 30
0.000000
 40
2.664576
 50
144.017038
 51
219.276784
  6
CONTINUOUS
  0
LINE
  8
WHITE
 10
40.587500
 20
77.456250
 30
0.000000
 11
41.012500
 21
77.987500
 31
0.000000
  6
CONTINUOUS
  0
LINE
  8
WHITE
 10
41.012500
 20
77.987500
 30
0.000000
 11
45.156250
 21
82.025000
 31
0.000000
  6
CONTINUOUS
  0
ARC
  8
WHITE
 10
41.760438
 20
84.432454
 30
0.000000
 40
4.162616
 50
-35.334661
 51
48.498550
  6
CONTINUOUS
  0
ARC
  8
WHITE
 10
42.093077
 20
84.150385
 30
0.000000
 40
4.176275
 50
54.491612
 51
127.946138
  6
CONTINUOUS
  0
LINE
  8
WHITE
 10
39.525000
 20
87.443750
 30
0.000000
 11
34.531250
 21
82.450000
 31
0.000000
  6
CONTINUOUS
  0
ARC
  8
WHITE
 10
33.462990
 20
84.343175
 30
0.000000
 40
2.173773
 50
-141.205737
 51
-60.565317
  6
CONTINUOUS
  0
LINE
  8
WHITE
 10
31.768750
 20
82.981250
 30
0.000000
 11
31.662500
 21
83.193750
 31
0.000000
  6
CONTINUOUS
  0
ARC
  8
WHITE
 10
34.107908
 20
84.048909
 30
0.000000
 40
2.590621
 50
125.087497
 51
199.274726
  6
CONTINUOUS
  0
LINE
  8
WHITE
 10
32.618750
 20
86.168750
 30
0.000000
 11
36.975000
 21
90.525000
 31
0.000000
  6
CONTINUOUS
  0
ARC
  8
WHITE
 10
33.885264
 20
93.005959
 30
0.000000
 40
3.962528
 50
-38.763348
 51
64.458758
  6
CONTINUOUS
  0
ARC
  8
WHITE
 10
34.180044
 20
92.245855
 30
0.000000
 40
4.560068
 50
71.939643
 51
139.621864
  6
CONTINUOUS
  0
LINE
  8
WHITE
 10
30.706250
 20
95.200000
 30
0.000000
 11
27.200000
 21
91.587500
 31
0.000000
  6
CONTINUOUS
  0
ARC
  8
WHITE
 10
25.255226
 20
92.552453
 30
0.000000
 40
2.171009
 50
-140.190753
 51
-26.389574
  6
CONTINUOUS
  0
ARC
  8
WHITE
 10
25.500000
 20
92.437500
 30
0.000000
 40
2.298539
 50
146.309932
 51
213.690068
  6
CONTINUOUS
  0
LINE
  8
WHITE
 10
23.587500
 20
93.712500
 30
0.000000
 11
29.112500
 21
99.343750
 31
0.000000
  6
CONTINUOUS
  0
ARC
  8
WHITE
 10
26.131375
 20
101.793870
 30
0.000000
 40
3.858782
 50
-39.416021
 51
127.169416
  6
CONTINUOUS
  0
LINE
  8
WHITE
 10
23.800000
 20
104.868750
 30
0.000000
 11
19.337500
 21
100.618750
 31
0.000000
  6
CONTINUOUS
  0
LINE
  8
WHITE
 10
19.337500
 20
100.618750
 30
0.000000
 11
18.487500
 21
100.193750
 31
0.000000
  6
CONTINUOUS
  0
LINE
  8
WHITE
 10
18.487500
 20
100.193750
 30
0.000000
 11
17.531250
 21
99.875000
 31
0.000000
  6
CONTINUOUS
  0
LINE
  8
WHITE
 10
17.531250
 20
99.875000
 30
0.000000
 11
16.575000
 21
99.981250
 31
0.000000
  6
CONTINUOUS
  0
LINE
  8
WHITE
 10
16.575000
 20
99.981250
 30
0.000000
 11
14.556250
 21
100.512500
 31
0.000000
  6
CONTINUOUS
  0
LINE
  8
WHITE
 10
14.556250
 20
100.512500
 30
0.000000
 11
14.237500
 21
100.512500
 31
0.000000
  6
CONTINUOUS
  0
LINE
  8
WHITE
 10
14.237500
 20
100.512500
 30
0.000000
 11
7.509392
 21
93.880508
 31
0.000000
  6
CONTINUOUS
  0
ARC
  8
WHITE
 10
8.211393
 20
93.168332
 30
0.000000
 40
1.000000
 50
134.587807
 51
224.363406
  6
CONTINUOUS
  0
LINE
  8
WHITE
 10
7.496474
 20
92.469125
 30
0.000000
 11
16.256250
 21
83.512500
 31
0.000000
  6
CONTINUOUS
  0
LINE
  8
WHITE
 10
16.256250
 20
83.512500
 30
0.000000
 11
15.124809
 21
82.381059
 31
0.000000
  6
CONTINUOUS
  0
LINE
  8
WHITE
 10
15.124809
 20
82.381059
 30
0.000000
 11
6.368978
 21
91.333651
 31
0.000000
  6
CONTINUOUS
  0
ARC
  8
WHITE
 10
5.654059
 20
90.634444
 30
0.000000
 40
1.000000
 50
44.363406
 51
134.432734
  6
CONTINUOUS
  0
LINE
  8
WHITE
 10
4.953987
 20
91.348517
 30
0.000000
 11
0.212500
 21
86.700000
 31
0.000000
  6
CONTINUOUS
  0
LINE
  8
WHITE
 10
0.212500
 20
86.700000
 30
0.000000
 11
0.000000
 21
86.062500
 31
0.000000
  6
CONTINUOUS
  0
LINE
  8
WHITE
 10
0.000000
 20
86.062500
 30
0.000000
 11
0.106250
 21
85.743750
 31
0.000000
  6
CONTINUOUS
  0
LINE
  8
WHITE
 10
0.106250
 20
85.743750
 30
0.000000
 11
10.412500
 21
74.800000
 31
0.000000
  6
CONTINUOUS
  0
ARC
  8
WHITE
 10
-8.066271
 20
58.843724
 30
0.000000
 40
24.414498
 50
9.058235
 51
40.810355
  6
CONTINUOUS
  0
LINE
  8
WHITE
 10
16.043750
 20
62.687500
 30
0.000000
 11
16.787500
 21
60.031250
 31
0.000000
  6
CONTINUOUS
  0
LINE
  8
WHITE
 10
16.787500
 20
60.031250
 30
0.000000
 11
17.956250
 21
56.100000
 31
0.000000
  6
CONTINUOUS
  0
LINE
  8
WHITE
 10
17.956250
 20
56.100000
 30
0.000000
 11
19.231250
 21
53.125000
 31
0.000000
  6
CONTINUOUS
  0
ARC
  8
WHITE
 10
21.349712
 20
53.442933
 30
0.000000
 40
2.142186
 50
-171.464911
 51
5.714943
  6
CONTINUOUS
  0
LINE
  8
WHITE
 10
23.481250
 20
53.656250
 30
0.000000
 11
23.375000
 21
55.037500
 31
0.000000
  6
CONTINUOUS
  0
LINE
  8
WHITE
 10
23.375000
 20
55.037500
 30
0.000000
 11
23.056250
 21
57.800000
 31
0.000000
  6
CONTINUOUS
  0
LINE
  8
WHITE
 10
23.056250
 20
57.800000
 30
0.000000
 11
23.162500
 21
58.756250
 31
0.000000
  6
CONTINUOUS
  0
LINE
  8
WHITE
 10
23.162500
 20
58.756250
 30
0.000000
 11
23.481250
 21
59.287500
 31
0.000000
  6
CONTINUOUS
  0
ARC
  8
WHITE
 10
25.213875
 20
57.590875
 30
0.000000
 40
2.424980
 50
56.210818
 51
135.601465
  6
CONTINUOUS
  0
LINE
  8
WHITE
 10
26.562500
 20
59.606250
 30
0.000000
 11
26.775000
 21
59.287500
 31
0.000000
  6
CONTINUOUS
  0
LINE
  8
WHITE
 10
26.775000
 20
59.287500
 30
0.000000
 11
27.306250
 21
58.437500
 31
0.000000
  6
CONTINUOUS
  0
LINE
  8
WHITE
 10
27.306250
 20
58.437500
 30
0.000000
 11
27.837500
 21
55.037500
 31
0.000000
  6
CONTINUOUS
  0
ARC
  8
WHITE
 10
63.081548
 20
60.132362
 30
0.000000
 40
35.610399
 50
-171.774334
 51
-154.184615
  6
CONTINUOUS
  0
ARC
  8
WHITE
 10
32.876103
 20
45.594585
 30
0.000000
 40
2.089660
 50
-152.355014
 51
5.469157
  6
CONTINUOUS
  0
LINE
  8
WHITE
 10
34.956250
 20
45.793750
 30
0.000000
 11
34.425000
 21
48.875000
 31
0.000000
  6
CONTINUOUS
  0
LINE
  8
WHITE
 10
34.425000
 20
48.875000
 30
0.000000
 11
34.425000
 21
49.831250
 31
0.000000
  6
CONTINUOUS
  0
ARC
  8
WHITE
 10
36.593583
 20
49.409519
 30
0.000000
 40
2.209210
 50
19.583435
 51
168.994871
  6
CONTINUOUS
  0
LINE
  8
WHITE
 10
38.675000
 20
50.150000
 30
0.000000
 11
39.312500
 21
46.750000
 31
0.000000
  6
CONTINUOUS
  0
LINE
  8
WHITE
 10
39.312500
 20
46.750000
 30
0.000000
 11
40.481250
 21
42.500000
 31
0.000000
  6
CONTINUOUS
  0
LINE
  8
WHITE
 10
40.481250
 20
42.500000
 30
0.000000
 11
41.968750
 21
38.781250
 31
0.000000
  6
CONTINUOUS
  0
LINE
  8
WHITE
 10
41.968750
 20
38.781250
 30
0.000000
 11
42.606250
 21
37.612500
 31
0.000000
  6
CONTINUOUS
  0
ARC
  8
WHITE
 10
44.459103
 20
38.554241
 30
0.000000
 40
2.078447
 50
-153.057343
 51
0.399957
  6
CONTINUOUS
  0
LINE
  8
WHITE
 10
46.537500
 20
38.568750
 30
0.000000
 11
46.325000
 21
40.587500
 31
0.000000
  6
CONTINUOUS
  0
LINE
  8
WHITE
 10
46.325000
 20
40.587500
 30
0.000000
 11
46.431250
 21
41.650000
 31
0.000000
  6
CONTINUOUS
  0
ARC
  8
WHITE
 10
48.483493
 20
41.457348
 30
0.000000
 40
2.061266
 50
66.664204
 51
174.637132
  6
CONTINUOUS
  0
LINE
  8
WHITE
 10
49.300000
 20
43.350000
 30
0.000000
 11
49.937500
 21
43.031250
 31
0.000000
  6
CONTINUOUS
  0
LINE
  8
WHITE
 10
49.937500
 20
43.031250
 30
0.000000
 11
50.362500
 21
42.500000
 31
0.000000
  6
CONTINUOUS
  0
LINE
  8
WHITE
 10
50.362500
 20
42.500000
 30
0.000000
 11
50.575000
 21
41.862500
 31
0.000000
  6
CONTINUOUS
  0
LINE
  8
WHITE
 10
50.575000
 20
41.862500
 30
0.000000
 11
51.000000
 21
38.781250
 31
0.000000
  6
CONTINUOUS
  0
LINE
  8
WHITE
 10
51.000000
 20
38.781250
 30
0.000000
 11
51.743750
 21
35.806250
 31
0.000000
  6
CONTINUOUS
  0
LINE
  8
WHITE
 10
51.743750
 20
35.806250
 30
0.000000
 11
52.700000
 21
32.512500
 31
0.000000
  6
CONTINUOUS
  0
ARC
  8
WHITE
 10
54.809102
 20
32.936705
 30
0.000000
 40
2.151340
 50
-168.627791
 51
-5.647399
  6
CONTINUOUS
  0
LINE
  8
WHITE
 10
56.950000
 20
32.725000
 30
0.000000
 11
57.056250
 21
35.062500
 31
0.000000
  6
CONTINUOUS
  0
ARC
  8
WHITE
 10
59.234375
 20
34.956250
 30
0.000000
 40
2.180715
 50
2.792702
 51
177.207298
  6
CONTINUOUS
  0
LINE
  8
WHITE
 10
61.412500
 20
35.062500
 30
0.000000
 11
62.368750
 21
31.343750
 31
0.000000
  6
CONTINUOUS
  0
LINE
  8
WHITE
 10
62.368750
 20
31.343750
 30
0.000000
 11
63.218750
 21
28.793750
 31
0.000000
  6
CONTINUOUS
  0
LINE
  8
WHITE
 10
63.218750
 20
28.793750
 30
0.000000
 11
64.175000
 21
26.350000
 31
0.000000
  6
CONTINUOUS
  0
ARC
  8
WHITE
 10
66.201875
 20
27.094375
 30
0.000000
 40
2.159240
 50
-159.834112
 51
-11.368477
  6
CONTINUOUS
  0
LINE
  8
WHITE
 10
68.318750
 20
26.668750
 30
0.000000
 11
68.531250
 21
29.006250
 31
0.000000
  6
CONTINUOUS
  0
ARC
  8
WHITE
 10
70.699381
 20
28.787438
 30
0.000000
 40
2.179145
 50
17.184072
 51
174.237115
  6
CONTINUOUS
  0
LINE
  8
WHITE
 10
72.781250
 20
29.431250
 30
0.000000
 11
73.418750
 21
26.350000
 31
0.000000
  6
CONTINUOUS
  0
LINE
  8
WHITE
 10
73.418750
 20
26.350000
 30
0.000000
 11
74.481250
 21
22.418750
 31
0.000000
  6
CONTINUOUS
  0
LINE
  8
WHITE
 10
74.481250
 20
22.418750
 30
0.000000
 11
74.906250
 21
21.568750
 31
0.000000
  6
CONTINUOUS
  0
ARC
  8
WHITE
 10
76.861820
 20
22.528400
 30
0.000000
 40
2.178344
 50
-153.861587
 51
-17.110436
  6
CONTINUOUS
  0
LINE
  8
WHITE
 10
78.943750
 20
21.887500
 30
0.000000
 11
79.050000
 21
23.268750
 31
0.000000
  6
CONTINUOUS
  0
LINE
  8
WHITE
 10
79.050000
 20
23.268750
 30
0.000000
 11
79.368750
 21
24.225000
 31
0.000000
  6
CONTINUOUS
  0
LINE
  8
WHITE
 10
79.368750
 20
24.225000
 30
0.000000
 11
79.687500
 21
24.862500
 31
0.000000
  6
CONTINUOUS
  0
ARC
  8
WHITE
 10
81.212146
 20
22.736262
 30
0.000000
 40
2.616378
 50
50.538797
 51
125.642898
  6
CONTINUOUS
  0
LINE
  8
WHITE
 10
82.875000
 20
24.756250
 30
0.000000
 11
83.300000
 21
24.225000
 31
0.000000
  6
CONTINUOUS
  0
LINE
  8
WHITE
 10
83.300000
 20
24.225000
 30
0.000000
 11
84.256250
 21
20.612500
 31
0.000000
  6
CONTINUOUS
  0
LINE
  8
WHITE
 10
84.256250
 20
20.612500
 30
0.000000
 11
84.787500
 21
18.593750
 31
0.000000
  6
CONTINUOUS
  0
LINE
  8
WHITE
 10
84.787500
 20
18.593750
 30
0.000000
 11
85.318750
 21
17.425000
 31
0.000000
  6
CONTINUOUS
  0
LINE
  8
WHITE
 10
85.318750
 20
17.425000
 30
0.000000
 11
85.850000
 21
16.681250
 31
0.000000
  6
CONTINUOUS
  0
ARC
  8
WHITE
 10
86.937911
 20
18.610144
 30
0.000000
 40
2.214539
 50
-119.423329
 51
5.080413
  6
CONTINUOUS
  0
ARC
  8
WHITE
 10
91.173750
 20
18.702500
 30
0.000000
 40
2.032650
 50
27.983364
 51
177.074251
  6
CONTINUOUS
  0
LINE
  8
WHITE
 10
92.968750
 20
19.656250
 30
0.000000
 11
94.137500
 21
16.043750
 31
0.000000
  6
CONTINUOUS
  0
LINE
  8
WHITE
 10
94.137500
 20
16.043750
 30
0.000000
 11
94.881250
 21
14.237500
 31
0.000000
  6
CONTINUOUS
  0
ARC
  8
WHITE
 10
96.824561
 20
14.762214
 30
0.000000
 40
2.012904
 50
-164.889860
 51
-39.062404
  6
CONTINUOUS
  0
LINE
  8
WHITE
 10
98.387500
 20
13.493750
 30
0.000000
 11
99.343750
 21
15.618750
 31
0.000000
  6
CONTINUOUS
  0
ARC
  8
WHITE
 10
101.074715
 20
14.550942
 30
0.000000
 40
2.033828
 50
12.214703
 51
148.330140
  6
CONTINUOUS
  0
LINE
  8
WHITE
 10
103.062500
 20
14.981250
 30
0.000000
 11
103.381250
 21
12.962500
 31
0.000000
  6
CONTINUOUS
  0
LINE
  8
WHITE
 10
103.381250
 20
12.962500
 30
0.000000
 11
103.806250
 21
11.262500
 31
0.000000
  6
CONTINUOUS
  0
ARC
  8
WHITE
 10
105.652178
 20
11.783169
 30
0.000000
 40
1.917954
 50
-164.248176
 51
-45.614658
  6
CONTINUOUS
  0
LINE
  8
WHITE
 10
106.993750
 20
10.412500
 30
0.000000
 11
107.950000
 21
11.793750
 31
0.000000
  6
CONTINUOUS
  0
ARC
  8
WHITE
 10
109.958971
 20
11.369007
 30
0.000000
 40
2.053380
 50
8.922975
 51
168.062153
  6
CONTINUOUS
  0
LINE
  8
WHITE
 10
111.987500
 20
11.687500
 30
0.000000
 11
112.093750
 21
9.668750
 31
0.000000
  6
CONTINUOUS
  0
ARC
  8
WHITE
 10
114.134603
 20
9.661803
 30
0.000000
 40
2.040864
 50
179.804981
 51
325.300642
  6
CONTINUOUS
  0
LINE
  8
WHITE
 10
115.812500
 20
8.500000
 30
0.000000
 11
116.556250
 21
9.562500
 31
0.000000
  6
CONTINUOUS
  0
ARC
  8
WHITE
 10
118.274638
 20
8.706551
 30
0.000000
 40
1.919767
 50
-9.377409
 51
153.521570
  6
CONTINUOUS
  0
ARC
  8
WHITE
 10
122.296966
 20
7.647825
 30
0.000000
 40
2.255151
 50
160.684777
 51
311.160832
  6
CONTINUOUS
  0
LINE
  8
WHITE
 10
123.781250
 20
5.950000
 30
0.000000
 11
124.843750
 21
7.331250
 31
0.000000
  6
CONTINUOUS
  0
ARC
  8
WHITE
 10
126.353153
 20
5.731702
 30
0.000000
 40
2.199284
 50
17.007884
 51
133.339156
  6
CONTINUOUS
  0
LINE
  8
WHITE
 10
128.456250
 20
6.375000
 30
0.000000
 11
128.668750
 21
5.418750
 31
0.000000
  6
CONTINUOUS
  0
ARC
  8
WHITE
 10
130.903834
 20
5.524017
 30
0.000000
 40
2.237562
 50
-177.303507
 51
-31.459283
  6
CONTINUOUS
  0
ARC
  8
WHITE
 10
134.778125
 20
3.400000
 30
0.000000
 40
2.185886
 50
25.942295
 51
154.057705
  6
CONTINUOUS
  0
ENDSEC
  0
EOF
