  0
SECTION
  2
HEADER
  9
$ACADVER
  1
AC1009
  9
$LIMMIN
 10
0.000000
 20
0.000000
  9
$LIMMAX
 10
126.696873
 20
42.411766
  0
ENDSEC
  0
SECTION
  2
TABLES
  0
TABLE
  2
LTYPE
 70
     4
  0
LTYPE
  2
CONTINUOUS
 70
     0
  3
Solid line
 72
     65
 73
     0
 40
0.000000
  0
LTYPE
  2
HIDDEN
 70
     0
  3
 _ _ _ _ _ _ _ _ _ _ _
 72
     65
 73
     2
 40
0.375000
 49
0.250000
 49
-0.125000
  0
LTYPE
  2
DASHED
 70
     0
  3
 ___ ___ ___ ___ ___ ___ ___ 
 72
     65
 73
     2
 40
0.750000
 49
0.500000
 49
-0.250000
  0
LTYPE
  2
CENTER
 70
     0
  3
___ _ ___ _ ___ _ ___
 72
     65
 73
     4
 40
2.000000
 49
1.250000
 49
-0.250000
 49
0.250000
 49
-0.250000
  0
LTYPE
  2
BORDER
 70
     0
  3
___ ___ . ___ ___ . ___ ___
 72
     65
 73
     6
 40
1.750000
 49
0.500000
 49
-0.250000
 49
0.500000
 49
-0.250000
 49
0.000000
 49
-0.250000
  0
LTYPE
  2
DOT
 70
     0
  3
.................
 72
     65
 73
     2
 40
0.250000
 49
0.000000
 49
-0.250000
  0
LTYPE
  2
DASHDOT
 70
     0
  3
__ . __ . __ . __
 72
     65
 73
     4
 40
1.000000
 49
0.500000
 49
-0.250000
 49
0.000000
 49
-0.250000
  0
LTYPE
  2
DIVIDE
 70
     0
  3
___ .. ___ .. ___ .. ___
 72
     65
 73
     6
 40
1.250000
 49
0.500000
 49
-0.250000
 49
0.000000
 49
-0.250000
 49
0.000000
 49
-0.250000
  0
ENDTAB
  0
TABLE
  2
LAYER
 70
     8
  0
LAYER
  2
BLACK
 70
     0
 62
     1
  6
CONTINUOUS
  0
LAYER
  2
WHITE
 70
     0
 62
     7
  6
CONTINUOUS
  0
LAYER
  2
RED
 70
     0
 62
     1
  6
CONTINUOUS
  0
LAYER
  2
YELLOW
 70
     0
 62
     2
  6
CONTINUOUS
  0
LAYER
  2
GREEN
 70
     0
 62
     3
  6
CONTINUOUS
  0
LAYER
  2
CYAN
 70
     0
 62
     4
  6
CONTINUOUS
  0
LAYER
  2
BLUE
 70
     0
 62
     5
  6
CONTINUOUS
  0
LAYER
  2
MAGENTA
 70
     0
 62
     6
  6
CONTINUOUS
  0
ENDTAB
  0
TABLE
  2
APPID
 70
     1
  0
APPID
  2
TC_BEND_DATA
 70
     0
  0
ENDTAB
  0
ENDSEC
  0
SECTION
  2
BLOCKS
  0
ENDSEC
  0
SECTION
  2
ENTITIES
  0
LINE
  8
WHITE
 10
68.684373
 20
33.885330
 30
0.000000
 11
68.790623
 21
32.929080
 31
0.000000
  6
CONTINUOUS
  0
ARC
  8
WHITE
 10
70.893267
 20
33.468984
 30
0.000000
 40
2.170854
 50
-165.599065
 51
-56.723454
  6
CONTINUOUS
  0
LINE
  8
WHITE
 10
72.084373
 20
31.654080
 30
0.000000
 11
73.253123
 21
32.504080
 31
0.000000
  6
CONTINUOUS
  0
ARC
  8
WHITE
 10
74.641984
 20
30.087730
 30
0.000000
 40
2.787056
 50
29.062507
 51
119.889271
  6
CONTINUOUS
  0
LINE
  8
WHITE
 10
77.078123
 20
31.441580
 30
0.000000
 11
77.715623
 21
30.272830
 31
0.000000
  6
CONTINUOUS
  0
LINE
  8
WHITE
 10
77.715623
 20
30.272830
 30
0.000000
 11
77.928123
 21
29.635330
 31
0.000000
  6
CONTINUOUS
  0
LINE
  8
WHITE
 10
77.928123
 20
29.635330
 30
0.000000
 11
78.565623
 21
28.785330
 31
0.000000
  6
CONTINUOUS
  0
LINE
  8
WHITE
 10
78.565623
 20
28.785330
 30
0.000000
 11
79.415623
 21
28.147830
 31
0.000000
  6
CONTINUOUS
  0
ARC
  8
WHITE
 10
108.218716
 20
78.081579
 30
0.000000
 40
57.645447
 50
-119.977474
 51
-103.764413
  6
CONTINUOUS
  0
ARC
  8
WHITE
 10
96.872769
 20
33.644791
 30
0.000000
 40
11.793723
 50
-101.591020
 51
-36.957863
  6
CONTINUOUS
  0
LINE
  8
WHITE
 10
106.296872
 20
26.554080
 30
0.000000
 11
107.359372
 21
27.935330
 31
0.000000
  6
CONTINUOUS
  0
LINE
  8
WHITE
 10
107.359372
 20
27.935330
 30
0.000000
 11
109.590622
 21
30.910330
 31
0.000000
  6
CONTINUOUS
  0
LINE
  8
WHITE
 10
109.590622
 20
30.910330
 30
0.000000
 11
109.909372
 21
31.016580
 31
0.000000
  6
CONTINUOUS
  0
LINE
  8
WHITE
 10
109.909372
 20
31.016580
 30
0.000000
 11
110.546873
 21
30.804080
 31
0.000000
  6
CONTINUOUS
  0
LINE
  8
WHITE
 10
110.546873
 20
30.804080
 30
0.000000
 11
117.193780
 21
25.581510
 31
0.000000
  6
CONTINUOUS
  0
ARC
  8
WHITE
 10
116.575958
 20
24.795192
 30
0.000000
 40
1.000000
 50
-38.467863
 51
51.842773
  6
CONTINUOUS
  0
LINE
  8
WHITE
 10
117.358915
 20
24.173116
 30
0.000000
 11
111.821873
 21
17.204080
 31
0.000000
  6
CONTINUOUS
  0
LINE
  8
WHITE
 10
111.821873
 20
17.204080
 30
0.000000
 11
113.090227
 21
16.228423
 31
0.000000
  6
CONTINUOUS
  0
LINE
  8
WHITE
 10
113.090227
 20
16.228423
 30
0.000000
 11
118.592173
 21
23.153286
 31
0.000000
  6
CONTINUOUS
  0
ARC
  8
WHITE
 10
119.375131
 20
22.531211
 30
0.000000
 40
1.000000
 50
51.654425
 51
141.532137
  6
CONTINUOUS
  0
LINE
  8
WHITE
 10
119.995534
 20
23.315494
 30
0.000000
 11
126.378123
 21
18.266580
 31
0.000000
  6
CONTINUOUS
  0
LINE
  8
WHITE
 10
126.378123
 20
18.266580
 30
0.000000
 11
126.590623
 21
17.947830
 31
0.000000
  6
CONTINUOUS
  0
LINE
  8
WHITE
 10
126.590623
 20
17.947830
 30
0.000000
 11
126.696873
 21
17.629080
 31
0.000000
  6
CONTINUOUS
  0
ARC
  8
WHITE
 10
121.424842
 20
19.994733
 30
0.000000
 40
5.778461
 50
-86.184408
 51
-24.166614
  6
CONTINUOUS
  0
LINE
  8
WHITE
 10
121.809373
 20
14.229080
 30
0.000000
 11
120.853123
 21
13.804080
 31
0.000000
  6
CONTINUOUS
  0
LINE
  8
WHITE
 10
120.853123
 20
13.804080
 30
0.000000
 11
119.578123
 21
12.635330
 31
0.000000
  6
CONTINUOUS
  0
LINE
  8
WHITE
 10
119.578123
 20
12.635330
 30
0.000000
 11
110.653123
 21
1.160330
 31
0.000000
  6
CONTINUOUS
  0
ARC
  8
WHITE
 10
107.822373
 20
4.033123
 30
0.000000
 40
4.033123
 50
-122.432741
 51
-45.422346
  6
CONTINUOUS
  0
LINE
  8
WHITE
 10
105.659373
 20
0.629080
 30
0.000000
 11
104.809373
 21
1.372830
 31
0.000000
  6
CONTINUOUS
  0
ARC
  8
WHITE
 10
89.566964
 20
-7.519864
 30
0.000000
 40
17.646842
 50
30.260052
 51
82.576842
  6
CONTINUOUS
  0
ARC
  8
WHITE
 10
112.769596
 20
66.566318
 30
0.000000
 40
60.331384
 50
-117.889289
 51
-110.291510
  6
CONTINUOUS
  0
LINE
  8
WHITE
 10
84.548710
 20
13.242238
 30
0.000000
 11
84.010714
 21
13.530457
 31
0.000000
  6
CONTINUOUS
  0
ARC
  8
WHITE
 10
112.769596
 20
66.566318
 30
0.000000
 40
60.331384
 50
-126.646328
 51
-118.468919
  6
CONTINUOUS
  0
LINE
  8
WHITE
 10
76.759373
 20
18.160330
 30
0.000000
 11
75.803123
 21
18.585330
 31
0.000000
  6
CONTINUOUS
  0
LINE
  8
WHITE
 10
75.803123
 20
18.585330
 30
0.000000
 11
74.528123
 21
18.904080
 31
0.000000
  6
CONTINUOUS
  0
ARC
  8
WHITE
 10
73.516659
 20
23.305987
 30
0.000000
 40
4.516619
 50
177.883029
 51
282.940710
  6
CONTINUOUS
  0
ARC
  8
WHITE
 10
66.921851
 20
22.840266
 30
0.000000
 40
2.175277
 50
16.905682
 51
154.066341
  6
CONTINUOUS
  0
LINE
  8
WHITE
 10
64.965623
 20
23.791580
 30
0.000000
 11
64.221873
 21
22.622830
 31
0.000000
  6
CONTINUOUS
  0
ARC
  8
WHITE
 10
62.232417
 20
24.317250
 30
0.000000
 40
2.613234
 50
-161.147547
 51
-40.421049
  6
CONTINUOUS
  0
ARC
  8
WHITE
 10
49.241435
 20
18.266023
 30
0.000000
 40
11.736177
 50
26.337281
 51
84.809766
  6
CONTINUOUS
  0
LINE
  8
WHITE
 10
50.303123
 20
29.954080
 30
0.000000
 11
46.265623
 21
30.804080
 31
0.000000
  6
CONTINUOUS
  0
LINE
  8
WHITE
 10
46.265623
 20
30.804080
 30
0.000000
 11
42.865623
 21
31.229080
 31
0.000000
  6
CONTINUOUS
  0
LINE
  8
WHITE
 10
42.865623
 20
31.229080
 30
0.000000
 11
39.465623
 21
31.547830
 31
0.000000
  6
CONTINUOUS
  0
LINE
  8
WHITE
 10
39.465623
 20
31.547830
 30
0.000000
 11
35.640623
 21
31.654080
 31
0.000000
  6
CONTINUOUS
  0
LINE
  8
WHITE
 10
35.640623
 20
31.654080
 30
0.000000
 11
34.365623
 21
31.441580
 31
0.000000
  6
CONTINUOUS
  0
LINE
  8
WHITE
 10
34.365623
 20
31.441580
 30
0.000000
 11
33.303123
 21
31.229080
 31
0.000000
  6
CONTINUOUS
  0
LINE
  8
WHITE
 10
33.303123
 20
31.229080
 30
0.000000
 11
31.815623
 21
30.485330
 31
0.000000
  6
CONTINUOUS
  0
ARC
  8
WHITE
 10
30.537770
 20
33.798333
 30
0.000000
 40
3.550901
 50
-131.107992
 51
-68.907967
  6
CONTINUOUS
  0
ARC
  8
WHITE
 10
25.626973
 20
29.535962
 30
0.000000
 40
3.025673
 50
31.632430
 51
118.880444
  6
CONTINUOUS
  0
ARC
  8
WHITE
 10
10.641238
 20
48.689368
 30
0.000000
 40
21.337578
 50
-79.299431
 51
-50.666782
  6
CONTINUOUS
  0
ARC
  8
WHITE
 10
17.449050
 20
19.709347
 30
0.000000
 40
8.503835
 50
109.552103
 51
196.386176
  6
CONTINUOUS
  0
ARC
  8
WHITE
 10
-5.067823
 20
17.868054
 30
0.000000
 40
14.369273
 50
-18.650535
 51
-2.224415
  6
CONTINUOUS
  0
ARC
  8
WHITE
 10
2.603214
 20
15.407553
 30
0.000000
 40
6.315388
 50
-46.466437
 51
-19.756246
  6
CONTINUOUS
  0
ARC
  8
WHITE
 10
-1.399344
 20
19.455019
 30
0.000000
 40
12.007103
 50
-83.082111
 51
-45.922786
  6
CONTINUOUS
  0
ARC
  8
WHITE
 10
2.148278
 20
7.981641
 30
0.000000
 40
2.148278
 50
136.961084
 51
191.990695
  6
CONTINUOUS
  0
LINE
  8
WHITE
 10
0.578123
 20
9.447830
 30
0.000000
 11
1.959373
 21
10.829080
 31
0.000000
  6
CONTINUOUS
  0
ARC
  8
WHITE
 10
-3.778127
 20
15.929080
 30
0.000000
 40
7.676517
 50
-41.633539
 51
48.366461
  6
CONTINUOUS
  0
ARC
  8
WHITE
 10
6.010902
 20
24.459087
 30
0.000000
 40
5.457572
 50
99.109254
 51
210.775515
  6
CONTINUOUS
  0
ARC
  8
WHITE
 10
4.829852
 20
33.596838
 30
0.000000
 40
3.762388
 50
-85.166494
 51
78.625519
  6
CONTINUOUS
  0
ARC
  8
WHITE
 10
3.629920
 20
32.817875
 30
0.000000
 40
4.871276
 50
66.505953
 51
106.111276
  6
CONTINUOUS
  0
ARC
  8
WHITE
 10
8.081112
 20
33.328486
 30
0.000000
 40
7.145496
 50
99.946566
 51
144.303430
  6
CONTINUOUS
  0
ARC
  8
WHITE
 10
6.428630
 20
31.863261
 30
0.000000
 40
8.513599
 50
40.492736
 51
87.184131
  6
CONTINUOUS
  0
ARC
  8
WHITE
 10
15.579938
 20
39.090741
 30
0.000000
 40
3.170566
 50
-147.593866
 51
-37.080745
  6
CONTINUOUS
  0
LINE
  8
WHITE
 10
18.109373
 20
37.179080
 30
0.000000
 11
18.428123
 21
37.816580
 31
0.000000
  6
CONTINUOUS
  0
LINE
  8
WHITE
 10
18.428123
 20
37.816580
 30
0.000000
 11
18.746873
 21
38.879080
 31
0.000000
  6
CONTINUOUS
  0
ARC
  8
WHITE
 10
20.801323
 20
38.146846
 30
0.000000
 40
2.181039
 50
55.374144
 51
160.383249
  6
CONTINUOUS
  0
ARC
  8
WHITE
 10
24.066790
 20
41.111958
 30
0.000000
 40
2.339901
 50
-149.987911
 51
-5.250575
  6
CONTINUOUS
  0
LINE
  8
WHITE
 10
26.396873
 20
40.897830
 30
0.000000
 11
26.821873
 21
41.429080
 31
0.000000
  6
CONTINUOUS
  0
ARC
  8
WHITE
 10
28.946873
 20
39.622830
 30
0.000000
 40
2.788936
 50
49.635463
 51
139.635463
  6
CONTINUOUS
  0
LINE
  8
WHITE
 10
30.753123
 20
41.747830
 30
0.000000
 11
32.559373
 21
39.729080
 31
0.000000
  6
CONTINUOUS
  0
LINE
  8
WHITE
 10
32.559373
 20
39.729080
 30
0.000000
 11
33.728123
 21
39.091580
 31
0.000000
  6
CONTINUOUS
  0
LINE
  8
WHITE
 10
33.728123
 20
39.091580
 30
0.000000
 11
34.790623
 21
38.879080
 31
0.000000
  6
CONTINUOUS
  0
LINE
  8
WHITE
 10
34.790623
 20
38.879080
 30
0.000000
 11
39.678123
 21
39.091580
 31
0.000000
  6
CONTINUOUS
  0
LINE
  8
WHITE
 10
39.678123
 20
39.091580
 30
0.000000
 11
44.140623
 21
38.879080
 31
0.000000
  6
CONTINUOUS
  0
LINE
  8
WHITE
 10
44.140623
 20
38.879080
 30
0.000000
 11
49.665623
 21
38.347830
 31
0.000000
  6
CONTINUOUS
  0
LINE
  8
WHITE
 10
49.665623
 20
38.347830
 30
0.000000
 11
54.446873
 21
37.391580
 31
0.000000
  6
CONTINUOUS
  0
LINE
  8
WHITE
 10
54.446873
 20
37.391580
 30
0.000000
 11
59.121873
 21
36.116580
 31
0.000000
  6
CONTINUOUS
  0
LINE
  8
WHITE
 10
59.121873
 20
36.116580
 30
0.000000
 11
60.821873
 21
36.116580
 31
0.000000
  6
CONTINUOUS
  0
LINE
  8
WHITE
 10
60.821873
 20
36.116580
 30
0.000000
 11
62.203123
 21
36.329080
 31
0.000000
  6
CONTINUOUS
  0
LINE
  8
WHITE
 10
62.203123
 20
36.329080
 30
0.000000
 11
63.371873
 21
36.966580
 31
0.000000
  6
CONTINUOUS
  0
LINE
  8
WHITE
 10
63.371873
 20
36.966580
 30
0.000000
 11
64.859373
 21
37.816580
 31
0.000000
  6
CONTINUOUS
  0
ARC
  8
WHITE
 10
65.936943
 20
35.038591
 30
0.000000
 40
2.979661
 50
-22.770715
 51
111.201066
  6
CONTINUOUS
  0
ENDSEC
  0
EOF
